<?xml version="1.0" encoding="UTF-8" standalone="no"?>
<!-- Created with Inkscape (http://www.inkscape.org/) -->

<svg
   version="1.1"
   id="svg1"
   width="167.65404"
   height="200.31497"
   viewBox="0 0 167.65404 200.31497"
   sodipodi:docname="beltcrest_black.svg"
   inkscape:version="1.3 (1:1.3+202307231459+0e150ed6c4)"
   xmlns:inkscape="http://www.inkscape.org/namespaces/inkscape"
   xmlns:sodipodi="http://sodipodi.sourceforge.net/DTD/sodipodi-0.dtd"
   xmlns="http://www.w3.org/2000/svg"
   xmlns:svg="http://www.w3.org/2000/svg">
  <defs
     id="defs1">
    <clipPath
       clipPathUnits="userSpaceOnUse"
       id="clipPath1">
      <path
         d="M 0,0 H 117 V 139 H 0 Z"
         id="path1" />
    </clipPath>
    <clipPath
       clipPathUnits="userSpaceOnUse"
       id="clipPath2">
      <path
         d="M 0,0 H 117 V 139 H 0 Z"
         id="path2" />
    </clipPath>
    <clipPath
       clipPathUnits="userSpaceOnUse"
       id="clipPath3">
      <path
         d="M 0,0 H 117 V 139 H 0 Z"
         id="path3" />
    </clipPath>
    <clipPath
       clipPathUnits="userSpaceOnUse"
       id="clipPath4">
      <path
         d="M 0,0 H 117 V 139 H 0 Z"
         id="path4" />
    </clipPath>
    <clipPath
       clipPathUnits="userSpaceOnUse"
       id="clipPath5">
      <path
         d="M 0,0 H 117 V 139 H 0 Z"
         id="path5" />
    </clipPath>
    <clipPath
       clipPathUnits="userSpaceOnUse"
       id="clipPath6">
      <path
         d="M 0,0 H 117 V 139 H 0 Z"
         id="path6" />
    </clipPath>
    <clipPath
       clipPathUnits="userSpaceOnUse"
       id="clipPath7">
      <path
         d="M 0,0 H 117 V 139 H 0 Z"
         id="path7" />
    </clipPath>
    <clipPath
       clipPathUnits="userSpaceOnUse"
       id="clipPath8">
      <path
         d="M 0,0 H 117 V 139 H 0 Z"
         id="path8" />
    </clipPath>
    <clipPath
       clipPathUnits="userSpaceOnUse"
       id="clipPath9">
      <path
         d="M 0,0 H 117 V 139 H 0 Z"
         id="path9" />
    </clipPath>
    <clipPath
       clipPathUnits="userSpaceOnUse"
       id="clipPath10">
      <path
         d="M 0,0 H 117 V 139 H 0 Z"
         id="path10" />
    </clipPath>
    <clipPath
       clipPathUnits="userSpaceOnUse"
       id="clipPath11">
      <path
         d="M 0,0 H 117 V 139 H 0 Z"
         id="path11" />
    </clipPath>
    <clipPath
       clipPathUnits="userSpaceOnUse"
       id="clipPath12">
      <path
         d="M 0,0 H 117 V 139 H 0 Z"
         id="path12" />
    </clipPath>
    <clipPath
       clipPathUnits="userSpaceOnUse"
       id="clipPath13">
      <path
         d="M 0,0 H 117 V 139 H 0 Z"
         id="path13" />
    </clipPath>
    <clipPath
       clipPathUnits="userSpaceOnUse"
       id="clipPath14">
      <path
         d="M 0,0 H 117 V 139 H 0 Z"
         id="path14" />
    </clipPath>
    <clipPath
       clipPathUnits="userSpaceOnUse"
       id="clipPath15">
      <path
         d="M 0,0 H 117 V 139 H 0 Z"
         id="path15" />
    </clipPath>
    <clipPath
       clipPathUnits="userSpaceOnUse"
       id="clipPath16">
      <path
         d="M 0,0 H 117 V 139 H 0 Z"
         id="path16" />
    </clipPath>
    <clipPath
       clipPathUnits="userSpaceOnUse"
       id="clipPath17">
      <path
         d="M 0,0 H 117 V 139 H 0 Z"
         id="path17" />
    </clipPath>
    <clipPath
       clipPathUnits="userSpaceOnUse"
       id="clipPath18">
      <path
         d="M 0,0 H 117 V 139 H 0 Z"
         id="path18" />
    </clipPath>
    <clipPath
       clipPathUnits="userSpaceOnUse"
       id="clipPath19">
      <path
         d="M 0,0 H 117 V 139 H 0 Z"
         id="path19" />
    </clipPath>
    <clipPath
       clipPathUnits="userSpaceOnUse"
       id="clipPath20">
      <path
         d="M 0,0 H 117 V 139 H 0 Z"
         id="path20" />
    </clipPath>
    <clipPath
       clipPathUnits="userSpaceOnUse"
       id="clipPath21">
      <path
         d="M 0,0 H 117 V 139 H 0 Z"
         id="path21" />
    </clipPath>
    <clipPath
       clipPathUnits="userSpaceOnUse"
       id="clipPath22">
      <path
         d="M 0,0 H 117 V 139 H 0 Z"
         id="path22" />
    </clipPath>
    <clipPath
       clipPathUnits="userSpaceOnUse"
       id="clipPath23">
      <path
         d="M 0,0 H 117 V 139 H 0 Z"
         id="path23" />
    </clipPath>
    <clipPath
       clipPathUnits="userSpaceOnUse"
       id="clipPath24">
      <path
         d="M 0,0 H 117 V 139 H 0 Z"
         id="path24" />
    </clipPath>
    <clipPath
       clipPathUnits="userSpaceOnUse"
       id="clipPath25">
      <path
         d="M 0,0 H 117 V 139 H 0 Z"
         id="path25" />
    </clipPath>
    <clipPath
       clipPathUnits="userSpaceOnUse"
       id="clipPath26">
      <path
         d="M 0,0 H 117 V 139 H 0 Z"
         id="path26" />
    </clipPath>
    <clipPath
       clipPathUnits="userSpaceOnUse"
       id="clipPath27">
      <path
         d="M 0,0 H 117 V 139 H 0 Z"
         id="path27" />
    </clipPath>
    <clipPath
       clipPathUnits="userSpaceOnUse"
       id="clipPath55">
      <path
         d="M 0,0 H 117 V 139 H 0 Z"
         id="path55" />
    </clipPath>
    <clipPath
       clipPathUnits="userSpaceOnUse"
       id="clipPath56">
      <path
         d="M 0,0 H 117 V 139 H 0 Z"
         id="path56" />
    </clipPath>
    <clipPath
       clipPathUnits="userSpaceOnUse"
       id="clipPath57">
      <path
         d="M 0,0 H 117 V 139 H 0 Z"
         transform="scale(1.3333333)"
         id="path57" />
    </clipPath>
    <clipPath
       clipPathUnits="userSpaceOnUse"
       id="clipPath58">
      <path
         d="M 0,0 H 117 V 139 H 0 Z"
         transform="scale(1.3333333)"
         id="path58" />
    </clipPath>
    <clipPath
       clipPathUnits="userSpaceOnUse"
       id="clipPath59">
      <path
         d="M 0,0 H 117 V 139 H 0 Z"
         transform="scale(1.3333333)"
         id="path59" />
    </clipPath>
    <clipPath
       clipPathUnits="userSpaceOnUse"
       id="clipPath60">
      <path
         d="M 0,0 H 117 V 139 H 0 Z"
         transform="scale(1.3333333)"
         id="path60" />
    </clipPath>
    <clipPath
       clipPathUnits="userSpaceOnUse"
       id="clipPath61">
      <path
         d="M 0,0 H 117 V 139 H 0 Z"
         transform="scale(1.3333333)"
         id="path61" />
    </clipPath>
    <clipPath
       clipPathUnits="userSpaceOnUse"
       id="clipPath68">
      <path
         d="M 0.059,0.773 H 115.7 V 138.941 H 0.059 Z"
         transform="scale(1.3333333)"
         id="path68" />
    </clipPath>
    <clipPath
       clipPathUnits="userSpaceOnUse"
       id="clipPath69">
      <path
         d="M 0,0 H 117 V 139 H 0 Z"
         id="path69" />
    </clipPath>
    <clipPath
       clipPathUnits="userSpaceOnUse"
       id="clipPath70">
      <path
         d="M 0,0 H 117 V 139 H 0 Z"
         id="path70" />
    </clipPath>
    <clipPath
       clipPathUnits="userSpaceOnUse"
       id="clipPath71">
      <path
         d="M 0,0 H 117 V 139 H 0 Z"
         id="path71" />
    </clipPath>
    <clipPath
       clipPathUnits="userSpaceOnUse"
       id="clipPath72">
      <path
         d="M 0,0 H 117 V 139 H 0 Z"
         id="path72" />
    </clipPath>
    <clipPath
       clipPathUnits="userSpaceOnUse"
       id="clipPath73">
      <path
         d="M 0,0 H 117 V 139 H 0 Z"
         id="path73" />
    </clipPath>
    <clipPath
       clipPathUnits="userSpaceOnUse"
       id="clipPath74">
      <path
         d="M 0,0 H 117 V 139 H 0 Z"
         id="path74" />
    </clipPath>
    <clipPath
       clipPathUnits="userSpaceOnUse"
       id="clipPath75">
      <path
         d="M 0,0 H 117 V 139 H 0 Z"
         id="path75" />
    </clipPath>
    <clipPath
       clipPathUnits="userSpaceOnUse"
       id="clipPath76">
      <path
         d="M 0,0 H 117 V 139 H 0 Z"
         id="path76" />
    </clipPath>
    <clipPath
       clipPathUnits="userSpaceOnUse"
       id="clipPath77">
      <path
         d="M 0,0 H 117 V 139 H 0 Z"
         id="path77" />
    </clipPath>
    <clipPath
       clipPathUnits="userSpaceOnUse"
       id="clipPath78">
      <path
         d="M 0,0 H 117 V 139 H 0 Z"
         id="path78" />
    </clipPath>
    <clipPath
       clipPathUnits="userSpaceOnUse"
       id="clipPath79">
      <path
         d="M 0,0 H 117 V 139 H 0 Z"
         id="path79" />
    </clipPath>
    <clipPath
       clipPathUnits="userSpaceOnUse"
       id="clipPath80">
      <path
         d="M 0,0 H 117 V 139 H 0 Z"
         id="path80" />
    </clipPath>
    <clipPath
       clipPathUnits="userSpaceOnUse"
       id="clipPath81">
      <path
         d="M 0,0 H 117 V 139 H 0 Z"
         id="path81" />
    </clipPath>
    <clipPath
       clipPathUnits="userSpaceOnUse"
       id="clipPath82">
      <path
         d="M 0,0 H 117 V 139 H 0 Z"
         id="path82" />
    </clipPath>
    <clipPath
       clipPathUnits="userSpaceOnUse"
       id="clipPath83">
      <path
         d="M 0,0 H 117 V 139 H 0 Z"
         id="path83" />
    </clipPath>
    <clipPath
       clipPathUnits="userSpaceOnUse"
       id="clipPath84">
      <path
         d="M 0,0 H 117 V 139 H 0 Z"
         id="path84" />
    </clipPath>
    <clipPath
       clipPathUnits="userSpaceOnUse"
       id="clipPath85">
      <path
         d="M 0,0 H 117 V 139 H 0 Z"
         id="path85" />
    </clipPath>
    <clipPath
       clipPathUnits="userSpaceOnUse"
       id="clipPath86">
      <path
         d="M 0,0 H 117 V 139 H 0 Z"
         id="path86" />
    </clipPath>
    <clipPath
       clipPathUnits="userSpaceOnUse"
       id="clipPath87">
      <path
         d="M 0,0 H 117 V 139 H 0 Z"
         id="path87" />
    </clipPath>
    <clipPath
       clipPathUnits="userSpaceOnUse"
       id="clipPath88">
      <path
         d="M 0,0 H 117 V 139 H 0 Z"
         id="path88" />
    </clipPath>
    <clipPath
       clipPathUnits="userSpaceOnUse"
       id="clipPath89">
      <path
         d="M 0,0 H 117 V 139 H 0 Z"
         id="path89" />
    </clipPath>
    <clipPath
       clipPathUnits="userSpaceOnUse"
       id="clipPath90">
      <path
         d="M 0,0 H 117 V 139 H 0 Z"
         id="path90" />
    </clipPath>
    <clipPath
       clipPathUnits="userSpaceOnUse"
       id="clipPath91">
      <path
         d="M 0,0 H 117 V 139 H 0 Z"
         id="path91" />
    </clipPath>
  </defs>
  <sodipodi:namedview
     id="namedview1"
     pagecolor="#ffffff"
     bordercolor="#666666"
     borderopacity="1.0"
     inkscape:showpageshadow="2"
     inkscape:pageopacity="0.0"
     inkscape:pagecheckerboard="0"
     inkscape:deskcolor="#d1d1d1"
     showgrid="false"
     inkscape:zoom="2.8284271"
     inkscape:cx="179.25157"
     inkscape:cy="127.63277"
     inkscape:window-width="3756"
     inkscape:window-height="2096"
     inkscape:window-x="84"
     inkscape:window-y="27"
     inkscape:window-maximized="1"
     inkscape:current-layer="g1">
    <inkscape:page
       x="0"
       y="0"
       inkscape:label="1"
       id="page1"
       width="167.65404"
       height="200.31497"
       margin="0"
       bleed="0" />
  </sodipodi:namedview>
  <g
     id="g1"
     inkscape:groupmode="layer"
     inkscape:label="1"
     transform="translate(0.75828545,-0.03066671)">
    <g
       id="g115"
       transform="matrix(1.0873446,0,0,1.0873446,-0.84382323,-1.0900231)"
       style="stroke-width:0.919672">
      <g
         id="g54"
         style="fill:#1a1a1a;stroke-width:0.919672">
        <path
           d="m 45.328,38.906 c -3.855,0 -6.976,0.598 -6.976,1.336 0,0.742 3.121,1.34 6.976,1.34 3.852,0 6.973,-0.598 6.973,-1.34 0,-0.738 -3.121,-1.336 -6.973,-1.336"
           style="fill:#1a1a1a;fill-opacity:1;fill-rule:nonzero;stroke:none;stroke-width:0.919672"
           transform="scale(1.3333333)"
           clip-path="url(#clipPath1)"
           id="path28" />
        <path
           d="m 54.93,30.547 -4.028,2.832 -0.035,0.285 0.957,0.43 c 0.192,0.097 0.196,0.25 0.098,0.34 l -2.531,2.136 -0.239,-0.023 -1.793,-2.641 c -0.125,-0.172 -0.078,-0.34 0.137,-0.379 l 1.203,-0.195 v -0.305 l -3.117,-4.402 h -0.516 l -3.117,4.402 v 0.305 l 1.203,0.195 c 0.219,0.039 0.262,0.207 0.137,0.379 L 41.5,36.547 41.258,36.57 38.895,34.434 c -0.094,-0.09 -0.094,-0.243 0.093,-0.34 l 0.961,-0.43 -0.035,-0.285 -4.195,-2.832 -0.34,0.137 2.465,7.523 c 1.25,-0.562 4.121,-0.957 7.48,-0.973 3.364,0.016 6.235,0.411 7.485,0.973 l 2.461,-7.523 -0.34,-0.137"
           style="fill:#1a1a1a;fill-opacity:1;fill-rule:nonzero;stroke:none;stroke-width:0.919672"
           transform="scale(1.3333333)"
           clip-path="url(#clipPath2)"
           id="path29" />
        <path
           d="m 57.836,89.363 c -3.852,0 -6.977,0.598 -6.977,1.336 0,0.742 3.125,1.34 6.977,1.34 3.852,0 6.976,-0.598 6.976,-1.34 0,-0.738 -3.124,-1.336 -6.976,-1.336"
           style="fill:#1a1a1a;fill-opacity:1;fill-rule:nonzero;stroke:none;stroke-width:0.919672"
           transform="scale(1.3333333)"
           clip-path="url(#clipPath3)"
           id="path30" />
        <path
           d="m 67.441,81.004 -4.027,2.832 -0.035,0.285 0.957,0.43 c 0.191,0.097 0.191,0.25 0.094,0.34 l -2.528,2.136 -0.242,-0.023 -1.789,-2.641 c -0.125,-0.172 -0.082,-0.34 0.137,-0.379 l 1.203,-0.195 v -0.305 l -3.117,-4.402 h -0.516 l -3.117,4.402 v 0.305 l 1.203,0.195 c 0.215,0.039 0.262,0.207 0.137,0.379 l -1.793,2.641 -0.238,0.023 -2.364,-2.136 c -0.097,-0.09 -0.094,-0.243 0.094,-0.34 l 0.957,-0.43 -0.035,-0.285 -4.192,-2.832 -0.339,0.133 2.461,7.527 c 1.25,-0.562 4.121,-0.957 7.484,-0.973 3.359,0.016 6.23,0.411 7.48,0.973 l 2.465,-7.527 -0.34,-0.133"
           style="fill:#1a1a1a;fill-opacity:1;fill-rule:nonzero;stroke:none;stroke-width:0.919672"
           transform="scale(1.3333333)"
           clip-path="url(#clipPath4)"
           id="path31" />
        <path
           d="m 70.316,38.906 c -3.851,0 -6.976,0.598 -6.976,1.336 0,0.742 3.125,1.34 6.976,1.34 3.852,0 6.973,-0.598 6.973,-1.34 0,-0.738 -3.121,-1.336 -6.973,-1.336"
           style="fill:#1a1a1a;fill-opacity:1;fill-rule:nonzero;stroke:none;stroke-width:0.919672"
           transform="scale(1.3333333)"
           clip-path="url(#clipPath5)"
           id="path32" />
        <path
           d="m 79.922,30.547 -4.027,2.832 -0.036,0.285 0.957,0.43 c 0.188,0.097 0.192,0.25 0.094,0.34 l -2.527,2.136 -0.242,-0.023 -1.789,-2.641 c -0.125,-0.172 -0.082,-0.34 0.132,-0.379 l 1.204,-0.195 V 33.027 L 70.57,28.625 h -0.511 l -3.118,4.402 v 0.305 l 1.204,0.195 c 0.214,0.039 0.261,0.207 0.136,0.379 l -1.793,2.641 -0.238,0.023 -2.363,-2.164 c -0.098,-0.09 -0.094,-0.242 0.093,-0.34 l 0.958,-0.402 -0.036,-0.285 -4.191,-2.832 -0.34,0.137 2.461,7.523 c 1.25,-0.562 4.121,-0.957 7.484,-0.973 3.36,0.016 6.231,0.411 7.481,0.973 l 2.465,-7.523 -0.34,-0.137"
           style="fill:#1a1a1a;fill-opacity:1;fill-rule:nonzero;stroke:none;stroke-width:0.919672"
           transform="scale(1.3333333)"
           clip-path="url(#clipPath6)"
           id="path33" />
        <path
           d="m 53.047,108.375 c 0,0.77 -0.621,1.391 -1.391,1.391 -0.765,0 -1.386,-0.621 -1.386,-1.391 0,-0.766 0.621,-1.391 1.386,-1.391 0.77,0 1.391,0.625 1.391,1.391"
           style="fill:#1a1a1a;fill-opacity:1;fill-rule:nonzero;stroke:none;stroke-width:0.919672"
           transform="scale(1.3333333)"
           clip-path="url(#clipPath7)"
           id="path34" />
        <path
           d="m 67.133,110.688 c 0,0.765 -0.621,1.386 -1.391,1.386 -0.765,0 -1.387,-0.621 -1.387,-1.386 0,-0.766 0.622,-1.391 1.387,-1.391 0.77,0 1.391,0.625 1.391,1.391"
           style="fill:#1a1a1a;fill-opacity:1;fill-rule:nonzero;stroke:none;stroke-width:0.919672"
           transform="scale(1.3333333)"
           clip-path="url(#clipPath8)"
           id="path35" />
        <path
           d="m 59.172,10.297 c 0,0.765 -0.621,1.387 -1.391,1.387 -0.765,0 -1.386,-0.622 -1.386,-1.387 0,-0.77 0.621,-1.391 1.386,-1.391 0.77,0 1.391,0.621 1.391,1.391"
           style="fill:#1a1a1a;fill-opacity:1;fill-rule:nonzero;stroke:none;stroke-width:0.919672"
           transform="scale(1.3333333)"
           clip-path="url(#clipPath9)"
           id="path36" />
        <path
           d="m 92.23,23.297 c -0.035,0.769 -0.679,1.363 -1.449,1.332 -0.765,-0.035 -1.359,-0.684 -1.328,-1.449 0.031,-0.766 0.68,-1.36 1.445,-1.328 0.766,0.035 1.364,0.679 1.332,1.445"
           style="fill:#1a1a1a;fill-opacity:1;fill-rule:nonzero;stroke:none;stroke-width:0.919672"
           transform="scale(1.3333333)"
           clip-path="url(#clipPath10)"
           id="path37" />
        <path
           d="m 22.559,82.926 c 0.535,0.769 0.804,1.59 0.804,2.441 -0.004,0.973 -0.328,1.758 -2.062,2.961 l -5.016,3.574 -0.926,-1.328 c 0,0 5.141,-3.656 5.223,-3.715 0.887,-0.613 1.266,-1.062 1.266,-1.761 0,-0.446 -0.164,-0.93 -0.485,-1.395 -0.504,-0.723 -1.144,-0.953 -1.715,-0.953 -0.515,-0.004 -1.07,0.359 -2.058,1.047 L 12.871,87 11.969,85.695 16.453,82.652 c 1.25,-0.875 2.246,-1.476 3.168,-1.476 1.352,0.004 2.336,0.879 2.938,1.75"
           style="fill:#1a1a1a;fill-opacity:1;fill-rule:nonzero;stroke:none;stroke-width:0.919672"
           transform="scale(1.3333333)"
           clip-path="url(#clipPath11)"
           id="path38" />
        <path
           d="m 6.531,73.133 9.543,-3.344 0.528,1.445 -5.457,6.668 6.898,-2.726 0.512,1.406 -9.434,3.625 -0.523,-1.449 5.484,-6.676 -7.035,2.461 -0.516,-1.41"
           style="fill:#1a1a1a;fill-opacity:1;fill-rule:nonzero;stroke:none;stroke-width:0.919672"
           transform="scale(1.3333333)"
           clip-path="url(#clipPath12)"
           id="path39" />
        <path
           d="m 5.105,65.535 9.989,-1.48 0.234,1.597 -9.988,1.481 -0.235,-1.598"
           style="fill:#1a1a1a;fill-opacity:1;fill-rule:nonzero;stroke:none;stroke-width:0.919672"
           transform="scale(1.3333333)"
           clip-path="url(#clipPath13)"
           id="path40" />
        <path
           d="m 4.809,53.492 0.039,-1.676 9.968,4.051 -0.07,1.664 -10.238,3.051 0.012,-1.676 8.3,-2.328 -8.011,-3.086"
           style="fill:#1a1a1a;fill-opacity:1;fill-rule:nonzero;stroke:none;stroke-width:0.919672"
           transform="scale(1.3333333)"
           clip-path="url(#clipPath14)"
           id="path41" />
        <path
           d="m 12.129,33.961 c 0.59,-1.078 1.012,-1.488 1.637,-1.484 0.234,0 0.527,0.058 0.82,0.222 0.379,0.207 0.668,0.559 0.777,0.934 0.039,0.144 0.059,0.289 0.059,0.433 -0.008,0.602 -0.34,1.204 -0.692,1.836 l -0.207,0.375 -2.843,-1.531 z m 1.793,-3.063 c -1.426,0.004 -2.086,0.821 -2.996,2.465 l -1.188,2.125 8.899,4.828 0.765,-1.39 -3.695,-2.016 0.215,-0.398 c 0.621,-1.125 0.836,-1.297 2.426,-1.164 l 2.879,0.257 0.824,-1.492 -3.321,-0.285 c -0.668,-0.062 -1.195,-0.109 -1.621,0.012 -0.14,0.043 -0.312,0.129 -0.476,0.246 0.039,-0.18 0.105,-0.356 0.109,-0.539 0,-0.285 -0.039,-0.567 -0.125,-0.824 C 16.426,32.129 16,31.648 15.359,31.297 14.883,31.031 14.406,30.898 13.922,30.898"
           style="fill:#1a1a1a;fill-opacity:1;fill-rule:nonzero;stroke:none;stroke-width:0.919672"
           transform="scale(1.3333333)"
           clip-path="url(#clipPath15)"
           id="path42" />
        <path
           d="m 24.977,16.629 1.285,-0.981 6.129,8.024 -1.289,0.98 -6.125,-8.023"
           style="fill:#1a1a1a;fill-opacity:1;fill-rule:nonzero;stroke:none;stroke-width:0.919672"
           transform="scale(1.3333333)"
           clip-path="url(#clipPath16)"
           id="path43" />
        <path
           d="m 30.52,12.691 6.535,-3.402 0.636,1.227 -2.543,1.324 4.028,7.73 -1.438,0.746 -4.023,-7.73 -2.559,1.332 -0.636,-1.227"
           style="fill:#1a1a1a;fill-opacity:1;fill-rule:nonzero;stroke:none;stroke-width:0.919672"
           transform="scale(1.3333333)"
           clip-path="url(#clipPath17)"
           id="path44" />
        <path
           d="m 46.816,6.219 1.704,-0.477 -1.372,6.758 1.11,3.836 -1.539,0.441 -1.086,-3.804 -4.793,-5.004 1.66,-0.481 3.449,3.594 0.867,-4.863"
           style="fill:#1a1a1a;fill-opacity:1;fill-rule:nonzero;stroke:none;stroke-width:0.919672"
           transform="scale(1.3333333)"
           clip-path="url(#clipPath18)"
           id="path45" />
        <path
           d="m 77.629,20.023 5.129,-8.699 4.824,2.84 -0.703,1.191 -3.445,-2.031 -1.418,2.41 3.246,1.911 -0.688,1.164 -3.242,-1.911 -2.32,3.938 -1.383,-0.813"
           style="fill:#1a1a1a;fill-opacity:1;fill-rule:nonzero;stroke:none;stroke-width:0.919672"
           transform="scale(1.3333333)"
           clip-path="url(#clipPath19)"
           id="path46" />
        <path
           d="m 103.578,42.52 3.676,-4.399 0.57,1.738 -2.734,3.133 4.066,0.914 0.539,1.641 -5.562,-1.344 -3.953,4.735 -0.563,-1.711 2.981,-3.477 -4.457,-1.02 -0.543,-1.656 5.98,1.446"
           style="fill:#1a1a1a;fill-opacity:1;fill-rule:nonzero;stroke:none;stroke-width:0.919672"
           transform="scale(1.3333333)"
           clip-path="url(#clipPath20)"
           id="path47" />
        <path
           d="m 100.691,52.441 10.067,-0.82 0.453,5.582 -1.379,0.113 -0.324,-3.984 -2.781,0.227 0.304,3.75 -1.347,0.109 -0.305,-3.75 -4.559,0.371 -0.129,-1.598"
           style="fill:#1a1a1a;fill-opacity:1;fill-rule:nonzero;stroke:none;stroke-width:0.919672"
           transform="scale(1.3333333)"
           clip-path="url(#clipPath21)"
           id="path48" />
        <path
           d="m 105.938,69.141 c -1.969,0 -4.266,-1.075 -4.266,-3.055 0,-0.719 0.25,-1.684 1.137,-2.328 0.601,-0.438 1.379,-0.668 2.253,-0.668 1,0 2.805,0.281 3.754,1.59 0.329,0.449 0.493,0.972 0.493,1.531 0,0.773 -0.317,1.691 -1.145,2.293 -0.586,0.426 -1.359,0.637 -2.226,0.637 z m -0.797,-7.696 c -1.168,0 -2.239,0.317 -3.086,0.93 -1.528,1.105 -1.801,2.691 -1.801,3.621 0,3.414 3.207,4.777 5.617,4.777 1.156,0.004 2.215,-0.312 3.051,-0.918 1.699,-1.23 1.793,-3.082 1.793,-3.679 0,-2.977 -2.738,-4.731 -5.574,-4.731"
           style="fill:#1a1a1a;fill-opacity:1;fill-rule:nonzero;stroke:none;stroke-width:0.919672"
           transform="scale(1.3333333)"
           clip-path="url(#clipPath22)"
           id="path49" />
        <path
           d="m 97.707,36.055 c -0.906,0 -1.723,-0.379 -2.289,-1.27 -0.289,-0.453 -0.426,-0.941 -0.43,-1.437 -0.004,-1.141 0.719,-2.313 2.043,-3.157 0.875,-0.554 1.739,-0.828 2.508,-0.824 0.973,0 1.766,0.43 2.293,1.262 0.313,0.492 0.457,1.016 0.457,1.539 0,1.113 -0.707,2.207 -1.988,3.02 -0.895,0.566 -1.801,0.867 -2.594,0.867 z m 1.574,-8.227 c -1.023,0 -2.109,0.324 -3.156,0.988 -1.941,1.235 -2.648,2.996 -2.648,4.282 0,0.832 0.23,1.652 0.707,2.402 1.074,1.699 2.691,2.113 3.785,2.109 1.043,-0.004 2.14,-0.351 3.176,-1.007 1.25,-0.793 2.64,-2.266 2.64,-4.258 0,-0.828 -0.234,-1.641 -0.715,-2.399 -0.882,-1.39 -2.265,-2.117 -3.789,-2.117"
           style="fill:#1a1a1a;fill-opacity:1;fill-rule:nonzero;stroke:none;stroke-width:0.919672"
           transform="scale(1.3333333)"
           clip-path="url(#clipPath23)"
           id="path50" />
        <path
           d="m 71.211,16.035 c -0.731,0 -1.789,-0.355 -2.379,-1.433 -0.285,-0.524 -0.414,-1.157 -0.414,-1.813 0,-1.809 1.207,-4.344 3.406,-4.344 1.235,0 2.789,0.918 2.789,3.203 0,1.454 -1.027,4.387 -3.402,4.387 z M 71.73,7.031 c -2.105,0 -3.937,1.414 -4.675,3.934 -0.164,0.558 -0.27,1.113 -0.27,1.648 0,1.008 0.168,1.809 0.582,2.563 0.934,1.711 2.645,2.293 3.945,2.293 0.735,0 1.442,-0.168 2.09,-0.524 1.703,-0.933 2.828,-3.093 2.828,-5.164 0,-0.898 -0.175,-1.746 -0.574,-2.469 C 74.836,7.82 73.32,7.031 71.73,7.031"
           style="fill:#1a1a1a;fill-opacity:1;fill-rule:nonzero;stroke:none;stroke-width:0.919672"
           transform="scale(1.3333333)"
           clip-path="url(#clipPath24)"
           id="path51" />
        <path
           d="m 15.797,43.652 1.355,0.383 -1.531,5.547 -9.773,-2.676 1.668,-5.613 1.328,0.375 -1.227,4.043 2.695,0.738 1.04,-3.672 1.3,0.371 -1.035,3.661 3.047,0.836 1.133,-3.993"
           style="fill:#1a1a1a;fill-opacity:1;fill-rule:nonzero;stroke:none;stroke-width:0.919672"
           transform="scale(1.3333333)"
           clip-path="url(#clipPath25)"
           id="path52" />
        <path
           d="m 18.359,22.555 c 1.403,-1.571 2.836,-1.465 2.836,-1.465 l 0.246,1.332 c 0,0 -1.105,0.039 -1.972,1.008 -0.379,0.422 -0.567,0.863 -0.567,1.261 0,0.329 0.125,0.614 0.383,0.84 0.699,0.625 1.895,-0.066 2.645,-0.367 0.574,-0.238 1.39,-0.57 2.211,-0.57 0.609,0 1.238,0.172 1.816,0.687 0.672,0.602 1.008,1.352 1.008,2.145 0,0.859 -0.332,1.621 -1.004,2.371 -1.289,1.441 -3.02,1.601 -3.02,1.601 l -0.343,-1.351 c 1.019,-0.235 1.793,-0.629 2.261,-1.156 0.368,-0.411 0.547,-0.871 0.547,-1.278 0,-0.383 -0.156,-0.738 -0.468,-1.015 -0.254,-0.227 -0.559,-0.309 -0.895,-0.301 -0.648,0 -1.426,0.371 -2.066,0.641 -1.227,0.503 -2.524,0.914 -3.68,-0.122 -0.59,-0.527 -0.902,-1.187 -0.902,-1.921 0,-0.782 0.308,-1.606 0.964,-2.34"
           style="fill:#1a1a1a;fill-opacity:1;fill-rule:nonzero;stroke:none;stroke-width:0.919672"
           transform="scale(1.3333333)"
           clip-path="url(#clipPath26)"
           id="path53" />
        <path
           d="m 103.969,80.504 c -0.453,0 -1.227,-0.262 -1.52,-1.016 -0.074,-0.191 -0.105,-0.386 -0.101,-0.582 0.004,-0.551 0.265,-1.125 0.535,-1.73 l 0.172,-0.391 2.91,1.309 -0.32,0.781 c -0.543,1.234 -0.895,1.625 -1.676,1.629 z m -5.961,-5.988 3.816,1.726 -0.187,0.43 c -0.52,1.176 -0.719,1.363 -2.313,1.371 l -2.89,0.004 -0.688,1.558 3.332,-0.011 c 0.676,0 1.199,0 1.61,-0.156 0.132,-0.055 0.285,-0.137 0.425,-0.25 -0.008,0.085 -0.039,0.167 -0.039,0.257 -0.004,0.371 0.067,0.739 0.207,1.059 0.453,1.066 1.699,1.59 2.61,1.586 1.605,0 2.222,-0.961 3,-2.731 0.031,-0.066 0.941,-2.164 0.941,-2.164 l -9.184,-4.136 -0.64,1.457"
           style="fill:#1a1a1a;fill-opacity:1;fill-rule:nonzero;stroke:none;stroke-width:0.919672"
           transform="scale(1.3333333)"
           clip-path="url(#clipPath27)"
           id="path54" />
      </g>
      <g
         id="g68"
         clip-path="url(#clipPath68)"
         style="fill:#1a1a1a;stroke-width:0.919672">
        <g
           clip-path="url(#clipPath61)"
           id="g67"
           style="fill:#1a1a1a;stroke-width:0.919672">
          <g
             clip-path="url(#clipPath60)"
             id="g66"
             style="fill:#1a1a1a;stroke-width:0.919672">
            <g
               clip-path="url(#clipPath59)"
               id="g65"
               style="fill:#1a1a1a;stroke-width:0.919672">
              <g
                 clip-path="url(#clipPath58)"
                 id="g64"
                 style="fill:#1a1a1a;stroke-width:0.919672">
                <g
                   clip-path="url(#clipPath57)"
                   id="g63"
                   style="fill:#1a1a1a;stroke-width:0.919672">
                  <path
                     d="m 96.289,91.672 c -0.805,0 -1.555,-0.313 -2.34,-0.938 -0.797,-0.636 -1.637,-1.625 -1.637,-2.886 0,-0.875 0.473,-1.711 1.208,-2.629 l 0.668,-0.84 5.769,4.605 -0.441,0.551 c -1.071,1.344 -1.801,2.137 -3.227,2.137 z m -3.601,-7.606 c -1.047,1.313 -1.84,2.485 -1.84,3.996 0,1.286 0.586,2.75 2.062,3.926 0.977,0.785 2.086,1.207 3.227,1.207 1.402,0 2.531,-0.422 4.281,-2.613 l 1.594,-2.008 -7.891,-6.301 -1.433,1.793"
                     style="fill:#1a1a1a;fill-opacity:1;fill-rule:nonzero;stroke:none;stroke-width:0.919672"
                     transform="scale(1.3333333)"
                     clip-path="url(#clipPath55)"
                     id="path62" />
                  <path
                     d="m 91.75,103.277 c -9.398,3.325 -18.172,3.094 -25.652,1.426 0.246,-3.344 1.625,-6.914 3.742,-7.578 16.48,-5.113 28.484,-20.48 28.484,-38.59 0,-22.277 -18.156,-40.398 -40.472,-40.398 -22.321,0 -40.473,18.121 -40.473,40.398 0,12.391 5.785,24.164 15.531,31.797 -2.316,1.016 -4.289,2.66 -5.715,4.707 -0.742,-0.504 -1.453,-1.023 -2.109,-1.566 l -0.371,0.371 c 0.441,0.531 1.125,1.234 1.945,2.023 -1.199,2.016 -1.89,4.367 -1.89,6.879 0,0.391 0.023,0.774 0.058,1.156 C 10.324,93.336 1.711,76.535 1.711,58.535 1.711,27.582 26.895,2.398 57.852,2.398 c 30.953,0 56.136,25.184 56.136,56.137 0,17.731 -8.105,34.02 -22.238,44.742 z m -32.566,13.25 c -7.758,0 -17.442,-2.636 -24.09,-6.562 -2.02,-1.188 -4.418,-3.399 -4.418,-7.18 0,-1.019 0.199,-1.992 0.551,-2.89 2.484,2.054 5.05,3.976 6.66,4.859 0.371,0.203 0.586,0.301 1.015,0.301 1.032,0 1.871,-0.84 1.871,-1.879 0,-0.793 -0.429,-1.434 -1.14,-1.746 -1.375,-0.602 -4.254,-1.789 -7.356,-3.399 1.434,-1.89 3.692,-3.121 6.235,-3.121 1.164,0 2.285,0.25 3.328,0.742 l 2.125,1.239 c 6.762,4.129 24.152,14.718 45.148,8.902 -7.968,7.191 -17.785,10.734 -29.929,10.734 z m 6.644,4.727 c -2.133,0 -3.883,1.508 -3.883,3.824 0,2.266 1.778,3.828 3.883,3.828 0.324,0 0.629,-0.054 0.926,-0.133 -0.445,3.207 -4.18,6.797 -9,8.411 -4.781,-1.598 -8.516,-5.215 -9.012,-8.407 0.297,0.075 0.602,0.129 0.922,0.129 2.301,0 3.883,-1.613 3.883,-3.828 0,-2.113 -1.66,-3.769 -3.801,-3.816 0.652,-1.196 1.277,-2.461 1.742,-3.824 2.653,0.46 5.266,0.714 7.696,0.714 1.988,0 3.921,-0.109 5.812,-0.3 0.25,1.093 0.621,2.238 1.059,3.421 -0.075,-0.003 -0.149,-0.019 -0.227,-0.019 z M 38.391,90.797 c 3.988,0 7.722,2.047 9.914,5.328 -1.918,-0.488 -3.801,-1.121 -5.637,-1.902 l -0.008,0.011 -0.058,-0.035 c -1.286,-0.605 -2.661,-0.914 -4.09,-0.914 -3.18,0 -5.992,1.563 -7.731,3.945 -0.73,-0.406 -1.461,-0.832 -2.179,-1.277 2.152,-3.109 5.734,-5.156 9.789,-5.156 z m 15.797,7.965 c -0.493,0.367 -0.891,0.804 -1.172,1.289 -1.465,-0.711 -3.305,-1.625 -4.504,-2.301 1.703,0.379 3.926,0.855 5.676,1.012 z M 66.477,98 c -1.165,1.66 -1.856,3.965 -2.063,6.297 -3.668,-0.945 -6.996,-2.215 -9.898,-3.539 0.55,-1.067 2.129,-1.824 3.336,-1.824 2.957,0 5.843,-0.329 8.625,-0.934 z m -8.625,-0.691 c -2.481,0 -4.922,-0.239 -7.313,-0.696 -2.309,-4.527 -7.039,-7.437 -12.148,-7.437 -1.258,0 -2.465,0.183 -3.621,0.5 C 24.945,82.379 19.09,70.77 19.09,58.535 c 0,-21.379 17.387,-38.773 38.762,-38.773 21.371,0 38.761,17.394 38.761,38.773 0,21.379 -17.39,38.774 -38.761,38.774 z m -19.461,17.379 c -6.571,0 -11.911,-5.356 -11.911,-11.942 0,-2.066 0.524,-4.008 1.446,-5.703 0.613,0.555 1.269,1.133 1.949,1.719 -0.578,1.222 -0.91,2.582 -0.91,4.023 0,3.582 1.805,6.543 5.223,8.559 1.964,1.16 4.187,2.203 6.539,3.113 -0.762,0.152 -1.543,0.231 -2.336,0.231 z M 115.699,58.535 C 115.699,26.688 89.75,0.773 57.852,0.773 25.953,0.773 0,26.688 0,58.535 c 0,19.106 9.434,36.918 25.242,47.707 1.555,5.789 6.852,10.07 13.149,10.07 1.703,0 3.351,-0.32 4.921,-0.929 2.118,0.703 4.301,1.277 6.485,1.73 -0.613,1.75 -1.512,3.414 -2.367,4.852 0,0 0.019,0 0.047,-0.008 -0.016,0.012 -0.032,0.02 -0.047,0.031 l 1.203,1.203 c 0.308,-0.168 0.656,-0.273 1.031,-0.273 1.191,0 2.16,0.969 2.16,2.16 0,1.192 -0.969,2.16 -2.16,2.16 -1.039,0 -1.953,-0.668 -2.43,-1.379 0,0 -0.281,0.973 -0.281,2.254 -0.008,4.149 4.52,8.887 10.801,10.887 6.273,-1.953 10.805,-6.727 10.801,-10.883 0,-1.426 -0.282,-2.258 -0.282,-2.258 -0.48,0.582 -1.261,1.379 -2.445,1.379 -1.187,0 -2.156,-0.968 -2.156,-2.16 0,-1.191 0.969,-2.16 2.156,-2.16 0.418,0 0.805,0.125 1.137,0.332 l 1.168,-1.168 c 0.027,0.004 0.047,0.008 0.047,0.008 -0.664,-1.578 -1.145,-3.035 -1.473,-4.43 10.398,-1.402 19.176,-5.801 26.156,-13.14 l -0.008,-0.008 c 14.52,-11.032 22.844,-27.766 22.844,-45.977"
                     style="fill:#1a1a1a;fill-opacity:1;fill-rule:nonzero;stroke:none;stroke-width:0.919672"
                     transform="scale(1.3333333)"
                     clip-path="url(#clipPath56)"
                     id="path63" />
                </g>
              </g>
            </g>
          </g>
        </g>
      </g>
      <g
         id="g114"
         style="fill:#1a1a1a;stroke-width:0.919672">
        <path
           d="m 42.836,52.574 c 0,0.446 0.109,0.531 0.348,0.531 0.433,0 0.875,-0.476 0.875,-1.367 0,-1.082 -0.551,-1.383 -0.977,-1.383 -0.117,0 -0.184,0.016 -0.219,0.036 -0.023,0.007 -0.027,0.125 -0.027,0.25 z m 0.246,-2.472 c 0.617,0 1.129,0.121 1.469,0.449 0.234,0.226 0.429,0.597 0.429,1.031 0,1.254 -0.949,1.789 -2.109,1.789 H 41.57 v -0.195 c 0.368,-0.031 0.407,-0.067 0.407,-0.61 v -1.66 c 0,-0.543 -0.039,-0.578 -0.364,-0.605 v -0.199 h 1.469"
           style="fill:#1a1a1a;fill-opacity:1;fill-rule:nonzero;stroke:none;stroke-width:0.919672"
           transform="scale(1.3333333)"
           clip-path="url(#clipPath69)"
           id="path92" />
        <path
           d="m 46.355,51.609 c 0,0.914 0.34,1.579 0.836,1.579 0.434,0 0.668,-0.418 0.668,-1.329 0,-1.011 -0.363,-1.57 -0.797,-1.57 -0.386,0 -0.707,0.441 -0.707,1.32 z m 2.438,0.09 c 0,1.074 -0.734,1.75 -1.699,1.75 -1.016,0 -1.672,-0.742 -1.672,-1.668 0,-0.812 0.543,-1.754 1.742,-1.754 0.922,0 1.629,0.676 1.629,1.672"
           style="fill:#1a1a1a;fill-opacity:1;fill-rule:nonzero;stroke:none;stroke-width:0.919672"
           transform="scale(1.3333333)"
           clip-path="url(#clipPath70)"
           id="path93" />
        <path
           d="m 53.238,50.102 v 0.199 c -0.383,0.031 -0.402,0.054 -0.39,0.582 l 0.05,1.683 c 0.016,0.559 0.028,0.575 0.387,0.61 v 0.195 h -1.57 v -0.195 c 0.375,-0.035 0.39,-0.051 0.387,-0.61 l -0.016,-1.769 h -0.024 l -0.968,2.519 H 50.82 l -0.918,-2.343 h -0.011 l -0.036,1.117 c -0.015,0.433 -0.007,0.672 0.012,0.828 0.02,0.187 0.129,0.234 0.457,0.258 v 0.195 h -1.242 v -0.195 c 0.242,-0.02 0.336,-0.071 0.367,-0.258 0.024,-0.156 0.055,-0.422 0.078,-0.879 l 0.059,-1.016 c 0.031,-0.632 -0.008,-0.691 -0.402,-0.722 v -0.199 h 1.179 l 0.883,1.992 0.77,-1.992 h 1.222"
           style="fill:#1a1a1a;fill-opacity:1;fill-rule:nonzero;stroke:none;stroke-width:0.919672"
           transform="scale(1.3333333)"
           clip-path="url(#clipPath71)"
           id="path94" />
        <path
           d="m 54.871,52.566 c 0,0.543 0.039,0.579 0.387,0.61 v 0.195 h -1.629 v -0.195 c 0.348,-0.031 0.387,-0.067 0.387,-0.61 v -1.66 c 0,-0.543 -0.039,-0.578 -0.387,-0.605 v -0.199 h 1.629 v 0.199 c -0.348,0.027 -0.387,0.062 -0.387,0.605 v 1.66"
           style="fill:#1a1a1a;fill-opacity:1;fill-rule:nonzero;stroke:none;stroke-width:0.919672"
           transform="scale(1.3333333)"
           clip-path="url(#clipPath72)"
           id="path95" />
        <path
           d="M 46.77,59.445 H 46.336 L 44.477,57.07 h -0.012 v 0.922 c 0,0.531 0.019,0.805 0.043,0.965 0.023,0.176 0.16,0.238 0.492,0.258 v 0.195 h -1.254 v -0.195 c 0.223,-0.012 0.352,-0.082 0.379,-0.258 0.02,-0.16 0.039,-0.434 0.039,-0.965 V 57.07 c 0,-0.375 -0.012,-0.441 -0.109,-0.582 -0.078,-0.105 -0.203,-0.136 -0.383,-0.152 v -0.199 h 1.109 l 1.676,2.09 h 0.012 v -0.676 c 0,-0.528 -0.02,-0.805 -0.039,-0.961 -0.028,-0.172 -0.164,-0.238 -0.496,-0.254 v -0.199 h 1.285 v 0.199 c -0.254,0.008 -0.383,0.082 -0.41,0.254 -0.02,0.156 -0.039,0.433 -0.039,0.961 v 1.894"
           style="fill:#1a1a1a;fill-opacity:1;fill-rule:nonzero;stroke:none;stroke-width:0.919672"
           transform="scale(1.3333333)"
           clip-path="url(#clipPath73)"
           id="path96" />
        <path
           d="m 48.809,59.445 c -0.348,-0.906 -0.821,-2.148 -1.004,-2.621 -0.164,-0.433 -0.266,-0.457 -0.508,-0.488 v -0.199 h 1.625 v 0.199 l -0.172,0.019 c -0.184,0.02 -0.184,0.067 -0.129,0.243 0.09,0.281 0.488,1.273 0.676,1.765 0.152,-0.429 0.476,-1.39 0.555,-1.625 0.109,-0.308 0.078,-0.363 -0.149,-0.386 l -0.152,-0.016 v -0.199 h 1.219 v 0.199 c -0.29,0.035 -0.36,0.059 -0.555,0.516 -0.031,0.07 -0.645,1.566 -1.02,2.593 h -0.386"
           style="fill:#1a1a1a;fill-opacity:1;fill-rule:nonzero;stroke:none;stroke-width:0.919672"
           transform="scale(1.3333333)"
           clip-path="url(#clipPath74)"
           id="path97" />
        <path
           d="m 51.074,58.371 c 0.106,0.293 0.403,0.852 0.899,0.852 0.261,0 0.461,-0.172 0.461,-0.5 0,-0.293 -0.196,-0.461 -0.504,-0.602 l -0.075,-0.035 c -0.414,-0.191 -0.878,-0.453 -0.878,-0.992 0,-0.567 0.41,-1.032 1.203,-1.032 0.152,0 0.312,0.02 0.461,0.063 0.117,0.027 0.195,0.047 0.261,0.07 0.02,0.196 0.055,0.442 0.11,0.785 l -0.223,0.032 c -0.109,-0.328 -0.285,-0.688 -0.684,-0.688 -0.253,0 -0.437,0.196 -0.437,0.438 0,0.25 0.195,0.398 0.52,0.543 l 0.113,0.05 c 0.461,0.211 0.855,0.469 0.855,1.055 0,0.621 -0.496,1.074 -1.273,1.074 -0.203,0 -0.41,-0.039 -0.547,-0.086 -0.148,-0.05 -0.254,-0.089 -0.316,-0.121 -0.04,-0.23 -0.106,-0.504 -0.165,-0.839 l 0.219,-0.067"
           style="fill:#1a1a1a;fill-opacity:1;fill-rule:nonzero;stroke:none;stroke-width:0.919672"
           transform="scale(1.3333333)"
           clip-path="url(#clipPath75)"
           id="path98" />
        <path
           d="m 44.531,64.641 c 0,0.543 0.043,0.578 0.387,0.609 v 0.195 H 43.289 V 65.25 c 0.348,-0.031 0.387,-0.066 0.387,-0.609 V 62.98 c 0,-0.542 -0.039,-0.578 -0.387,-0.609 v -0.195 h 1.629 v 0.195 c -0.344,0.031 -0.387,0.067 -0.387,0.609 v 1.661"
           style="fill:#1a1a1a;fill-opacity:1;fill-rule:nonzero;stroke:none;stroke-width:0.919672"
           transform="scale(1.3333333)"
           clip-path="url(#clipPath76)"
           id="path99" />
        <path
           d="m 46.523,64.703 c 0,0.262 0.012,0.391 0.102,0.434 0.082,0.043 0.195,0.047 0.352,0.047 0.16,0 0.378,-0.016 0.484,-0.149 0.078,-0.094 0.164,-0.23 0.246,-0.496 l 0.215,0.035 c -0.027,0.192 -0.133,0.715 -0.18,0.871 H 45.246 V 65.25 c 0.383,-0.031 0.422,-0.066 0.422,-0.609 V 62.98 c 0,-0.542 -0.039,-0.578 -0.375,-0.609 v -0.195 h 1.633 v 0.195 c -0.36,0.031 -0.403,0.067 -0.403,0.609 v 1.723"
           style="fill:#1a1a1a;fill-opacity:1;fill-rule:nonzero;stroke:none;stroke-width:0.919672"
           transform="scale(1.3333333)"
           clip-path="url(#clipPath77)"
           id="path100" />
        <path
           d="m 49.332,64.703 c 0,0.262 0.012,0.391 0.102,0.434 0.078,0.043 0.195,0.047 0.351,0.047 0.16,0 0.375,-0.016 0.481,-0.149 0.082,-0.094 0.168,-0.23 0.246,-0.496 l 0.218,0.035 c -0.031,0.192 -0.136,0.715 -0.179,0.871 H 48.055 V 65.25 c 0.379,-0.031 0.422,-0.066 0.422,-0.609 V 62.98 c 0,-0.542 -0.043,-0.578 -0.379,-0.609 v -0.195 h 1.636 v 0.195 c -0.363,0.031 -0.402,0.067 -0.402,0.609 v 1.723"
           style="fill:#1a1a1a;fill-opacity:1;fill-rule:nonzero;stroke:none;stroke-width:0.919672"
           transform="scale(1.3333333)"
           clip-path="url(#clipPath78)"
           id="path101" />
        <path
           d="m 51.734,65.48 c -0.347,-0.906 -0.82,-2.148 -1,-2.621 -0.168,-0.433 -0.265,-0.457 -0.507,-0.488 v -0.195 h 1.625 v 0.195 l -0.172,0.02 c -0.188,0.019 -0.188,0.066 -0.129,0.242 0.09,0.281 0.484,1.273 0.672,1.765 0.156,-0.425 0.476,-1.39 0.558,-1.625 0.106,-0.308 0.074,-0.363 -0.152,-0.386 L 52.48,62.371 v -0.195 h 1.215 v 0.195 c -0.285,0.035 -0.355,0.059 -0.55,0.52 -0.032,0.07 -0.645,1.562 -1.024,2.589 h -0.387"
           style="fill:#1a1a1a;fill-opacity:1;fill-rule:nonzero;stroke:none;stroke-width:0.919672"
           transform="scale(1.3333333)"
           clip-path="url(#clipPath79)"
           id="path102" />
        <path
           d="m 64.844,50.102 v 0.199 c -0.383,0.035 -0.403,0.054 -0.387,0.582 l 0.051,1.687 c 0.015,0.555 0.023,0.571 0.387,0.606 v 0.195 H 63.32 v -0.195 c 0.375,-0.035 0.391,-0.051 0.387,-0.606 l -0.016,-1.773 h -0.019 l -0.973,2.519 H 62.43 L 61.508,50.973 H 61.5 l -0.035,1.117 c -0.02,0.433 -0.012,0.672 0.008,0.828 0.019,0.187 0.132,0.234 0.457,0.258 v 0.195 h -1.242 v -0.195 c 0.242,-0.02 0.335,-0.071 0.367,-0.258 0.027,-0.156 0.054,-0.422 0.082,-0.879 l 0.054,-1.016 c 0.036,-0.632 -0.003,-0.687 -0.402,-0.722 v -0.199 h 1.184 l 0.879,1.992 0.769,-1.992 h 1.223"
           style="fill:#1a1a1a;fill-opacity:1;fill-rule:nonzero;stroke:none;stroke-width:0.919672"
           transform="scale(1.3333333)"
           clip-path="url(#clipPath80)"
           id="path103" />
        <path
           d="m 66.477,52.57 c 0,0.539 0.043,0.575 0.386,0.606 v 0.195 h -1.629 v -0.195 c 0.348,-0.031 0.387,-0.067 0.387,-0.606 v -1.664 c 0,-0.543 -0.039,-0.578 -0.387,-0.605 v -0.199 h 1.629 v 0.199 c -0.343,0.027 -0.386,0.062 -0.386,0.605 v 1.664"
           style="fill:#1a1a1a;fill-opacity:1;fill-rule:nonzero;stroke:none;stroke-width:0.919672"
           transform="scale(1.3333333)"
           clip-path="url(#clipPath81)"
           id="path104" />
        <path
           d="m 70.219,53.41 h -0.43 l -1.863,-2.375 h -0.008 v 0.926 c 0,0.527 0.02,0.801 0.039,0.957 0.023,0.18 0.16,0.242 0.492,0.258 v 0.195 h -1.25 v -0.195 c 0.219,-0.012 0.352,-0.078 0.375,-0.258 0.02,-0.156 0.039,-0.43 0.039,-0.957 v -0.926 c 0,-0.375 -0.008,-0.441 -0.109,-0.582 -0.078,-0.101 -0.199,-0.141 -0.383,-0.152 v -0.199 h 1.113 l 1.676,2.089 h 0.008 v -0.675 c 0,-0.528 -0.02,-0.805 -0.039,-0.961 -0.027,-0.176 -0.16,-0.243 -0.492,-0.254 v -0.199 h 1.281 v 0.199 c -0.25,0.008 -0.383,0.078 -0.406,0.254 -0.024,0.156 -0.043,0.433 -0.043,0.961 v 1.894"
           style="fill:#1a1a1a;fill-opacity:1;fill-rule:nonzero;stroke:none;stroke-width:0.919672"
           transform="scale(1.3333333)"
           clip-path="url(#clipPath82)"
           id="path105" />
        <path
           d="m 71.684,52.086 h 0.644 l -0.316,-0.961 h -0.016 z m 0.64,1.09 0.153,-0.02 c 0.183,-0.023 0.191,-0.074 0.128,-0.258 l -0.179,-0.511 h -0.828 l -0.149,0.484 c -0.066,0.215 -0.066,0.266 0.164,0.289 l 0.145,0.016 v 0.195 h -1.172 v -0.195 c 0.258,-0.035 0.332,-0.055 0.5,-0.477 l 1.004,-2.601 0.348,-0.071 0.343,0.95 c 0.215,0.601 0.434,1.195 0.621,1.707 0.164,0.437 0.254,0.461 0.5,0.492 v 0.195 h -1.578 v -0.195"
           style="fill:#1a1a1a;fill-opacity:1;fill-rule:nonzero;stroke:none;stroke-width:0.919672"
           transform="scale(1.3333333)"
           clip-path="url(#clipPath83)"
           id="path106" />
        <path
           d="m 64.805,58.605 c 0,0.54 0.039,0.579 0.461,0.61 v 0.195 h -1.758 v -0.195 c 0.402,-0.031 0.441,-0.07 0.441,-0.61 v -2.207 h -0.086 c -0.336,0 -0.472,0.063 -0.554,0.153 -0.059,0.078 -0.121,0.207 -0.188,0.488 H 62.91 c 0.024,-0.422 0.051,-0.769 0.063,-1.023 h 0.156 c 0.074,0.113 0.125,0.121 0.262,0.121 h 2.007 c 0.129,0 0.157,-0.028 0.235,-0.121 h 0.156 c 0.008,0.211 0.031,0.636 0.055,1.007 l -0.223,0.016 C 65.547,56.738 65.492,56.605 65.418,56.523 65.332,56.43 65.164,56.398 64.926,56.398 h -0.121 v 2.207"
           style="fill:#1a1a1a;fill-opacity:1;fill-rule:nonzero;stroke:none;stroke-width:0.919672"
           transform="scale(1.3333333)"
           clip-path="url(#clipPath84)"
           id="path107" />
        <path
           d="m 67.438,58.605 c 0,0.54 0.039,0.579 0.386,0.61 v 0.195 h -1.629 v -0.195 c 0.348,-0.031 0.387,-0.07 0.387,-0.61 v -1.66 c 0,-0.547 -0.039,-0.578 -0.387,-0.609 v -0.199 h 1.629 v 0.199 c -0.347,0.031 -0.386,0.062 -0.386,0.609 v 1.66"
           style="fill:#1a1a1a;fill-opacity:1;fill-rule:nonzero;stroke:none;stroke-width:0.919672"
           transform="scale(1.3333333)"
           clip-path="url(#clipPath85)"
           id="path108" />
        <path
           d="m 69.18,57.648 c 0,0.911 0.343,1.575 0.836,1.575 0.433,0 0.668,-0.418 0.668,-1.328 0,-1.012 -0.364,-1.571 -0.793,-1.571 -0.387,0 -0.711,0.446 -0.711,1.324 z m 2.441,0.086 c 0,1.078 -0.734,1.75 -1.699,1.75 -1.02,0 -1.676,-0.738 -1.676,-1.664 0,-0.816 0.543,-1.758 1.742,-1.758 0.922,0 1.633,0.676 1.633,1.672"
           style="fill:#1a1a1a;fill-opacity:1;fill-rule:nonzero;stroke:none;stroke-width:0.919672"
           transform="scale(1.3333333)"
           clip-path="url(#clipPath86)"
           id="path109" />
        <path
           d="m 66.289,62.176 v 0.195 c -0.383,0.035 -0.402,0.055 -0.391,0.582 l 0.055,1.688 c 0.012,0.558 0.024,0.574 0.387,0.609 v 0.195 H 64.766 V 65.25 c 0.375,-0.035 0.39,-0.051 0.386,-0.609 l -0.015,-1.77 h -0.02 l -0.972,2.52 h -0.27 l -0.922,-2.344 h -0.012 l -0.035,1.117 c -0.011,0.43 -0.008,0.672 0.012,0.828 0.02,0.188 0.129,0.231 0.457,0.258 v 0.195 H 62.133 V 65.25 c 0.242,-0.023 0.336,-0.07 0.367,-0.258 0.023,-0.156 0.055,-0.422 0.082,-0.879 l 0.055,-1.015 c 0.035,-0.637 -0.004,-0.692 -0.403,-0.727 v -0.195 h 1.18 l 0.883,1.992 0.769,-1.992 h 1.223"
           style="fill:#1a1a1a;fill-opacity:1;fill-rule:nonzero;stroke:none;stroke-width:0.919672"
           transform="scale(1.3333333)"
           clip-path="url(#clipPath87)"
           id="path110" />
        <path
           d="m 67.066,62.98 c 0,-0.542 -0.039,-0.578 -0.375,-0.609 v -0.195 h 2.383 c 0.004,0.086 0.031,0.453 0.055,0.828 L 68.91,63.02 c -0.051,-0.247 -0.109,-0.387 -0.187,-0.469 -0.078,-0.082 -0.246,-0.113 -0.516,-0.113 h -0.082 c -0.191,0 -0.203,0 -0.203,0.175 v 0.973 h 0.254 c 0.429,0 0.445,-0.031 0.496,-0.414 h 0.223 v 1.187 h -0.223 c -0.051,-0.441 -0.067,-0.472 -0.496,-0.472 h -0.254 v 0.82 c 0,0.262 0.012,0.387 0.101,0.43 0.082,0.043 0.196,0.047 0.352,0.047 0.199,0 0.422,-0.032 0.535,-0.153 0.082,-0.09 0.168,-0.273 0.246,-0.519 l 0.219,0.039 c -0.023,0.246 -0.129,0.758 -0.176,0.894 H 66.641 V 65.25 c 0.386,-0.031 0.425,-0.066 0.425,-0.609 V 62.98"
           style="fill:#1a1a1a;fill-opacity:1;fill-rule:nonzero;stroke:none;stroke-width:0.919672"
           transform="scale(1.3333333)"
           clip-path="url(#clipPath88)"
           id="path111" />
        <path
           d="m 70.504,64.156 h 0.644 l -0.316,-0.961 h -0.02 z m 0.637,1.094 0.152,-0.023 c 0.187,-0.024 0.195,-0.075 0.129,-0.254 l -0.18,-0.516 h -0.824 l -0.152,0.484 c -0.067,0.219 -0.067,0.27 0.168,0.293 l 0.144,0.016 v 0.195 H 69.406 V 65.25 c 0.254,-0.035 0.332,-0.059 0.496,-0.48 l 1.008,-2.598 0.348,-0.074 0.344,0.953 c 0.214,0.597 0.429,1.191 0.621,1.707 0.16,0.433 0.254,0.461 0.5,0.492 v 0.195 H 71.141 V 65.25"
           style="fill:#1a1a1a;fill-opacity:1;fill-rule:nonzero;stroke:none;stroke-width:0.919672"
           transform="scale(1.3333333)"
           clip-path="url(#clipPath89)"
           id="path112" />
        <path
           d="M 75.703,68.578 H 63.039 c -1.871,0 -3.336,0.422 -4.355,1.215 0,-4.531 -0.004,-16.344 -0.004,-17.762 0,-1.351 0.328,-3.297 1.882,-4.211 0.758,-0.445 1.879,-0.652 3.532,-0.652 h 11.609 z m -23.051,0 H 40.129 v -21.41 h 11.469 c 1.652,0 2.777,0.207 3.531,0.652 1.555,0.914 1.883,2.719 1.883,4.071 0,0 0.004,13.148 0.004,17.941 -1.032,-0.809 -2.5,-1.254 -4.364,-1.254 z M 64.094,45.645 c -1.989,0 -3.336,0.269 -4.375,0.878 -0.801,0.473 -1.422,1.129 -1.871,1.938 -0.453,-0.809 -1.075,-1.465 -1.875,-1.938 -1.035,-0.609 -2.387,-0.878 -4.375,-0.878 H 38.461 v 24.46 h 14.191 c 2.782,0 4.25,1.024 4.368,3.043 h 1.664 c 0.113,-1.988 1.457,-3.043 4.355,-3.043 H 77.371 V 45.645 H 64.094"
           style="fill:#1a1a1a;fill-opacity:1;fill-rule:nonzero;stroke:none;stroke-width:0.919672"
           transform="scale(1.3333333)"
           clip-path="url(#clipPath90)"
           id="path113" />
        <path
           d="M 79.422,47.398 V 72.871 H 60.996 l -0.211,0.524 c -0.32,0.793 -0.894,1.527 -2.91,1.527 -2.012,0 -2.586,-0.734 -2.91,-1.527 l -0.211,-0.524 c 0,0 -16.902,0 -18.418,0 0,-1.559 0,-25.473 0,-25.473 h -1.668 v 0.778 L 33.07,47.684 c -0.183,-0.629 -0.761,-1.09 -1.449,-1.09 -0.836,0 -1.516,0.679 -1.516,1.519 0,0.836 0.68,1.516 1.516,1.516 0.367,0 0.699,-0.137 0.961,-0.352 l 2.086,0.641 v 2.051 l -1.566,-0.281 c -0.235,-0.543 -0.77,-0.922 -1.399,-0.922 -0.836,0 -1.515,0.679 -1.515,1.515 0,0.84 0.679,1.52 1.515,1.52 0.434,0 0.824,-0.184 1.098,-0.477 l 1.867,0.336 v 2.086 l -1.641,-0.07 c -0.261,-0.442 -0.742,-0.742 -1.297,-0.742 -0.835,0 -1.515,0.679 -1.515,1.519 0,0.836 0.68,1.516 1.515,1.516 0.508,0 0.954,-0.25 1.227,-0.629 l 1.711,0.074 v 2.27 l -1.676,0.058 c -0.273,-0.383 -0.722,-0.637 -1.23,-0.637 -0.836,0 -1.52,0.68 -1.52,1.516 0,0.84 0.684,1.52 1.52,1.52 0.547,0 1.023,-0.297 1.289,-0.731 l 1.617,-0.058 v 2.089 l -1.832,0.317 c -0.277,-0.297 -0.668,-0.485 -1.106,-0.485 -0.835,0 -1.515,0.68 -1.515,1.52 0,0.836 0.68,1.516 1.515,1.516 0.625,0 1.161,-0.375 1.391,-0.911 l 1.547,-0.265 v 2.051 l -2.004,0.613 c -0.262,-0.219 -0.594,-0.352 -0.961,-0.352 -0.836,0 -1.515,0.68 -1.515,1.516 0,0.84 0.679,1.519 1.515,1.519 0.692,0 1.266,-0.46 1.449,-1.089 l 1.516,-0.465 v 1.984 l -2.215,0.957 c -0.238,-0.16 -0.523,-0.254 -0.832,-0.254 -0.836,0 -1.516,0.68 -1.516,1.52 0,0.836 0.68,1.515 1.516,1.515 0.746,0 1.363,-0.539 1.492,-1.25 l 1.555,-0.671 v 1.812 c 0,0 18.18,0 19.062,0 0.774,1.352 2.114,2.051 4.145,2.051 2.035,0 3.375,-0.699 4.148,-2.051 0.883,0 19.063,0 19.063,0 V 47.398 h -1.664"
           style="fill:#1a1a1a;fill-opacity:1;fill-rule:nonzero;stroke:none;stroke-width:0.919672"
           transform="scale(1.3333333)"
           clip-path="url(#clipPath91)"
           id="path114" />
      </g>
      <path
         id="path115"
         d="m 54.961,137.75 c -5.168,-2.59 -8.707,-7.422 -7.871,-10.75 0.187,-0.746 0.219,-0.758 0.906,-0.309 2.332,1.528 5.059,-0.886 3.309,-2.925 -0.551,-0.641 -0.95,-0.821 -1.754,-0.789 -0.66,0.023 -1.215,-0.153 -1.512,-0.481 -0.437,-0.484 -0.387,-0.695 0.676,-2.851 0.633,-1.282 1.086,-2.434 1.008,-2.563 -0.078,-0.125 -0.383,-0.23 -0.68,-0.23 -0.297,0 -1.68,-0.329 -3.07,-0.735 -2.477,-0.715 -2.575,-0.722 -4.524,-0.262 -6.433,1.512 -13.051,-1.89 -15.531,-7.992 -0.551,-1.351 -1.016,-1.867 -3.27,-3.617 C 17.141,99.973 13.27,95.801 9.48,90.055 0.836,76.957 -2.023,60.258 1.738,44.848 7.445,21.449 27.184,4.074 51.234,1.27 c 27.789,-3.243 54.039,14.058 62.004,40.871 2.012,6.777 2.84,15.812 2.071,22.586 -1.649,14.527 -8.7,28.101 -19.243,37.046 -1.472,1.247 -3.832,3.336 -5.242,4.641 -5.84,5.398 -13.054,9.039 -21.097,10.656 -1.493,0.301 -2.797,0.625 -2.895,0.723 -0.098,0.098 0.148,1.113 0.547,2.254 0.664,1.914 0.683,2.109 0.238,2.508 -0.262,0.238 -0.969,0.418 -1.57,0.398 -0.688,-0.019 -1.313,0.168 -1.695,0.512 -0.79,0.719 -0.797,2.32 -0.012,3.105 0.699,0.7 2.285,0.782 3.109,0.157 0.891,-0.672 1.012,-0.555 1.012,0.984 0,3.863 -3.149,7.844 -8.043,10.16 -2.59,1.223 -2.773,1.219 -5.457,-0.121 z m 5.285,-1.645 c 2.606,-1.367 4.492,-3.039 5.582,-4.937 1.168,-2.035 1.129,-2.379 -0.273,-2.43 -2.071,-0.078 -3.571,-1.707 -3.571,-3.883 0,-1.367 1.153,-2.789 2.668,-3.293 l 1.332,-0.445 -0.453,-1.558 -0.457,-1.559 -5.742,-0.094 c -3.156,-0.047 -6.211,-0.187 -6.785,-0.304 l -1.043,-0.219 -0.797,1.847 c -0.437,1.012 -0.762,1.875 -0.723,1.911 0.039,0.035 0.567,0.269 1.172,0.523 2.09,0.863 2.899,3.461 1.692,5.438 -0.664,1.089 -2.368,1.945 -3.453,1.738 -0.637,-0.121 -0.688,-0.055 -0.524,0.637 0.309,1.296 2.176,3.765 3.789,5.007 1.528,1.18 4.41,2.68 5.156,2.684 0.223,0.004 1.313,-0.477 2.43,-1.063 z m 5.918,-19.988 c 7.863,-1.039 14.285,-3.59 20.188,-8.019 2.043,-1.536 2.687,-2.141 2.273,-2.141 -0.105,0 -1.539,0.289 -3.184,0.645 -4.023,0.867 -13.078,0.941 -17.125,0.144 -8.199,-1.617 -14.793,-4.25 -23.441,-9.359 -3.945,-2.336 -5.742,-2.867 -7.871,-2.336 -1.57,0.39 -3.469,1.422 -4.293,2.332 l -0.559,0.621 4.024,1.91 c 4.457,2.117 5.097,2.742 4.211,4.094 -1.043,1.594 -2.082,1.25 -6.696,-2.227 -2.773,-2.09 -2.914,-2.043 -2.918,1.012 -0.007,3.781 1.825,6.047 6.926,8.57 4.731,2.336 11.985,4.442 17.219,4.992 2.644,0.278 8.234,0.161 11.246,-0.238 z M 40.02,114.613 c 0.3,-0.117 -0.782,-0.793 -3.11,-1.941 -5.453,-2.688 -7.441,-5.02 -7.793,-9.137 -0.109,-1.246 -0.012,-2.328 0.293,-3.308 0.418,-1.348 0.414,-1.504 -0.047,-2.016 -1.086,-1.199 -1.523,-1.207 -2.011,-0.031 -2.778,6.648 1.226,14.488 8.273,16.203 1.633,0.394 3.68,0.504 4.395,0.23 z m 41.617,-8.976 c 4.031,-0.449 9.328,-1.84 10.797,-2.84 1.976,-1.34 8.511,-7.992 10.457,-10.645 5.449,-7.425 8.761,-15.211 10.359,-24.332 0.859,-4.906 0.934,-13.132 0.16,-17.656 -0.695,-4.074 -1.82,-8.387 -2.965,-11.352 C 104.871,24.387 93.836,12.855 79.906,6.91 60.445,-1.398 38.18,1.867 21.953,15.402 -3.109,36.312 -5.219,73.75 17.34,97.344 c 1.461,1.531 3.722,3.636 5.023,4.676 l 2.367,1.894 0.18,-2.144 c 0.106,-1.254 0.5,-2.942 0.949,-4.055 l 0.77,-1.906 -0.93,-0.957 c -1.168,-1.207 -0.89,-1.575 0.426,-0.567 l 0.992,0.758 1.457,-1.508 c 0.801,-0.828 2.074,-1.887 2.824,-2.351 l 1.368,-0.848 -3.309,-3.309 C 23.59,81.16 19.969,74.543 18.219,66.492 17.457,63 17.438,54.133 18.184,50.691 c 1.148,-5.32 3.195,-10.207 6.152,-14.675 1.976,-2.993 7.672,-8.746 10.559,-10.672 6.66,-4.442 13.445,-6.699 21.199,-7.043 6.957,-0.313 12.98,0.933 19.289,3.992 4.547,2.203 7.957,4.668 11.457,8.273 5.433,5.602 8.965,12.239 10.68,20.094 0.753,3.445 0.753,12.32 0,15.766 -2.665,12.183 -10.336,22.32 -21.079,27.84 -1.714,0.882 -4.027,1.918 -5.14,2.3 -1.164,0.407 -2.379,1.067 -2.871,1.567 -0.942,0.957 -1.957,3.398 -2.223,5.332 l -0.172,1.258 1.688,0.347 c 4.183,0.871 9.328,1.078 13.914,0.567 z m -16.938,-2.699 c 0.078,-0.688 0.485,-2.094 0.899,-3.122 0.757,-1.867 0.757,-1.867 0.117,-1.691 -0.352,0.094 -2.231,0.316 -4.172,0.492 -1.945,0.176 -3.953,0.379 -4.461,0.449 -0.918,0.129 -2.461,1.118 -2.461,1.575 0,0.445 8.238,3.531 9.461,3.543 0.344,0.004 0.516,-0.344 0.617,-1.246 z M 53.594,99.477 c 0.293,-0.329 0.48,-0.633 0.414,-0.684 -0.211,-0.156 -5.125,-1.023 -5.231,-0.922 -0.105,0.094 3.77,2.152 4.106,2.18 0.097,0.008 0.414,-0.25 0.711,-0.574 z m 8.398,-2.368 c 17.11,-2.105 30.332,-14.195 33.899,-30.988 0.902,-4.246 0.902,-10.91 0,-15.156 C 92.539,35.176 80.852,23.621 64.93,20.359 61.852,19.73 54.598,19.656 51.383,20.227 37.156,22.746 25.418,32.93 20.961,46.617 c -1.406,4.317 -1.77,6.723 -1.777,11.778 -0.012,6.742 1.089,11.535 3.988,17.375 2.332,4.695 5.945,9.347 9.531,12.261 l 2.039,1.66 1.852,-0.304 c 3.926,-0.641 8.699,1.027 11.422,3.992 0.8,0.867 1.785,2.004 2.187,2.523 0.668,0.856 0.942,0.969 2.945,1.192 3.219,0.359 6.016,0.363 8.844,0.015 z M 32.156,95.918 c 1.633,-1.504 3.36,-2.281 5.59,-2.516 1.566,-0.164 2.149,-0.035 6.066,1.313 2.383,0.82 4.333,1.359 4.333,1.195 0,-0.594 -2.872,-3.078 -4.442,-3.844 -4.621,-2.261 -9.894,-1.445 -13.57,2.102 -0.785,0.754 -1.426,1.496 -1.426,1.648 0,0.278 1.398,1.227 1.879,1.278 0.144,0.015 0.852,-0.516 1.57,-1.176 z"
         style="fill:#1a1a1a;fill-opacity:1;fill-rule:nonzero;stroke:none;stroke-width:0.919672"
         transform="scale(1.3333333)" />
    </g>
  </g>
</svg>
