<?xml version="1.0" standalone="no" ?>
<!DOCTYPE svg PUBLIC "-//W3C//DTD SVG 1.1//EN" "http://www.w3.org/Graphics/SVG/1.1/DTD/svg11.dtd">
<svg width="551px" height="450px" viewBox="0 0 551 450" style="background-color: #ffffff00" xmlns="http://www.w3.org/2000/svg" xmlns:xlink="http://www.w3.org/1999/xlink" version="1.1" >
<text x="0" y="0" stroke="none" fill="#000000" transform="matrix(0.1 0 0 0.1 233.463 330.147)" font-style="normal" font-weight="normal" font-size="200px" font-family="EB Garamond" >
N</text>
<text x="0" y="0" stroke="none" fill="#000000" transform="matrix(0.1 0 0 0.1 235.955 432.712)" font-style="normal" font-weight="normal" font-size="200px" font-family="EB Garamond" >
O</text>
<text x="0" y="0" stroke="none" fill="#000000" transform="matrix(0.1 0 0 0.1 415.454 339.86)" font-style="normal" font-weight="normal" font-size="200px" font-family="EB Garamond" >
O</text>
<text x="0" y="0" stroke="none" fill="#000000" transform="matrix(0.1 0 0 0.1 362.563 164.576)" font-style="normal" font-weight="normal" font-size="200px" font-family="EB Garamond" >
(J)</text>
<text x="0" y="0" stroke="none" fill="#000000" transform="matrix(0.1 0 0 0.1 393.123 275.351)" font-style="normal" font-weight="normal" font-size="200px" font-family="EB Garamond" >
(I)</text>
<text x="0" y="0" stroke="none" fill="#000000" transform="matrix(0.1 0 0 0.1 285.726 226.826)" font-style="normal" font-weight="normal" font-size="200px" font-family="EB Garamond" >
(M)</text>
<text x="0" y="0" stroke="none" fill="#000000" transform="matrix(0.1 0 0 0.1 195.928 281.621)" font-style="normal" font-weight="normal" font-size="200px" font-family="EB Garamond" >
(E)</text>
<text x="0" y="0" stroke="none" fill="#000000" transform="matrix(0.1 0 0 0.1 256.285 101.165)" font-style="normal" font-weight="normal" font-size="200px" font-family="EB Garamond" >
N</text>
<path stroke="none" fill="#000000" transform="matrix(0.1 0 0 0.1 -248.57 -85)" d="M 3280.44,3310.89 L 3290.17,3305.31 L 3299.91,3310.93 L 3299.91,3899.5 L 3290.17,3905.12 L 3280.44,3899.53 L 3280.44,3310.89 Z " />
<path stroke="none" fill="#000000" transform="matrix(0.1 0 0 0.1 -248.57 -85)" d="M 3290.15,3916.34 L 3290.17,3905.12 L 3299.91,3899.5 L 3809.63,4193.78 L 3809.63,4205.02 L 3799.94,4210.67 L 3290.15,3916.34 Z " />
<path stroke="none" fill="#000000" transform="matrix(0.1 0 0 0.1 -248.57 -85)" d="M 3357.19,3872.15 L 3367.11,3854.97 L 3814.59,4113.32 L 3804.67,4130.5 L 3357.19,3872.15 Z " />
<path stroke="none" fill="#000000" transform="matrix(0.1 0 0 0.1 -248.57 -85)" d="M 3819.31,4210.67 L 3809.63,4205.02 L 3809.63,4193.78 L 4319.34,3899.5 L 4329.08,3905.12 L 4330.25,3915.73 L 3819.31,4210.67 Z " />
<path stroke="none" fill="#000000" transform="matrix(0.1 0 0 0.1 -248.57 -85)" d="M 4338.77,3898.15 L 4329.08,3905.12 L 4319.34,3899.5 L 4319.34,3310.93 L 4339.19,3299.47 L 4338.77,3898.15 Z " />
<path stroke="none" fill="#000000" transform="matrix(0.1 0 0 0.1 -248.57 -85)" d="M 4267.02,3863.56 L 4247.18,3863.56 L 4247.18,3346.86 L 4267.02,3346.86 L 4267.02,3863.56 Z " />
<path stroke="none" fill="#000000" transform="matrix(0.1 0 0 0.1 -248.57 -85)" d="M 4339.19,3299.47 L 4319.34,3310.93 L 3809.63,3016.64 L 3809.63,3005.4 L 3819.31,2999.74 L 4339.19,3299.47 Z " />
<path stroke="none" fill="#000000" transform="matrix(0.1 0 0 0.1 -248.57 -85)" d="M 3299.91,3310.93 L 3290.17,3305.31 L 3290.15,3294.08 L 3799.95,2999.74 L 3809.63,3005.4 L 3809.63,3016.64 L 3299.91,3310.93 Z " />
<path stroke="none" fill="#000000" transform="matrix(0.1 0 0 0.1 -248.57 -85)" d="M 3367.11,3355.45 L 3357.19,3338.27 L 3804.67,3079.92 L 3814.59,3097.1 L 3367.11,3355.45 Z " />
<path stroke="none" fill="#000000" transform="matrix(0.1 0 0 0.1 -248.57 -85)" d="M 4330.25,3915.73 L 4329.08,3905.12 L 4338.77,3898.15 L 4773.06,4038.94 L 4766.92,4057.81 L 4330.25,3915.73 Z " />
<path stroke="none" fill="#000000" transform="matrix(0.1 0 0 0.1 -248.57 -85)" d="M 4954.48,4195.35 L 4971.22,4184.7 L 5226.71,4586.86 L 5215.9,4606.85 L 4954.48,4195.35 Z " />
<path stroke="none" fill="#000000" transform="matrix(0.1 0 0 0.1 -248.57 -85)" d="M 5254.74,4591.16 L 5271.92,4601.08 L 5020.61,5036.37 L 5003.43,5026.45 L 5254.74,4591.16 Z " />
<path stroke="none" fill="#000000" transform="matrix(0.1 0 0 0.1 -248.57 -85)" d="M 5191.09,4557.46 L 5208.27,4567.38 L 4958.28,5000.38 L 4941.09,4990.46 L 5191.09,4557.46 Z " />
<path stroke="none" fill="#000000" transform="matrix(0.1 0 0 0.1 -248.57 -85)" d="M 5215.9,4606.85 L 5226.71,4586.86 L 5815.64,4579.15 L 5821.22,4588.82 L 5814.65,4598.61 L 5215.9,4606.85 Z " />
<path stroke="none" fill="#000000" transform="matrix(0.1 0 0 0.1 -248.57 -85)" d="M 5831.33,4591.02 L 5821.22,4588.82 L 5815.64,4579.15 L 6116.74,4073.05 L 6127.9,4073.34 L 6133.2,4083.44 L 5831.33,4591.02 Z " />
<path stroke="none" fill="#000000" transform="matrix(0.1 0 0 0.1 -248.57 -85)" d="M 6133.2,4083.44 L 6127.9,4073.34 L 6134.74,4065.31 L 6620.6,4107.86 L 6597.74,4225.66 L 6133.2,4083.44 Z " />
<path stroke="none" fill="#000000" transform="matrix(0.1 0 0 0.1 -248.57 -85)" d="M 6811.4,4119.87 L 6798.54,4104.76 L 7163.36,3794.46 L 7173.27,3798.8 L 7174.04,3810.79 L 6811.4,4119.87 Z " />
<path stroke="none" fill="#000000" transform="matrix(0.1 0 0 0.1 -248.57 -85)" d="M 7182.96,3795 L 7173.27,3798.8 L 7163.36,3794.46 L 7144.04,3204.33 L 7153.65,3199.31 L 7163.56,3205.06 L 7182.96,3795 Z " />
<path stroke="none" fill="#000000" transform="matrix(0.1 0 0 0.1 -248.57 -85)" d="M 7154.58,3187.89 L 7153.65,3199.31 L 7144.04,3204.33 L 6670.41,2851.86 L 6672.46,2841.21 L 6680.4,2834.86 L 7154.58,3187.89 Z " />
<path stroke="none" fill="#000000" transform="matrix(0.1 0 0 0.1 -248.57 -85)" d="M 7088.77,3228.38 L 7076.92,3244.3 L 6651.4,2927.63 L 6663.24,2911.71 L 7088.77,3228.38 Z " />
<path stroke="none" fill="#000000" transform="matrix(0.1 0 0 0.1 -248.57 -85)" d="M 6680.4,2834.86 L 6672.46,2841.21 L 6658.75,2834.98 L 6067.79,1576.01 L 6073.28,1564.6 L 6084.47,1565.27 L 6680.4,2834.86 Z " />
<path stroke="none" fill="#000000" transform="matrix(0.1 0 0 0.1 -248.57 -85)" d="M 6658.75,2834.98 L 6672.46,2841.21 L 6670.41,2851.86 L 6099.6,3002.81 L 6092.58,2994.56 L 6096.53,2983.48 L 6658.75,2834.98 Z " />
<path stroke="none" fill="#000000" transform="matrix(0.1 0 0 0.1 -248.57 -85)" d="M 6113.22,2943.76 L 6093.79,2939.74 L 6095.2,2919.77 L 6119.84,2924.87 L 6113.22,2943.76 Z " />
<path stroke="none" fill="#000000" transform="matrix(0.1 0 0 0.1 -248.57 -85)" d="M 6132.9,2887.62 L 6097.98,2880.4 L 6099.4,2860.43 L 6139.52,2868.73 L 6132.9,2887.62 Z " />
<path stroke="none" fill="#000000" transform="matrix(0.1 0 0 0.1 -248.57 -85)" d="M 6152.57,2831.48 L 6102.18,2821.06 L 6103.6,2801.09 L 6159.2,2812.59 L 6152.57,2831.48 Z " />
<path stroke="none" fill="#000000" transform="matrix(0.1 0 0 0.1 -248.57 -85)" d="M 6172.25,2775.34 L 6106.38,2761.72 L 6107.8,2741.75 L 6178.87,2756.45 L 6172.25,2775.34 Z " />
<path stroke="none" fill="#000000" transform="matrix(0.1 0 0 0.1 -248.57 -85)" d="M 6191.93,2719.2 L 6110.58,2702.38 L 6112,2682.41 L 6198.55,2700.31 L 6191.93,2719.2 Z " />
<path stroke="none" fill="#000000" transform="matrix(0.1 0 0 0.1 -248.57 -85)" d="M 6211.61,2663.06 L 6114.78,2643.04 L 6116.19,2623.07 L 6218.23,2644.17 L 6211.61,2663.06 Z " />
<path stroke="none" fill="#000000" transform="matrix(0.1 0 0 0.1 -248.57 -85)" d="M 6231.29,2606.92 L 6118.98,2583.7 L 6120.39,2563.73 L 6237.91,2588.03 L 6231.29,2606.92 Z " />
<path stroke="none" fill="#000000" transform="matrix(0.1 0 0 0.1 -248.57 -85)" d="M 6081.4,2995.73 L 6092.58,2994.56 L 6099.6,3002.81 L 5859.46,3542.16 L 5848.62,3542.51 L 5842.01,3533.42 L 6081.4,2995.73 Z " />
<path stroke="none" fill="#000000" transform="matrix(0.1 0 0 0.1 -248.57 -85)" d="M 5902.48,3552.43 L 5902.48,3532.59 L 5922.32,3530.54 L 5922.32,3554.49 L 5902.48,3552.43 Z " />
<path stroke="none" fill="#000000" transform="matrix(0.1 0 0 0.1 -248.57 -85)" d="M 5960.4,3558.44 L 5960.4,3526.59 L 5980.24,3524.53 L 5980.24,3560.49 L 5960.4,3558.44 Z " />
<path stroke="none" fill="#000000" transform="matrix(0.1 0 0 0.1 -248.57 -85)" d="M 6018.32,3564.44 L 6018.32,3520.59 L 6038.16,3518.53 L 6038.16,3566.5 L 6018.32,3564.44 Z " />
<path stroke="none" fill="#000000" transform="matrix(0.1 0 0 0.1 -248.57 -85)" d="M 6076.24,3570.44 L 6076.24,3514.58 L 6096.08,3512.53 L 6096.08,3572.5 L 6076.24,3570.44 Z " />
<path stroke="none" fill="#000000" transform="matrix(0.1 0 0 0.1 -248.57 -85)" d="M 6134.16,3576.45 L 6134.16,3508.58 L 6154,3506.52 L 6154,3578.5 L 6134.16,3576.45 Z " />
<path stroke="none" fill="#000000" transform="matrix(0.1 0 0 0.1 -248.57 -85)" d="M 6192.08,3582.45 L 6192.08,3502.58 L 6211.92,3500.52 L 6211.92,3584.51 L 6192.08,3582.45 Z " />
<path stroke="none" fill="#000000" transform="matrix(0.1 0 0 0.1 -248.57 -85)" d="M 6250,3588.45 L 6250,3496.58 L 6269.84,3494.52 L 6269.84,3590.51 L 6250,3588.45 Z " />
<path stroke="none" fill="#000000" transform="matrix(0.1 0 0 0.1 -248.57 -85)" d="M 6307.91,3594.45 L 6307.91,3490.57 L 6327.76,3488.52 L 6327.76,3596.51 L 6307.91,3594.45 Z " />
<path stroke="none" fill="#000000" transform="matrix(0.1 0 0 0.1 -248.57 -85)" d="M 6365.83,3600.46 L 6365.83,3484.57 L 6385.68,3482.51 L 6385.68,3602.51 L 6365.83,3600.46 Z " />
<path stroke="none" fill="#000000" transform="matrix(0.1 0 0 0.1 -248.57 -85)" d="M 6134.74,4065.31 L 6127.9,4073.34 L 6116.74,4073.05 L 5843.09,3552.85 L 5848.62,3542.51 L 5859.46,3542.16 L 6134.74,4065.31 Z " />
<path stroke="none" fill="#000000" transform="matrix(0.1 0 0 0.1 -248.57 -85)" d="M 6096.53,2983.48 L 6092.58,2994.56 L 6081.4,2995.73 L 5735.45,2519.57 L 5740.02,2509.3 L 5748.32,2503.87 L 6096.53,2983.48 Z " />
<path stroke="none" fill="#000000" transform="matrix(0.1 0 0 0.1 -248.57 -85)" d="M 5730.37,2500.63 L 5740.02,2509.3 L 5735.45,2519.57 L 5150.1,2581.09 L 5143.5,2572 L 5152.9,2561.38 L 5730.37,2500.63 Z " />
<path stroke="none" fill="#000000" transform="matrix(0.1 0 0 0.1 -248.57 -85)" d="M 5167.13,2621.41 L 5183.18,2609.74 L 5197.01,2624.23 L 5176.63,2639.03 L 5167.13,2621.41 Z " />
<path stroke="none" fill="#000000" transform="matrix(0.1 0 0 0.1 -248.57 -85)" d="M 5195.25,2673.56 L 5224.09,2652.61 L 5237.92,2667.09 L 5204.76,2691.18 L 5195.25,2673.56 Z " />
<path stroke="none" fill="#000000" transform="matrix(0.1 0 0 0.1 -248.57 -85)" d="M 5223.38,2725.71 L 5265,2695.47 L 5278.82,2709.95 L 5232.88,2743.33 L 5223.38,2725.71 Z " />
<path stroke="none" fill="#000000" transform="matrix(0.1 0 0 0.1 -248.57 -85)" d="M 5251.5,2777.86 L 5305.91,2738.33 L 5319.73,2752.82 L 5261,2795.48 L 5251.5,2777.86 Z " />
<path stroke="none" fill="#000000" transform="matrix(0.1 0 0 0.1 -248.57 -85)" d="M 5279.63,2830.01 L 5346.82,2781.2 L 5360.64,2795.68 L 5289.13,2847.64 L 5279.63,2830.01 Z " />
<path stroke="none" fill="#000000" transform="matrix(0.1 0 0 0.1 -248.57 -85)" d="M 5307.75,2882.17 L 5387.73,2824.06 L 5401.55,2838.54 L 5317.25,2899.79 L 5307.75,2882.17 Z " />
<path stroke="none" fill="#000000" transform="matrix(0.1 0 0 0.1 -248.57 -85)" d="M 5335.87,2934.32 L 5428.63,2866.92 L 5442.46,2881.41 L 5345.38,2951.94 L 5335.87,2934.32 Z " />
<path stroke="none" fill="#000000" transform="matrix(0.1 0 0 0.1 -248.57 -85)" d="M 5133.6,2570.02 L 5143.5,2572 L 5150.1,2581.09 L 4910.71,3118.78 L 4899.53,3119.95 L 4896.98,3102.5 L 5133.6,2570.02 Z " />
<path stroke="none" fill="#000000" transform="matrix(0.1 0 0 0.1 -248.57 -85)" d="M 4845.17,3127.18 L 4851.31,3146.06 L 4833.06,3154.11 L 4825.68,3131.39 L 4845.17,3127.18 Z " />
<path stroke="none" fill="#000000" transform="matrix(0.1 0 0 0.1 -248.57 -85)" d="M 4787.19,3139.71 L 4797.04,3170 L 4778.79,3178.06 L 4767.7,3143.92 L 4787.19,3139.71 Z " />
<path stroke="none" fill="#000000" transform="matrix(0.1 0 0 0.1 -248.57 -85)" d="M 4729.21,3152.23 L 4742.77,3193.95 L 4724.52,3202.01 L 4709.72,3156.44 L 4729.21,3152.23 Z " />
<path stroke="none" fill="#000000" transform="matrix(0.1 0 0 0.1 -248.57 -85)" d="M 4671.23,3164.75 L 4688.5,3217.9 L 4670.25,3225.96 L 4651.73,3168.96 L 4671.23,3164.75 Z " />
<path stroke="none" fill="#000000" transform="matrix(0.1 0 0 0.1 -248.57 -85)" d="M 4613.25,3177.27 L 4634.23,3241.85 L 4615.98,3249.91 L 4593.75,3181.49 L 4613.25,3177.27 Z " />
<path stroke="none" fill="#000000" transform="matrix(0.1 0 0 0.1 -248.57 -85)" d="M 4555.27,3189.8 L 4579.96,3265.8 L 4561.72,3273.85 L 4535.77,3194.01 L 4555.27,3189.8 Z " />
<path stroke="none" fill="#000000" transform="matrix(0.1 0 0 0.1 -248.57 -85)" d="M 4497.29,3202.32 L 4525.69,3289.75 L 4507.45,3297.8 L 4477.79,3206.53 L 4497.29,3202.32 Z " />
<path stroke="none" fill="#000000" transform="matrix(0.1 0 0 0.1 -248.57 -85)" d="M 4439.31,3214.84 L 4471.43,3313.7 L 4453.18,3321.75 L 4419.81,3219.05 L 4439.31,3214.84 Z " />
<path stroke="none" fill="#000000" transform="matrix(0.1 0 0 0.1 -248.57 -85)" d="M 4381.32,3227.37 L 4417.16,3337.65 L 4398.91,3345.7 L 4361.83,3231.58 L 4381.32,3227.37 Z " />
<path stroke="none" fill="#000000" transform="matrix(0.1 0 0 0.1 -248.57 -85)" d="M 4891.51,3125.79 L 4899.53,3119.95 L 4910.71,3118.78 L 5256.66,3594.94 L 5252.09,3605.21 L 5234.91,3597.53 L 4891.51,3125.79 Z " />
<path stroke="none" fill="#000000" transform="matrix(0.1 0 0 0.1 -248.57 -85)" d="M 5234.91,3597.53 L 5252.09,3605.21 L 5235.1,3612.92 L 4715.23,3665.21 L 4715.23,3545.21 L 5234.91,3597.53 Z " />
<path stroke="none" fill="#000000" transform="matrix(0.1 0 0 0.1 -248.57 -85)" d="M 4993.55,3977.95 L 4977.49,3966.28 L 5235.1,3612.92 L 5252.09,3605.21 L 5257.38,3614.49 L 4993.55,3977.95 Z " />
<path stroke="none" fill="#000000" transform="matrix(0.1 0 0 0.1 -248.57 -85)" d="M 5842.01,3533.42 L 5848.62,3542.51 L 5843.09,3552.85 L 5257.38,3614.49 L 5252.09,3605.21 L 5256.66,3594.94 L 5842.01,3533.42 Z " />
<path stroke="none" fill="#000000" transform="matrix(0.1 0 0 0.1 -248.57 -85)" d="M 4896.98,3102.5 L 4899.53,3119.95 L 4891.61,3125.92 L 4405.08,2563.36 L 4453.01,2527.26 L 4483.25,2462.43 L 4896.98,3102.5 Z " />
<path stroke="none" fill="#000000" transform="matrix(0.1 0 0 0.1 -248.57 -85)" d="M 4483.25,2462.43 L 4453.01,2527.26 L 4448.76,2510.69 L 4628.06,1990.14 L 4638.3,1990.55 L 4646.08,1997.93 L 4483.25,2462.43 Z " />
<path stroke="none" fill="#000000" transform="matrix(0.1 0 0 0.1 -248.57 -85)" d="M 4646.08,1997.93 L 4638.3,1990.55 L 4642.7,1978.65 L 5006.01,1837.24 L 5013.19,1855.74 L 4646.08,1997.93 Z " />
<path stroke="none" fill="#000000" transform="matrix(0.1 0 0 0.1 -248.57 -85)" d="M 6068.9,1555.52 L 6073.28,1564.6 L 6067.79,1576.01 L 5241.01,1782.6 L 5236.2,1763.35 L 6068.9,1555.52 Z " />
<path stroke="none" fill="#000000" transform="matrix(0.1 0 0 0.1 -248.57 -85)" d="M 5152.9,2561.38 L 5143.5,2572 L 5133.6,2570.02 L 5119.8,1897.07 L 5139.63,1896.66 L 5152.9,2561.38 Z " />
<text x="0" y="0" stroke="none" fill="#000000" transform="matrix(0.1 0 0 0.1 119.173 161.659)" font-style="normal" font-weight="normal" font-size="200px" font-family="EB Garamond" >
(A)</text>
<path stroke="none" fill="#000000" transform="matrix(0.1 0 0 0.1 -248.57 -85)" d="M 3819.31,2999.74 L 3809.63,3005.4 L 3799.95,2999.74 L 3799.7,2541.34 L 3819.55,2541.34 L 3819.31,2999.74 Z " />
<text x="0" y="0" stroke="none" fill="#000000" transform="matrix(0.1 0 0 0.1 7.31228 221.64)" font-style="normal" font-weight="normal" font-size="200px" font-family="EB Garamond" >
(B)</text>
<path stroke="none" fill="#000000" transform="matrix(0.1 0 0 0.1 -248.57 -85)" d="M 3290.15,3294.08 L 3290.17,3305.31 L 3280.44,3310.89 L 2832.89,3052.75 L 2842.81,3035.57 L 3290.15,3294.08 Z " />
<text x="0" y="0" stroke="none" fill="#000000" transform="matrix(0.1 0 0 0.1 4.85228 341.602)" font-style="normal" font-weight="normal" font-size="200px" font-family="EB Garamond" >
(C)</text>
<path stroke="none" fill="#000000" transform="matrix(0.1 0 0 0.1 -248.57 -85)" d="M 3280.44,3899.53 L 3290.17,3905.12 L 3290.15,3916.34 L 2841.18,4175.8 L 2831.26,4158.61 L 3280.44,3899.53 Z " />
<text x="0" y="0" stroke="none" fill="#000000" transform="matrix(0.1 0 0 0.1 118.553 401.583)" font-style="normal" font-weight="normal" font-size="200px" font-family="EB Garamond" >
(D)</text>
<path stroke="none" fill="#000000" transform="matrix(0.1 0 0 0.1 -248.57 -85)" d="M 3799.94,4210.67 L 3809.63,4205.02 L 3819.31,4210.67 L 3819.55,4677.08 L 3799.7,4677.08 L 3799.94,4210.67 Z " />
<text x="0" y="0" stroke="none" fill="#000000" transform="matrix(0.1 0 0 0.1 375.926 415.02)" font-style="normal" font-weight="normal" font-size="200px" font-family="EB Garamond" >
(F)</text>
<path stroke="none" fill="#000000" transform="matrix(0.1 0 0 0.1 -248.57 -85)" d="M 5857.93,4629.59 L 5870.03,4613.87 L 5887.14,4624.17 L 5872.27,4643.5 L 5857.93,4629.59 Z " />
<path stroke="none" fill="#000000" transform="matrix(0.1 0 0 0.1 -248.57 -85)" d="M 5900.99,4671.35 L 5921.42,4644.8 L 5938.53,4655.1 L 5915.32,4685.26 L 5900.99,4671.35 Z " />
<path stroke="none" fill="#000000" transform="matrix(0.1 0 0 0.1 -248.57 -85)" d="M 5944.04,4713.11 L 5972.81,4675.74 L 5989.92,4686.04 L 5958.38,4727.01 L 5944.04,4713.11 Z " />
<path stroke="none" fill="#000000" transform="matrix(0.1 0 0 0.1 -248.57 -85)" d="M 5987.1,4754.87 L 6024.2,4706.67 L 6041.31,4716.97 L 6001.44,4768.77 L 5987.1,4754.87 Z " />
<path stroke="none" fill="#000000" transform="matrix(0.1 0 0 0.1 -248.57 -85)" d="M 6030.16,4796.62 L 6075.58,4737.6 L 6092.7,4747.9 L 6044.5,4810.53 L 6030.16,4796.62 Z " />
<path stroke="none" fill="#000000" transform="matrix(0.1 0 0 0.1 -248.57 -85)" d="M 6073.22,4838.38 L 6126.97,4768.54 L 6144.08,4778.84 L 6087.55,4852.29 L 6073.22,4838.38 Z " />
<path stroke="none" fill="#000000" transform="matrix(0.1 0 0 0.1 -248.57 -85)" d="M 6116.27,4880.14 L 6178.36,4799.47 L 6195.47,4809.77 L 6130.61,4894.04 L 6116.27,4880.14 Z " />
<path stroke="none" fill="#000000" transform="matrix(0.1 0 0 0.1 -248.57 -85)" d="M 6159.33,4921.9 L 6229.75,4830.4 L 6246.86,4840.7 L 6173.67,4935.8 L 6159.33,4921.9 Z " />
<text x="0" y="0" stroke="none" fill="#000000" transform="matrix(0.1 0 0 0.1 335.495 441.012)" font-style="normal" font-weight="normal" font-size="200px" font-family="EB Garamond" >
(G)</text>
<path stroke="none" fill="#000000" transform="matrix(0.1 0 0 0.1 -248.57 -85)" d="M 5814.65,4598.61 L 5821.22,4588.82 L 5831.33,4591.02 L 5998.56,5042.34 L 5882.27,5071.94 L 5814.65,4598.61 Z " />
<text x="0" y="0" stroke="none" fill="#000000" transform="matrix(0.1 0 0 0.1 390.73 370.1)" font-style="normal" font-weight="normal" font-size="200px" font-family="EB Garamond" >
(H)</text>
<path stroke="none" fill="#000000" transform="matrix(0.1 0 0 0.1 -248.57 -85)" d="M 6158.61,4118.78 L 6172.76,4104.87 L 6188.64,4117.09 L 6170.53,4134.88 L 6158.61,4118.78 Z " />
<path stroke="none" fill="#000000" transform="matrix(0.1 0 0 0.1 -248.57 -85)" d="M 6192.54,4164.59 L 6217.95,4139.64 L 6233.83,4151.86 L 6204.47,4180.69 L 6192.54,4164.59 Z " />
<path stroke="none" fill="#000000" transform="matrix(0.1 0 0 0.1 -248.57 -85)" d="M 6226.48,4210.41 L 6263.14,4174.41 L 6279.02,4186.63 L 6238.4,4226.51 L 6226.48,4210.41 Z " />
<path stroke="none" fill="#000000" transform="matrix(0.1 0 0 0.1 -248.57 -85)" d="M 6260.42,4256.23 L 6308.33,4209.18 L 6324.21,4221.4 L 6272.34,4272.33 L 6260.42,4256.23 Z " />
<path stroke="none" fill="#000000" transform="matrix(0.1 0 0 0.1 -248.57 -85)" d="M 6294.35,4302.05 L 6353.52,4243.95 L 6369.4,4256.17 L 6306.28,4318.15 L 6294.35,4302.05 Z " />
<path stroke="none" fill="#000000" transform="matrix(0.1 0 0 0.1 -248.57 -85)" d="M 6328.29,4347.86 L 6398.71,4278.72 L 6414.59,4290.94 L 6340.21,4363.96 L 6328.29,4347.86 Z " />
<path stroke="none" fill="#000000" transform="matrix(0.1 0 0 0.1 -248.57 -85)" d="M 6362.22,4393.68 L 6443.9,4313.49 L 6459.78,4325.71 L 6374.15,4409.78 L 6362.22,4393.68 Z " />
<text x="0" y="0" stroke="none" fill="#000000" transform="matrix(0.1 0 0 0.1 303.99 123.1)" font-style="normal" font-weight="normal" font-size="200px" font-family="EB Garamond" >
(L)</text>
<path stroke="none" fill="#000000" transform="matrix(0.1 0 0 0.1 -248.57 -85)" d="M 5748.32,2503.87 L 5740.02,2509.3 L 5730.37,2500.63 L 5615.73,2176.79 L 5733.62,2154.38 L 5748.32,2503.87 Z " />
<text x="0" y="0" stroke="none" fill="#000000" transform="matrix(0.1 0 0 0.1 334.02 130.1)" font-style="normal" font-weight="normal" font-size="200px" font-family="EB Garamond" >
(K)</text>
<path stroke="none" fill="#000000" transform="matrix(0.1 0 0 0.1 -248.57 -85)" d="M 5773.66,2465.89 L 5756.04,2456.77 L 5761.68,2437.35 L 5786.25,2450.06 L 5773.66,2465.89 Z " />
<path stroke="none" fill="#000000" transform="matrix(0.1 0 0 0.1 -248.57 -85)" d="M 5810.8,2419.23 L 5772.68,2399.5 L 5778.32,2380.08 L 5823.4,2403.4 L 5810.8,2419.23 Z " />
<path stroke="none" fill="#000000" transform="matrix(0.1 0 0 0.1 -248.57 -85)" d="M 5847.94,2372.56 L 5789.32,2342.23 L 5794.96,2322.81 L 5860.54,2356.74 L 5847.94,2372.56 Z " />
<path stroke="none" fill="#000000" transform="matrix(0.1 0 0 0.1 -248.57 -85)" d="M 5885.08,2325.9 L 5805.96,2284.96 L 5811.6,2265.54 L 5897.68,2310.08 L 5885.08,2325.9 Z " />
<path stroke="none" fill="#000000" transform="matrix(0.1 0 0 0.1 -248.57 -85)" d="M 5922.22,2279.24 L 5822.6,2227.69 L 5828.24,2208.27 L 5934.82,2263.42 L 5922.22,2279.24 Z " />
<text x="0" y="0" stroke="none" fill="#000000" transform="matrix(0.1 0 0 0.1 143.2 127.1)" font-style="normal" font-weight="normal" font-size="200px" font-family="EB Garamond" >
(O)</text>
<path stroke="none" fill="#000000" transform="matrix(0.1 0 0 0.1 -248.57 -85)" d="M 4448.76,2510.69 L 4453.01,2527.26 L 4445.44,2533.67 L 4123.52,2231.29 L 4215.07,2153.71 L 4448.76,2510.69 Z " />
<text x="0" y="0" stroke="none" fill="#000000" transform="matrix(0.1 0 0 0.1 138.84 194.1)" font-style="normal" font-weight="normal" font-size="200px" font-family="EB Garamond" >
(N)</text>
<path stroke="none" fill="#000000" transform="matrix(0.1 0 0 0.1 -248.57 -85)" d="M 4401.95,2547.33 L 4412.43,2564.17 L 4397.66,2577.99 L 4383.02,2554.46 L 4401.95,2547.33 Z " />
<path stroke="none" fill="#000000" transform="matrix(0.1 0 0 0.1 -248.57 -85)" d="M 4346.45,2568.26 L 4369.11,2604.7 L 4354.34,2618.52 L 4327.52,2575.4 L 4346.45,2568.26 Z " />
<path stroke="none" fill="#000000" transform="matrix(0.1 0 0 0.1 -248.57 -85)" d="M 4290.94,2589.19 L 4325.79,2645.23 L 4311.02,2659.05 L 4272.01,2596.33 L 4290.94,2589.19 Z " />
<path stroke="none" fill="#000000" transform="matrix(0.1 0 0 0.1 -248.57 -85)" d="M 4235.44,2610.12 L 4282.47,2685.75 L 4267.7,2699.57 L 4216.51,2617.26 L 4235.44,2610.12 Z " />
<path stroke="none" fill="#000000" transform="matrix(0.1 0 0 0.1 -248.57 -85)" d="M 4179.93,2631.06 L 4239.15,2726.28 L 4224.38,2740.1 L 4161.01,2638.19 L 4179.93,2631.06 Z " />
<text x="0" y="0" stroke="none" fill="#000000" transform="matrix(0.1 0 0 0.1 146.64 87.1)" font-style="normal" font-weight="normal" font-size="200px" font-family="EB Garamond" >
(P)</text>
<path stroke="none" fill="#000000" transform="matrix(0.1 0 0 0.1 -248.57 -85)" d="M 4599.47,1951.85 L 4588.24,1968.21 L 4570.62,1958.81 L 4584.38,1938.78 L 4599.47,1951.85 Z " />
<path stroke="none" fill="#000000" transform="matrix(0.1 0 0 0.1 -248.57 -85)" d="M 4553.21,1911.78 L 4534.23,1939.41 L 4516.61,1930.01 L 4538.11,1898.71 L 4553.21,1911.78 Z " />
<path stroke="none" fill="#000000" transform="matrix(0.1 0 0 0.1 -248.57 -85)" d="M 4506.94,1871.71 L 4480.23,1910.61 L 4462.61,1901.21 L 4491.84,1858.64 L 4506.94,1871.71 Z " />
<path stroke="none" fill="#000000" transform="matrix(0.1 0 0 0.1 -248.57 -85)" d="M 4460.67,1831.65 L 4426.22,1881.81 L 4408.6,1872.41 L 4445.58,1818.57 L 4460.67,1831.65 Z " />
<path stroke="none" fill="#000000" transform="matrix(0.1 0 0 0.1 -248.57 -85)" d="M 4414.4,1791.58 L 4372.21,1853.01 L 4354.59,1843.62 L 4399.31,1778.51 L 4414.4,1791.58 Z " />
<path stroke="none" fill="#000000" transform="matrix(0.1 0 0 0.1 -248.57 -85)" d="M 4368.14,1751.51 L 4318.2,1824.21 L 4300.58,1814.82 L 4353.04,1738.44 L 4368.14,1751.51 Z " />
<path stroke="none" fill="#000000" transform="matrix(0.1 0 0 0.1 -248.57 -85)" d="M 4321.87,1711.44 L 4264.2,1795.41 L 4246.58,1786.02 L 4306.77,1698.37 L 4321.87,1711.44 Z " />
<path stroke="none" fill="#000000" transform="matrix(0.1 0 0 0.1 -248.57 -85)" d="M 4275.6,1671.37 L 4210.19,1766.61 L 4192.57,1757.22 L 4260.51,1658.3 L 4275.6,1671.37 Z " />
<text x="0" y="0" stroke="none" fill="#000000" transform="matrix(0.1 0 0 0.1 176.2 59.1)" font-style="normal" font-weight="normal" font-size="200px" font-family="EB Garamond" >
(Q)</text>
<path stroke="none" fill="#000000" transform="matrix(0.1 0 0 0.1 -248.57 -85)" d="M 4642.7,1978.65 L 4638.3,1990.55 L 4628.06,1990.14 L 4394.85,1556.72 L 4505.82,1511.04 L 4642.7,1978.65 Z " />
<text x="0" y="0" stroke="none" fill="#000000" transform="matrix(0.1 0 0 0.1 345.7 21.1)" font-style="normal" font-weight="normal" font-size="200px" font-family="EB Garamond" >
(R)</text>
<path stroke="none" fill="#000000" transform="matrix(0.1 0 0 0.1 -248.57 -85)" d="M 6083.55,1510.7 L 6063.71,1510.57 L 6061.19,1490.71 L 6086.34,1490.88 L 6083.55,1510.7 Z " />
<path stroke="none" fill="#000000" transform="matrix(0.1 0 0 0.1 -248.57 -85)" d="M 6091.85,1451.58 L 6056.2,1451.35 L 6053.68,1431.49 L 6094.63,1431.76 L 6091.85,1451.58 Z " />
<path stroke="none" fill="#000000" transform="matrix(0.1 0 0 0.1 -248.57 -85)" d="M 6100.14,1392.46 L 6048.68,1392.12 L 6046.16,1372.26 L 6102.93,1372.63 L 6100.14,1392.46 Z " />
<path stroke="none" fill="#000000" transform="matrix(0.1 0 0 0.1 -248.57 -85)" d="M 6108.44,1333.33 L 6041.17,1332.89 L 6038.65,1313.03 L 6111.22,1313.51 L 6108.44,1333.33 Z " />
<path stroke="none" fill="#000000" transform="matrix(0.1 0 0 0.1 -248.57 -85)" d="M 6116.73,1274.21 L 6033.65,1273.66 L 6031.14,1253.81 L 6119.51,1254.39 L 6116.73,1274.21 Z " />
<path stroke="none" fill="#000000" transform="matrix(0.1 0 0 0.1 -248.57 -85)" d="M 6125.03,1215.09 L 6026.14,1214.44 L 6023.62,1194.58 L 6127.81,1195.27 L 6125.03,1215.09 Z " />
<path stroke="none" fill="#000000" transform="matrix(0.1 0 0 0.1 -248.57 -85)" d="M 6133.32,1155.97 L 6018.63,1155.21 L 6016.11,1135.35 L 6136.1,1136.14 L 6133.32,1155.97 Z " />
<text x="0" y="0" stroke="none" fill="#000000" transform="matrix(0.1 0 0 0.1 387.18 33.1)" font-style="normal" font-weight="normal" font-size="200px" font-family="EB Garamond" >
(S)</text>
<path stroke="none" fill="#000000" transform="matrix(0.1 0 0 0.1 -248.57 -85)" d="M 6084.47,1565.27 L 6073.28,1564.6 L 6068.9,1555.52 L 6319.7,1195.83 L 6409.54,1275.39 L 6084.47,1565.27 Z " />
<text x="0" y="0" stroke="none" fill="#000000" transform="matrix(0.1 0 0 0.1 516.796 213.233)" font-style="normal" font-weight="normal" font-size="200px" font-family="EB Garamond" >
(T)</text>
<path stroke="none" fill="#000000" transform="matrix(0.1 0 0 0.1 -248.57 -85)" d="M 7163.56,3205.06 L 7153.65,3199.31 L 7154.58,3187.89 L 7613.78,2947.46 L 7622.98,2965.05 L 7163.56,3205.06 Z " />
<text x="0" y="0" stroke="none" fill="#000000" transform="matrix(0.1 0 0 0.1 506.98 336.1)" font-style="normal" font-weight="normal" font-size="200px" font-family="EB Garamond" >
(U)</text>
<path stroke="none" fill="#000000" transform="matrix(0.1 0 0 0.1 -248.57 -85)" d="M 7174.04,3810.79 L 7173.27,3798.8 L 7182.96,3795 L 7559.79,4048.2 L 7482.13,4139.68 L 7174.04,3810.79 Z " />
<text x="0" y="0" stroke="none" fill="#000000" transform="matrix(0.1 0 0 0.1 519.98 300.1)" font-style="normal" font-weight="normal" font-size="200px" font-family="EB Garamond" >
(V)</text>
<path stroke="none" fill="#000000" transform="matrix(0.1 0 0 0.1 -248.57 -85)" d="M 7227.29,3807.85 L 7226.97,3788.01 L 7246.77,3785.36 L 7247.17,3809.85 L 7227.29,3807.85 Z " />
<path stroke="none" fill="#000000" transform="matrix(0.1 0 0 0.1 -248.57 -85)" d="M 7285.58,3813.73 L 7285.04,3780.24 L 7304.85,3777.6 L 7305.46,3815.73 L 7285.58,3813.73 Z " />
<path stroke="none" fill="#000000" transform="matrix(0.1 0 0 0.1 -248.57 -85)" d="M 7343.88,3819.61 L 7343.12,3772.48 L 7362.92,3769.84 L 7363.76,3821.61 L 7343.88,3819.61 Z " />
<path stroke="none" fill="#000000" transform="matrix(0.1 0 0 0.1 -248.57 -85)" d="M 7402.17,3825.48 L 7401.19,3764.72 L 7420.99,3762.07 L 7422.05,3827.49 L 7402.17,3825.48 Z " />
<path stroke="none" fill="#000000" transform="matrix(0.1 0 0 0.1 -248.57 -85)" d="M 7460.47,3831.36 L 7459.26,3756.96 L 7479.07,3754.31 L 7480.35,3833.37 L 7460.47,3831.36 Z " />
<path stroke="none" fill="#000000" transform="matrix(0.1 0 0 0.1 -248.57 -85)" d="M 7518.76,3837.24 L 7517.34,3749.19 L 7537.14,3746.55 L 7538.64,3839.25 L 7518.76,3837.24 Z " />
<path stroke="none" fill="#000000" transform="matrix(0.1 0 0 0.1 -248.57 -85)" d="M 7577.06,3843.12 L 7575.41,3741.43 L 7595.21,3738.79 L 7596.94,3845.13 L 7577.06,3843.12 Z " />
<path stroke="none" fill="#000000" transform="matrix(0.1 0 0 0.1 -248.57 -85)" d="M 7635.35,3849 L 7633.49,3733.67 L 7653.29,3731.02 L 7655.23,3851.01 L 7635.35,3849 Z " />
</svg>
