<?xml version="1.0" standalone="no" ?>
<!DOCTYPE svg PUBLIC "-//W3C//DTD SVG 1.1//EN" "http://www.w3.org/Graphics/SVG/1.1/DTD/svg11.dtd">
<svg width="559px" height="493px" viewBox="0 0 559 493" style="background-color: #ffffff00" xmlns="http://www.w3.org/2000/svg" xmlns:xlink="http://www.w3.org/1999/xlink" version="1.1" >
<path stroke="none" fill="#000000" transform="matrix(0.0666667 0 0 0.0666667 -0.8 0.666667)" d="M 5165.57,4713.81 L 5175.14,4708.24 L 5184.6,4715.62 L 5185.04,5042.87 L 5165.24,5042.87 L 5165.57,4713.81 Z " />
<path stroke="none" fill="#000000" transform="matrix(0.0666667 0 0 0.0666667 -0.8 0.666667)" d="M 1780.23,1348.56 L 1789.7,1341.16 L 1799.16,1348.53 L 1799.37,1501.43 L 1780.02,1506.62 L 1780.23,1348.56 L 1780.23,1348.56 Z " />
<path stroke="none" fill="#000000" transform="matrix(0.0666667 0 0 0.0666667 -0.8 0.666667)" d="M 1799.6,1678.32 L 1779.8,1678.32 L 1779.89,1610.4 L 1799.5,1605.14 L 1799.6,1678.32 L 1799.6,1678.32 Z " />
<text x="0" y="0" stroke="none" fill="#000000" transform="matrix(0.0666667 0 0 0.0666667 115.2 122.191)" font-style="normal" font-weight="normal" font-size="140px" font-family="EB Garamond" >
C(Z)</text>
<text x="0" y="0" stroke="none" fill="#000000" transform="matrix(0.0666667 0 0 0.0666667 133.335 125.857)" font-style="normal" font-weight="normal" font-size="105px" font-family="EB Garamond" >
3</text>
<path stroke="none" fill="#000000" transform="matrix(0.0666667 0 0 0.0666667 -0.8 0.666667)" d="M 1135.92,1079.62 L 1145.39,1072.22 L 1154.85,1079.64 L 1154.95,1233.78 L 1135.61,1238.85 L 1135.92,1079.62 L 1135.92,1079.62 Z " />
<path stroke="none" fill="#000000" transform="matrix(0.0666667 0 0 0.0666667 -0.8 0.666667)" d="M 1155.07,1409.25 L 1135.27,1409.24 L 1135.4,1342.48 L 1155.02,1337.34 L 1155.07,1409.25 L 1155.07,1409.25 Z " />
<text x="0" y="0" stroke="none" fill="#000000" transform="matrix(0.0666667 0 0 0.0666667 69.1559 104.252)" font-style="normal" font-weight="normal" font-size="140px" font-family="EB Garamond" >
(U)</text>
<path stroke="none" fill="#000000" transform="matrix(0.0666667 0 0 0.0666667 -0.8 0.666667)" d="M 718.511,972.023 L 723.174,960.958 L 741.632,975.054 L 947.411,1330.05 L 942.774,1341.16 L 924.401,1327.23 L 718.511,972.023 Z " />
<path stroke="none" fill="#000000" transform="matrix(0.0666667 0 0 0.0666667 -0.8 0.666667)" d="M 952.341,1348.54 L 942.774,1341.16 L 947.411,1330.05 L 1358.03,1222.48 L 1367.48,1229.89 L 1362.84,1241 L 952.341,1348.54 Z " />
<path stroke="none" fill="#000000" transform="matrix(0.0666667 0 0 0.0666667 -0.8 0.666667)" d="M 1385.93,1243.99 L 1367.48,1229.89 L 1376.94,1222.49 L 1771.24,1327.06 L 1789.7,1341.16 L 1780.23,1348.56 L 1385.93,1243.99 Z " />
<path stroke="none" fill="#000000" transform="matrix(0.0666667 0 0 0.0666667 -0.8 0.666667)" d="M 1794.31,1330.02 L 1789.7,1341.16 L 1771.24,1327.06 L 1565.46,972.066 L 1570.1,960.958 L 1587.77,973.546 L 1794.31,1330.02 Z " />
<path stroke="none" fill="#000000" transform="matrix(0.0666667 0 0 0.0666667 -0.8 0.666667)" d="M 1560.64,953.54 L 1570.1,960.958 L 1565.46,972.066 L 1417.73,1010.77 L 1417.74,990.945 L 1560.64,953.54 L 1560.64,953.54 Z " />
<path stroke="none" fill="#000000" transform="matrix(0.0666667 0 0 0.0666667 -0.8 0.666667)" d="M 1154.85,1079.64 L 1145.39,1072.22 L 1148.05,1061.54 L 1317.52,1017.18 L 1317.51,1037.02 L 1154.85,1079.64 L 1154.85,1079.64 Z " />
<path stroke="none" fill="#000000" transform="matrix(0.0666667 0 0 0.0666667 -0.8 0.666667)" d="M 1119.08,1056.43 L 1145.39,1072.22 L 1135.92,1079.62 L 741.632,975.054 L 723.174,960.958 L 732.634,953.553 L 1119.08,1056.43 Z " />
<path stroke="none" fill="#000000" transform="matrix(0.0666667 0 0 0.0666667 -0.8 0.666667)" d="M 1799.16,1348.53 L 1789.7,1341.16 L 1794.31,1330.02 L 1961.1,1285.34 L 1961.1,1305.15 L 1799.16,1348.53 L 1799.16,1348.53 Z " />
<path stroke="none" fill="#000000" transform="matrix(0.0666667 0 0 0.0666667 -0.8 0.666667)" d="M 2204.36,1220.17 L 2213.82,1227.55 L 2209.21,1238.69 L 2061.3,1278.31 L 2061.3,1258.5 L 2204.36,1220.17 L 2204.36,1220.17 Z " />
<path stroke="none" fill="#000000" transform="matrix(0.0666667 0 0 0.0666667 -0.8 0.666667)" d="M 1362.84,1241 L 1367.48,1229.89 L 1385.93,1243.99 L 1591.7,1599.1 L 1587.08,1610.24 L 1569.73,1598.27 L 1362.84,1241 Z " />
<path stroke="none" fill="#000000" transform="matrix(0.0666667 0 0 0.0666667 -0.8 0.666667)" d="M 1596.55,1617.61 L 1587.08,1610.24 L 1591.7,1599.1 L 2001.74,1489.11 L 2011.2,1496.49 L 2006.72,1507.6 L 1596.55,1617.61 Z " />
<path stroke="none" fill="#000000" transform="matrix(0.0666667 0 0 0.0666667 -0.8 0.666667)" d="M 2029.22,1510.59 L 2011.2,1496.49 L 2020.66,1489.11 L 2416.63,1596.02 L 2435.18,1610.24 L 2430.75,1619.21 L 2029.22,1510.59 Z " />
<path stroke="none" fill="#000000" transform="matrix(0.0666667 0 0 0.0666667 -0.8 0.666667)" d="M 2209.21,1238.69 L 2213.82,1227.55 L 2232.36,1241.76 L 2442.69,1603.64 L 2435.18,1610.24 L 2416.63,1596.02 L 2209.21,1238.69 Z " />
<text x="0" y="0" stroke="none" fill="#000000" transform="matrix(0.0666667 0 0 0.0666667 41.7463 38.2936)" font-style="normal" font-weight="normal" font-size="140px" font-family="EB Garamond" >
(L)</text>
<path stroke="none" fill="#000000" transform="matrix(0.0666667 0 0 0.0666667 -0.8 0.666667)" d="M 732.634,953.553 L 723.174,960.958 L 713.708,953.671 L 713.274,628.27 L 733.074,628.27 L 732.634,953.553 Z " />
<text x="0" y="0" stroke="none" fill="#000000" transform="matrix(0.0666667 0 0 0.0666667 3.07932 75.1376)" font-style="normal" font-weight="normal" font-size="140px" font-family="EB Garamond" >
(C)O</text>
<path stroke="none" fill="#000000" transform="matrix(0.0666667 0 0 0.0666667 -0.8 0.666667)" d="M 713.708,953.671 L 723.174,960.958 L 718.511,972.023 L 388.777,1060.81 L 383.652,1041.69 L 713.708,953.671 Z " />
<path stroke="none" fill="#000000" transform="matrix(0.0666667 0 0 0.0666667 -0.8 0.666667)" d="M 933.202,1348.42 L 942.774,1341.16 L 952.341,1348.54 L 952.942,1786.3 L 933.122,1774.87 L 933.202,1348.42 Z " />
<text x="0" y="0" stroke="none" fill="#000000" transform="matrix(0.0666667 0 0 0.0666667 19.7042 136.821)" font-style="normal" font-weight="normal" font-size="140px" font-family="EB Garamond" >
(H)O</text>
<path stroke="none" fill="#000000" transform="matrix(0.0666667 0 0 0.0666667 -0.8 0.666667)" d="M 933.122,1774.87 L 952.942,1786.3 L 647.532,1962.2 L 637.634,1945.06 L 933.122,1774.87 Z " />
<text x="0" y="0" stroke="none" fill="#000000" transform="matrix(0.0666667 0 0 0.0666667 15.8289 85.3368)" font-style="normal" font-weight="normal" font-size="140px" font-family="EB Garamond" >
(Y)</text>
<text x="0" y="0" stroke="none" fill="#000000" transform="matrix(0.0666667 0 0 0.0666667 27.1036 89.0035)" font-style="normal" font-weight="normal" font-size="105px" font-family="EB Garamond" >
3</text>
<text x="0" y="0" stroke="none" fill="#000000" transform="matrix(0.0666667 0 0 0.0666667 30.4636 85.3368)" font-style="normal" font-weight="normal" font-size="140px" font-family="EB Garamond" >
C</text>
<path stroke="none" fill="#000000" transform="matrix(0.0666667 0 0 0.0666667 -0.8 0.666667)" d="M 924.401,1327.23 L 942.774,1341.16 L 933.202,1348.42 L 598.763,1259.26 L 603.886,1240.13 L 924.401,1327.23 Z " />
<text x="0" y="0" stroke="none" fill="#000000" transform="matrix(0.0666667 0 0 0.0666667 49.8165 59.9018)" font-style="normal" font-weight="normal" font-size="140px" font-family="EB Garamond" >
(T)</text>
<path stroke="none" fill="#000000" transform="matrix(0.0666667 0 0 0.0666667 -0.8 0.666667)" d="M 1148.05,1061.54 L 1145.39,1072.22 L 1119.08,1056.43 L 968.731,909.561 L 982.731,895.56 L 1148.05,1061.54 Z " />
<text x="0" y="0" stroke="none" fill="#000000" transform="matrix(0.0666667 0 0 0.0666667 83.1702 56.2227)" font-style="normal" font-weight="normal" font-size="140px" font-family="EB Garamond" >
(W)</text>
<path stroke="none" fill="#000000" transform="matrix(0.0666667 0 0 0.0666667 -0.8 0.666667)" d="M 1376.94,1222.49 L 1367.48,1229.89 L 1358.03,1222.48 L 1357.8,897.201 L 1377.6,897.214 L 1376.94,1222.49 Z " />
<text x="0" y="0" stroke="none" fill="#000000" transform="matrix(0.0666667 0 0 0.0666667 97.6339 38.2936)" font-style="normal" font-weight="normal" font-size="140px" font-family="EB Garamond" >
(X)</text>
<path stroke="none" fill="#000000" transform="matrix(0.0666667 0 0 0.0666667 -0.8 0.666667)" d="M 1579.59,954.125 L 1570.1,960.958 L 1560.64,953.54 L 1560.2,628.27 L 1580,628.27 L 1579.59,954.125 Z " />
<text x="0" y="0" stroke="none" fill="#000000" transform="matrix(0.0666667 0 0 0.0666667 117.375 71.5755)" font-style="normal" font-weight="normal" font-size="140px" font-family="EB Garamond" >
(S)</text>
<path stroke="none" fill="#000000" transform="matrix(0.0666667 0 0 0.0666667 -0.8 0.666667)" d="M 1587.77,973.546 L 1570.1,960.958 L 1579.59,954.125 L 1740.59,996.391 L 1735.46,1015.52 L 1587.77,973.546 Z " />
<text x="0" y="0" stroke="none" fill="#000000" transform="matrix(0.0666667 0 0 0.0666667 98.9294 140.12)" font-style="normal" font-weight="normal" font-size="140px" font-family="EB Garamond" >
(V)</text>
<path stroke="none" fill="#000000" transform="matrix(0.0666667 0 0 0.0666667 -0.8 0.666667)" d="M 1577.57,1616.84 L 1587.08,1610.24 L 1596.55,1617.61 L 1596.98,1947.26 L 1577.18,1947.26 L 1577.57,1616.84 Z " />
<text x="0" y="0" stroke="none" fill="#000000" transform="matrix(0.0666667 0 0 0.0666667 81.2222 107.442)" font-style="normal" font-weight="normal" font-size="140px" font-family="EB Garamond" >
(R)</text>
<path stroke="none" fill="#000000" transform="matrix(0.0666667 0 0 0.0666667 -0.8 0.666667)" d="M 1569.73,1598.27 L 1587.08,1610.24 L 1577.57,1616.84 L 1450.02,1583.76 L 1455.14,1564.64 L 1569.73,1598.27 Z " />
<text x="0" y="0" stroke="none" fill="#000000" transform="matrix(0.0666667 0 0 0.0666667 127.764 73.9957)" font-style="normal" font-weight="normal" font-size="140px" font-family="EB Garamond" >
(P)</text>
<path stroke="none" fill="#000000" transform="matrix(0.0666667 0 0 0.0666667 -0.8 0.666667)" d="M 2020.66,1489.11 L 2011.2,1496.49 L 2001.74,1489.11 L 2001.3,1163.8 L 2021.1,1163.8 L 2020.66,1489.11 Z " />
<text x="0" y="0" stroke="none" fill="#000000" transform="matrix(0.0666667 0 0 0.0666667 141.41 128.622)" font-style="normal" font-weight="normal" font-size="140px" font-family="EB Garamond" >
(O)</text>
<path stroke="none" fill="#000000" transform="matrix(0.0666667 0 0 0.0666667 -0.8 0.666667)" d="M 2006.72,1507.6 L 2011.2,1496.49 L 2029.22,1510.59 L 2176.19,1762.64 L 2159.05,1772.53 L 2006.72,1507.6 Z " />
<text x="0" y="0" stroke="none" fill="#000000" transform="matrix(0.0666667 0 0 0.0666667 140.287 56.0665)" font-style="normal" font-weight="normal" font-size="140px" font-family="EB Garamond" >
(Q)</text>
<path stroke="none" fill="#000000" transform="matrix(0.0666667 0 0 0.0666667 -0.8 0.666667)" d="M 2223.27,1220.17 L 2213.82,1227.55 L 2204.36,1220.17 L 2203.92,899.865 L 2223.72,899.865 L 2223.27,1220.17 Z " />
<path stroke="none" fill="#000000" transform="matrix(0.0666667 0 0 0.0666667 -0.8 0.666667)" d="M 2430.75,1619.21 L 2435.18,1610.24 L 2442.69,1603.64 L 2796.32,1873.97 L 2773.83,1881.85 L 2430.75,1619.21 Z " />
<path stroke="none" fill="#000000" transform="matrix(0.0666667 0 0 0.0666667 -0.8 0.666667)" d="M 2469.52,1582.64 L 2481.56,1566.93 L 2801.21,1811.8 L 2789.17,1827.52 L 2469.52,1582.64 Z " />
<text x="0" y="0" stroke="none" fill="#000000" transform="matrix(0.0666667 0 0 0.0666667 171.638 156.926)" font-style="normal" font-weight="normal" font-size="140px" font-family="EB Garamond" >
(E)</text>
<path stroke="none" fill="#000000" transform="matrix(0.0666667 0 0 0.0666667 -0.8 0.666667)" d="M 2773.83,1881.85 L 2796.32,1873.97 L 2757.34,2207.79 L 2641.42,2176.75 L 2773.83,1881.85 Z " />
<text x="0" y="0" stroke="none" fill="#000000" transform="matrix(0.0666667 0 0 0.0666667 211.588 121.078)" font-style="normal" font-weight="normal" font-size="140px" font-family="EB Garamond" >
(F)</text>
<path stroke="none" fill="#000000" transform="matrix(0.0666667 0 0 0.0666667 -0.8 0.666667)" d="M 2838.39,1872.89 L 2833.27,1853.76 L 2851.61,1845.71 L 2858.3,1870.7 L 2838.39,1872.89 Z " />
<path stroke="none" fill="#000000" transform="matrix(0.0666667 0 0 0.0666667 -0.8 0.666667)" d="M 2900.15,1866.09 L 2890.16,1828.78 L 2908.5,1820.73 L 2920.06,1863.9 L 2900.15,1866.09 Z " />
<path stroke="none" fill="#000000" transform="matrix(0.0666667 0 0 0.0666667 -0.8 0.666667)" d="M 2961.91,1859.29 L 2947.05,1803.8 L 2965.39,1795.74 L 2981.82,1857.1 L 2961.91,1859.29 Z " />
<path stroke="none" fill="#000000" transform="matrix(0.0666667 0 0 0.0666667 -0.8 0.666667)" d="M 3023.67,1852.49 L 3003.94,1778.81 L 3022.28,1770.76 L 3043.58,1850.3 L 3023.67,1852.49 Z " />
<path stroke="none" fill="#000000" transform="matrix(0.0666667 0 0 0.0666667 -0.8 0.666667)" d="M 3085.43,1845.7 L 3060.82,1753.83 L 3079.16,1745.78 L 3105.34,1843.5 L 3085.43,1845.7 Z " />
<path stroke="none" fill="#000000" transform="matrix(0.0666667 0 0 0.0666667 -0.8 0.666667)" d="M 3147.19,1838.9 L 3117.71,1728.85 L 3136.05,1720.79 L 3167.1,1836.71 L 3147.19,1838.9 Z " />
<path stroke="none" fill="#000000" transform="matrix(0.0666667 0 0 0.0666667 -0.8 0.666667)" d="M 2232.36,1241.76 L 2213.82,1227.55 L 2223.27,1220.17 L 2637.79,1331.03 L 2637.79,1351.53 L 2232.36,1241.76 Z " />
<path stroke="none" fill="#000000" transform="matrix(0.0666667 0 0 0.0666667 -0.8 0.666667)" d="M 2637.79,1351.53 L 2637.79,1331.03 L 3056.85,1218.78 L 3061.91,1227.55 L 3057.99,1238.54 L 2637.79,1351.53 Z " />
<path stroke="none" fill="#000000" transform="matrix(0.0666667 0 0 0.0666667 -0.8 0.666667)" d="M 3073.4,1229.65 L 3061.91,1227.55 L 3056.85,1218.78 L 3362.1,913.826 L 3372.43,917.184 L 3375.78,927.513 L 3073.4,1229.65 Z " />
<path stroke="none" fill="#000000" transform="matrix(0.0666667 0 0 0.0666667 -0.8 0.666667)" d="M 3134.76,1243.23 L 3120.76,1229.23 L 3383.69,966.414 L 3397.69,980.418 L 3134.76,1243.23 Z " />
<text x="0" y="0" stroke="none" fill="#000000" transform="matrix(0.0666667 0 0 0.0666667 206.251 101.086)" font-style="normal" font-weight="normal" font-size="140px" font-family="EB Garamond" >
(A)</text>
<path stroke="none" fill="#000000" transform="matrix(0.0666667 0 0 0.0666667 -0.8 0.666667)" d="M 3057.99,1238.54 L 3061.91,1227.55 L 3073.4,1229.65 L 3145.05,1351.76 L 3127.91,1361.66 L 3057.99,1238.54 Z " />
<text x="0" y="0" stroke="none" fill="#000000" transform="matrix(0.0666667 0 0 0.0666667 262.67 43.1443)" font-style="normal" font-weight="normal" font-size="140px" font-family="EB Garamond" >
O</text>
<path stroke="none" fill="#000000" transform="matrix(0.0666667 0 0 0.0666667 -0.8 0.666667)" d="M 3375.78,927.513 L 3372.43,917.184 L 3380.81,908.805 L 3800.76,975.297 L 3811.88,997.133 L 3375.78,927.513 Z " />
<path stroke="none" fill="#000000" transform="matrix(0.0666667 0 0 0.0666667 -0.8 0.666667)" d="M 3811.88,997.133 L 3800.76,975.297 L 3960.4,661.261 L 3978.04,670.253 L 3811.88,997.133 Z " />
<path stroke="none" fill="#000000" transform="matrix(0.0666667 0 0 0.0666667 -0.8 0.666667)" d="M 3946.33,521.534 L 3932.33,535.534 L 3693.18,295.814 L 3697.01,271.61 L 3946.33,521.534 Z " />
<path stroke="none" fill="#000000" transform="matrix(0.0666667 0 0 0.0666667 -0.8 0.666667)" d="M 3697.01,271.61 L 3693.18,295.814 L 3314.32,488.781 L 3303.77,483.401 L 3307.33,470.924 L 3697.01,271.61 Z " />
<path stroke="none" fill="#000000" transform="matrix(0.0666667 0 0 0.0666667 -0.8 0.666667)" d="M 3295.61,492.842 L 3303.77,483.401 L 3314.32,488.781 L 3380.81,908.805 L 3372.43,917.184 L 3362.1,913.826 L 3295.61,492.842 Z " />
<text x="0" y="0" stroke="none" fill="#000000" transform="matrix(0.0666667 0 0 0.0666667 262.67 95.3018)" font-style="normal" font-weight="normal" font-size="140px" font-family="EB Garamond" >
O</text>
<path stroke="none" fill="#000000" transform="matrix(0.0666667 0 0 0.0666667 -0.8 0.666667)" d="M 3812.03,961.337 L 3829.67,952.345 L 3994.25,1275.22 L 3976.61,1284.21 L 3812.03,961.337 Z " />
<path stroke="none" fill="#000000" transform="matrix(0.0666667 0 0 0.0666667 -0.8 0.666667)" d="M 3765.08,985.248 L 3782.72,976.257 L 3947.31,1299.15 L 3929.67,1308.14 L 3765.08,985.248 Z " />
<text x="0" y="0" stroke="none" fill="#000000" transform="matrix(0.0666667 0 0 0.0666667 198.352 10.38)" font-style="normal" font-weight="normal" font-size="140px" font-family="EB Garamond" >
(D)</text>
<path stroke="none" fill="#000000" transform="matrix(0.0666667 0 0 0.0666667 -0.8 0.666667)" d="M 3307.33,470.924 L 3303.77,483.401 L 3288.27,474.371 L 3140.46,220.463 L 3157.61,210.56 L 3307.33,470.924 Z " />
<text x="0" y="0" stroke="none" fill="#000000" transform="matrix(0.0666667 0 0 0.0666667 175.262 35.7267)" font-style="normal" font-weight="normal" font-size="140px" font-family="EB Garamond" >
(B)O</text>
<path stroke="none" fill="#000000" transform="matrix(0.0666667 0 0 0.0666667 -0.8 0.666667)" d="M 3288.27,474.371 L 3303.77,483.401 L 3295.61,492.842 L 2951.12,493.3 L 2951.12,473.501 L 3288.27,474.371 Z " />
<path stroke="none" fill="#000000" transform="matrix(0.0666667 0 0 0.0666667 -0.8 0.666667)" d="M 6525.98,1438.71 L 6534.08,1407.65 L 6543.55,1415.02 L 6543.89,1677.67 L 6524.57,1682.84 L 6525.98,1438.71 L 6525.98,1438.71 Z " />
<text x="0" y="0" stroke="none" fill="#000000" transform="matrix(0.0666667 0 0 0.0666667 427.661 126.893)" font-style="normal" font-weight="normal" font-size="140px" font-family="EB Garamond" >
(M)</text>
<text x="0" y="0" stroke="none" fill="#000000" transform="matrix(0.0666667 0 0 0.0666667 339.563 196.809)" font-style="normal" font-weight="normal" font-size="140px" font-family="EB Garamond" >
N</text>
<path stroke="none" fill="#000000" transform="matrix(0.0666667 0 0 0.0666667 -0.8 0.666667)" d="M 5151.31,2462 L 5160.89,2456.38 L 5170.47,2462 L 5170.79,2804.6 L 5150.99,2804.6 L 5151.31,2462 Z " />
<path stroke="none" fill="#000000" transform="matrix(0.0666667 0 0 0.0666667 -0.8 0.666667)" d="M 5204.18,2487.09 L 5223.98,2487.09 L 5223.98,2804.6 L 5204.18,2804.6 L 5204.18,2487.09 Z " />
<path stroke="none" fill="#000000" transform="matrix(0.0666667 0 0 0.0666667 -0.8 0.666667)" d="M 5237.26,2955.16 L 5247.16,2938.02 L 5544.67,3110.15 L 5544.68,3133.04 L 5237.26,2955.16 Z " />
<path stroke="none" fill="#000000" transform="matrix(0.0666667 0 0 0.0666667 -0.8 0.666667)" d="M 5544.68,3133.04 L 5544.67,3110.15 L 5918.95,2894.06 L 5938.76,2905.5 L 5544.68,3133.04 Z " />
<path stroke="none" fill="#000000" transform="matrix(0.0666667 0 0 0.0666667 -0.8 0.666667)" d="M 5549.69,3068.42 L 5539.79,3051.27 L 5870.46,2860.35 L 5880.36,2877.5 L 5549.69,3068.42 Z " />
<path stroke="none" fill="#000000" transform="matrix(0.0666667 0 0 0.0666667 -0.8 0.666667)" d="M 5938.76,2905.5 L 5918.95,2894.06 L 5918.95,2461.95 L 5928.6,2456.38 L 5938.25,2461.95 L 5938.76,2905.5 Z " />
<path stroke="none" fill="#000000" transform="matrix(0.0666667 0 0 0.0666667 -0.8 0.666667)" d="M 5928.6,2445.24 L 5928.6,2456.38 L 5918.95,2461.95 L 5544.74,2245.9 L 5544.74,2234.76 L 5554.39,2229.18 L 5928.6,2445.24 Z " />
<path stroke="none" fill="#000000" transform="matrix(0.0666667 0 0 0.0666667 -0.8 0.666667)" d="M 5880.36,2478.52 L 5870.46,2495.66 L 5539.79,2304.75 L 5549.69,2287.6 L 5880.36,2478.52 Z " />
<path stroke="none" fill="#000000" transform="matrix(0.0666667 0 0 0.0666667 -0.8 0.666667)" d="M 5535.09,2229.18 L 5544.74,2234.76 L 5544.74,2245.9 L 5170.47,2462 L 5160.89,2456.38 L 5160.89,2445.24 L 5535.09,2229.18 Z " />
<path stroke="none" fill="#000000" transform="matrix(0.0666667 0 0 0.0666667 -0.8 0.666667)" d="M 5554.39,2229.18 L 5544.74,2234.76 L 5535.09,2229.18 L 5535.09,1797.08 L 5554.91,1785.64 L 5554.39,2229.18 Z " />
<path stroke="none" fill="#000000" transform="matrix(0.0666667 0 0 0.0666667 -0.8 0.666667)" d="M 5554.91,1785.64 L 5535.09,1797.08 L 5160.89,1581.02 L 5160.89,1569.88 L 5170.48,1564.27 L 5554.91,1785.64 Z " />
<path stroke="none" fill="#000000" transform="matrix(0.0666667 0 0 0.0666667 -0.8 0.666667)" d="M 5496.5,1813.64 L 5486.6,1830.79 L 5155.94,1639.87 L 5165.84,1622.72 L 5496.5,1813.64 Z " />
<path stroke="none" fill="#000000" transform="matrix(0.0666667 0 0 0.0666667 -0.8 0.666667)" d="M 5151.29,1564.27 L 5160.89,1569.88 L 5160.89,1581.02 L 4786.68,1797.08 L 4766.87,1785.64 L 5151.29,1564.27 Z " />
<path stroke="none" fill="#000000" transform="matrix(0.0666667 0 0 0.0666667 -0.8 0.666667)" d="M 4766.87,1785.64 L 4786.68,1797.08 L 4786.68,2229.18 L 4766.87,2240.62 L 4766.87,1785.64 Z " />
<path stroke="none" fill="#000000" transform="matrix(0.0666667 0 0 0.0666667 -0.8 0.666667)" d="M 4820.32,1822.21 L 4840.12,1822.21 L 4840.12,2204.05 L 4820.32,2204.05 L 4820.32,1822.21 Z " />
<path stroke="none" fill="#000000" transform="matrix(0.0666667 0 0 0.0666667 -0.8 0.666667)" d="M 4766.87,2240.62 L 4786.68,2229.18 L 5160.89,2445.24 L 5160.89,2456.38 L 5151.31,2462 L 4766.87,2240.62 Z " />
<text x="0" y="0" stroke="none" fill="#000000" transform="matrix(0.0666667 0 0 0.0666667 339.699 78.6084)" font-style="normal" font-weight="normal" font-size="140px" font-family="EB Garamond" >
OMe</text>
<path stroke="none" fill="#000000" transform="matrix(0.0666667 0 0 0.0666667 -0.8 0.666667)" d="M 5170.48,1564.27 L 5160.89,1569.88 L 5151.29,1564.27 L 5150.99,1204.83 L 5170.79,1204.83 L 5170.48,1564.27 Z " />
<path stroke="none" fill="#000000" transform="matrix(0.0666667 0 0 0.0666667 -0.8 0.666667)" d="M 5938.25,2461.95 L 5928.6,2456.38 L 5928.6,2445.24 L 6302.81,2229.18 L 6312.46,2234.76 L 6310.45,2246.94 L 5938.25,2461.95 Z " />
<path stroke="none" fill="#000000" transform="matrix(0.0666667 0 0 0.0666667 -0.8 0.666667)" d="M 6322.31,2233.81 L 6312.46,2234.76 L 6302.81,2229.18 L 6302.8,1797.02 L 6312.46,1791.5 L 6322.03,1798.75 L 6322.31,2233.81 Z " />
<text x="0" y="0" stroke="none" fill="#000000" transform="matrix(0.0666667 0 0 0.0666667 442.06 167.259)" font-style="normal" font-weight="normal" font-size="140px" font-family="EB Garamond" >
OH</text>
<path stroke="none" fill="#000000" transform="matrix(0.0666667 0 0 0.0666667 -0.8 0.666667)" d="M 6354.15,2270.26 L 6364.05,2253.12 L 6382.87,2260.13 L 6369.63,2283.05 L 6354.15,2270.26 Z " />
<path stroke="none" fill="#000000" transform="matrix(0.0666667 0 0 0.0666667 -0.8 0.666667)" d="M 6397.58,2306.14 L 6416.84,2272.79 L 6435.65,2279.8 L 6413.06,2318.93 L 6397.58,2306.14 Z " />
<path stroke="none" fill="#000000" transform="matrix(0.0666667 0 0 0.0666667 -0.8 0.666667)" d="M 6441.01,2342.01 L 6469.62,2292.47 L 6488.43,2299.48 L 6456.49,2354.8 L 6441.01,2342.01 Z " />
<path stroke="none" fill="#000000" transform="matrix(0.0666667 0 0 0.0666667 -0.8 0.666667)" d="M 6484.44,2377.89 L 6522.4,2312.14 L 6541.22,2319.15 L 6499.92,2390.68 L 6484.44,2377.89 Z " />
<path stroke="none" fill="#000000" transform="matrix(0.0666667 0 0 0.0666667 -0.8 0.666667)" d="M 6527.87,2413.77 L 6575.19,2331.82 L 6594,2338.83 L 6543.35,2426.55 L 6527.87,2413.77 Z " />
<path stroke="none" fill="#000000" transform="matrix(0.0666667 0 0 0.0666667 -0.8 0.666667)" d="M 6571.31,2449.64 L 6627.97,2351.49 L 6646.79,2358.51 L 6586.79,2462.43 L 6571.31,2449.64 Z " />
<text x="0" y="0" stroke="none" fill="#000000" transform="matrix(0.0666667 0 0 0.0666667 385.251 108.159)" font-style="normal" font-weight="normal" font-size="140px" font-family="EB Garamond" >
(F)</text>
<path stroke="none" fill="#000000" transform="matrix(0.0666667 0 0 0.0666667 -0.8 0.666667)" d="M 6308.95,1778.62 L 6312.46,1791.5 L 6302.8,1797.02 L 5981.41,1611.8 L 5991.31,1594.66 L 6308.95,1778.62 Z " />
<path stroke="none" fill="#000000" transform="matrix(0.0666667 0 0 0.0666667 -0.8 0.666667)" d="M 6330.82,1777.61 L 6312.46,1791.5 L 6308.95,1778.62 L 6521.17,1411.05 L 6534.08,1407.65 L 6525.98,1438.71 L 6330.82,1777.61 Z " />
<path stroke="none" fill="#000000" transform="matrix(0.0666667 0 0 0.0666667 -0.8 0.666667)" d="M 6824.04,1709.43 L 6829.16,1690.31 L 7164.15,1780.43 L 7168.82,1791.5 L 7159.34,1798.8 L 6824.04,1709.43 Z " />
<path stroke="none" fill="#000000" transform="matrix(0.0666667 0 0 0.0666667 -0.8 0.666667)" d="M 6543.55,1415.02 L 6534.08,1407.65 L 6535.41,1397.23 L 6690.54,1355.69 L 6690.54,1375.69 L 6543.55,1415.02 L 6543.55,1415.02 Z " />
<path stroke="none" fill="#000000" transform="matrix(0.0666667 0 0 0.0666667 -0.8 0.666667)" d="M 6952.69,1285.5 L 6962.26,1292.85 L 6962.26,1302.97 L 6790.74,1348.88 L 6790.74,1328.86 L 6952.69,1285.5 L 6952.69,1285.5 Z " />
<path stroke="none" fill="#000000" transform="matrix(0.0666667 0 0 0.0666667 -0.8 0.666667)" d="M 6962.26,1302.97 L 6962.26,1292.85 L 6971.84,1285.5 L 7389.82,1397.38 L 7390.45,1407.65 L 7376.25,1413.53 L 6962.26,1302.97 Z " />
<path stroke="none" fill="#000000" transform="matrix(0.0666667 0 0 0.0666667 -0.8 0.666667)" d="M 7187.26,1777.46 L 7168.82,1791.5 L 7164.15,1780.43 L 7376.25,1413.53 L 7390.45,1407.65 L 7382.35,1438.71 L 7187.26,1777.46 Z " />
<path stroke="none" fill="#000000" transform="matrix(0.0666667 0 0 0.0666667 -0.8 0.666667)" d="M 6750.54,1581.82 L 6730.74,1581.82 L 6731.05,1239.16 L 6740.64,1233.6 L 6750.22,1239.16 L 6750.54,1581.82 Z " />
<path stroke="none" fill="#000000" transform="matrix(0.0666667 0 0 0.0666667 -0.8 0.666667)" d="M 6971.84,1285.5 L 6962.26,1292.85 L 6952.69,1285.5 L 6953.01,1168.83 L 6971.86,1157.95 L 6971.84,1285.5 L 6971.84,1285.5 Z " />
<path stroke="none" fill="#000000" transform="matrix(0.0666667 0 0 0.0666667 -0.8 0.666667)" d="M 6953.78,881.271 L 6962.26,849.594 L 6971.92,855.112 L 6971.88,1042.23 L 6953.32,1052.95 L 6953.78,881.271 L 6953.78,881.271 Z " />
<path stroke="none" fill="#000000" transform="matrix(0.0666667 0 0 0.0666667 -0.8 0.666667)" d="M 6763.62,1210.8 L 6740.64,1233.6 L 6737.13,1220.72 L 6949.32,853.063 L 6962.26,849.594 L 6953.78,881.271 L 6763.62,1210.8 Z " />
<text x="0" y="0" stroke="none" fill="#000000" transform="matrix(0.0666667 0 0 0.0666667 487.471 45.3645)" font-style="normal" font-weight="normal" font-size="140px" font-family="EB Garamond" >
(J)</text>
<path stroke="none" fill="#000000" transform="matrix(0.0666667 0 0 0.0666667 -0.8 0.666667)" d="M 6971.92,855.112 L 6962.26,849.594 L 6962.31,838.475 L 7283.5,652.693 L 7293.4,669.84 L 6971.92,855.112 Z " />
<path stroke="none" fill="#000000" transform="matrix(0.0666667 0 0 0.0666667 -0.8 0.666667)" d="M 6962.31,838.475 L 6962.26,849.594 L 6949.32,853.063 L 6575.79,637.751 L 6578.41,627.968 L 6589.44,623.281 L 6962.31,838.475 Z " />
<text x="0" y="0" stroke="none" fill="#000000" transform="matrix(0.0666667 0 0 0.0666667 517.721 86.0354)" font-style="normal" font-weight="normal" font-size="140px" font-family="EB Garamond" >
(L)</text>
<path stroke="none" fill="#000000" transform="matrix(0.0666667 0 0 0.0666667 -0.8 0.666667)" d="M 7399.97,1414.06 L 7390.45,1407.65 L 7389.82,1397.38 L 7739.28,1252.42 L 7746.85,1270.71 L 7399.97,1414.06 Z " />
<text x="0" y="0" stroke="none" fill="#000000" transform="matrix(0.0666667 0 0 0.0666667 398.449 82.5682)" font-style="normal" font-weight="normal" font-size="140px" font-family="EB Garamond" >
(K)</text>
<path stroke="none" fill="#000000" transform="matrix(0.0666667 0 0 0.0666667 -0.8 0.666667)" d="M 6535.41,1397.23 L 6534.08,1407.65 L 6521.17,1411.05 L 6203.06,1227.96 L 6212.96,1210.81 L 6535.41,1397.23 Z " />
<text x="0" y="0" stroke="none" fill="#000000" transform="matrix(0.0666667 0 0 0.0666667 485.26 126.893)" font-style="normal" font-weight="normal" font-size="140px" font-family="EB Garamond" >
(N)</text>
<path stroke="none" fill="#000000" transform="matrix(0.0666667 0 0 0.0666667 -0.8 0.666667)" d="M 7382.35,1438.71 L 7390.45,1407.65 L 7399.97,1414.06 L 7400.27,1677.64 L 7380.93,1682.82 L 7382.35,1438.71 L 7382.35,1438.71 Z " />
<path stroke="none" fill="#000000" transform="matrix(0.0666667 0 0 0.0666667 -0.8 0.666667)" d="M 6571.19,618.391 L 6578.41,627.968 L 6575.79,637.751 L 6140.61,637.624 L 6135.16,627.968 L 6140.6,618.311 L 6571.19,618.391 Z " />
<path stroke="none" fill="#000000" transform="matrix(0.0666667 0 0 0.0666667 -0.8 0.666667)" d="M 6564.15,671.259 L 6564.15,691.058 L 6165.87,691.058 L 6165.87,671.259 L 6564.15,671.259 Z " />
<text x="0" y="0" stroke="none" fill="#000000" transform="matrix(0.0666667 0 0 0.0666667 387.182 70.9648)" font-style="normal" font-weight="normal" font-size="140px" font-family="EB Garamond" >
(C)</text>
<path stroke="none" fill="#000000" transform="matrix(0.0666667 0 0 0.0666667 -0.8 0.666667)" d="M 6124.12,627.963 L 6135.16,627.968 L 6140.61,637.624 L 5984.33,909.109 L 5967.18,899.212 L 6124.12,627.963 Z " />
<text x="0" y="0" stroke="none" fill="#000000" transform="matrix(0.0666667 0 0 0.0666667 386.977 19.7741)" font-style="normal" font-weight="normal" font-size="140px" font-family="EB Garamond" >
(D)</text>
<path stroke="none" fill="#000000" transform="matrix(0.0666667 0 0 0.0666667 -0.8 0.666667)" d="M 6140.6,618.311 L 6135.16,627.968 L 6124.12,627.963 L 5969.81,361.381 L 5986.95,351.481 L 6140.6,618.311 Z " />
<text x="0" y="0" stroke="none" fill="#000000" transform="matrix(0.0666667 0 0 0.0666667 439.235 16.829)" font-style="normal" font-weight="normal" font-size="140px" font-family="EB Garamond" >
(A)</text>
<path stroke="none" fill="#000000" transform="matrix(0.0666667 0 0 0.0666667 -0.8 0.666667)" d="M 6589.44,623.281 L 6578.41,627.968 L 6571.19,618.391 L 6652.51,313.072 L 6671.63,318.195 L 6589.44,623.281 Z " />
<text x="0" y="0" stroke="none" fill="#000000" transform="matrix(0.0666667 0 0 0.0666667 444.88 115.29)" font-style="normal" font-weight="normal" font-size="140px" font-family="EB Garamond" >
N</text>
<path stroke="none" fill="#000000" transform="matrix(0.0666667 0 0 0.0666667 -0.8 0.666667)" d="M 6322.03,1798.75 L 6312.46,1791.5 L 6330.82,1777.61 L 6643.14,1692.71 L 6648.26,1711.83 L 6322.03,1798.75 Z " />
<text x="0" y="0" stroke="none" fill="#000000" transform="matrix(0.0666667 0 0 0.0666667 472.696 70.9648)" font-style="normal" font-weight="normal" font-size="140px" font-family="EB Garamond" >
(G)</text>
<path stroke="none" fill="#000000" transform="matrix(0.0666667 0 0 0.0666667 -0.8 0.666667)" d="M 6750.22,1239.16 L 6740.64,1233.6 L 6763.62,1210.8 L 7061.87,1036.7 L 7071.77,1053.84 L 6750.22,1239.16 Z " />
<text x="0" y="0" stroke="none" fill="#000000" transform="matrix(0.0666667 0 0 0.0666667 411.015 70.9648)" font-style="normal" font-weight="normal" font-size="140px" font-family="EB Garamond" >
(H)</text>
<path stroke="none" fill="#000000" transform="matrix(0.0666667 0 0 0.0666667 -0.8 0.666667)" d="M 6737.13,1220.72 L 6740.64,1233.6 L 6731.05,1239.16 L 6409.57,1053.88 L 6419.47,1036.74 L 6737.13,1220.72 Z " />
<text x="0" y="0" stroke="none" fill="#000000" transform="matrix(0.0666667 0 0 0.0666667 429.126 178.074)" font-style="normal" font-weight="normal" font-size="140px" font-family="EB Garamond" >
(B)</text>
<path stroke="none" fill="#000000" transform="matrix(0.0666667 0 0 0.0666667 -0.8 0.666667)" d="M 6310.45,2246.94 L 6312.46,2234.76 L 6322.31,2233.81 L 6526.05,2484.71 L 6422.13,2544.71 L 6310.45,2246.94 Z " />
<text x="0" y="0" stroke="none" fill="#000000" transform="matrix(0.0666667 0 0 0.0666667 504.187 115.29)" font-style="normal" font-weight="normal" font-size="140px" font-family="EB Garamond" >
(E)</text>
<path stroke="none" fill="#000000" transform="matrix(0.0666667 0 0 0.0666667 -0.8 0.666667)" d="M 7178.29,1798.83 L 7168.82,1791.5 L 7187.26,1777.46 L 7537.99,1682.37 L 7543.12,1701.49 L 7178.29,1798.83 Z " />
<text x="0" y="0" stroke="none" fill="#000000" transform="matrix(0.0666667 0 0 0.0666667 472.595 152.484)" font-style="normal" font-weight="normal" font-size="140px" font-family="EB Garamond" >
(I)</text>
<path stroke="none" fill="#000000" transform="matrix(0.0666667 0 0 0.0666667 -0.8 0.666667)" d="M 7159.34,1798.8 L 7168.82,1791.5 L 7178.29,1798.83 L 7178.72,2132.72 L 7158.92,2132.72 L 7159.34,1798.8 Z " />
<text x="0" y="0" stroke="none" fill="#000000" transform="matrix(0.0666667 0 0 0.0666667 21.2085 335.604)" font-style="normal" font-weight="normal" font-size="140px" font-family="EB Garamond" >
O</text>
<text x="0" y="0" stroke="none" fill="#000000" transform="matrix(0.0666667 0 0 0.0666667 248.17 262.328)" font-style="normal" font-weight="normal" font-size="140px" font-family="EB Garamond" >
C(Y)</text>
<text x="0" y="0" stroke="none" fill="#000000" transform="matrix(0.0666667 0 0 0.0666667 266.072 265.995)" font-style="normal" font-weight="normal" font-size="105px" font-family="EB Garamond" >
3</text>
<text x="0" y="0" stroke="none" fill="#000000" transform="matrix(0.0666667 0 0 0.0666667 184.148 209.951)" font-style="normal" font-weight="normal" font-size="140px" font-family="EB Garamond" >
(E)O</text>
<text x="0" y="0" stroke="none" fill="#000000" transform="matrix(0.0666667 0 0 0.0666667 217.069 190.333)" font-style="normal" font-weight="normal" font-size="140px" font-family="EB Garamond" >
O</text>
<text x="0" y="0" stroke="none" fill="#000000" transform="matrix(0.0666667 0 0 0.0666667 173.761 218.363)" font-style="normal" font-weight="normal" font-size="140px" font-family="EB Garamond" >
C(X)</text>
<text x="0" y="0" stroke="none" fill="#000000" transform="matrix(0.0666667 0 0 0.0666667 192.867 222.03)" font-style="normal" font-weight="normal" font-size="105px" font-family="EB Garamond" >
3</text>
<text x="0" y="0" stroke="none" fill="#000000" transform="matrix(0.0666667 0 0 0.0666667 84.4391 233.018)" font-style="normal" font-weight="normal" font-size="140px" font-family="EB Garamond" >
(D)O</text>
<text x="0" y="0" stroke="none" fill="#000000" transform="matrix(0.0666667 0 0 0.0666667 123.91 306.294)" font-style="normal" font-weight="normal" font-size="140px" font-family="EB Garamond" >
F</text>
<text x="0" y="0" stroke="none" fill="#000000" transform="matrix(0.0666667 0 0 0.0666667 97.6038 262.328)" font-style="normal" font-weight="normal" font-size="140px" font-family="EB Garamond" >
C(T)</text>
<text x="0" y="0" stroke="none" fill="#000000" transform="matrix(0.0666667 0 0 0.0666667 116.364 265.995)" font-style="normal" font-weight="normal" font-size="105px" font-family="EB Garamond" >
3</text>
<text x="0" y="0" stroke="none" fill="#000000" transform="matrix(0.0666667 0 0 0.0666667 145.046 262.328)" font-style="normal" font-weight="normal" font-size="140px" font-family="EB Garamond" >
(N/O)</text>
<text x="0" y="0" stroke="none" fill="#000000" transform="matrix(0.0666667 0 0 0.0666667 171.559 306.294)" font-style="normal" font-weight="normal" font-size="140px" font-family="EB Garamond" >
(P/Q)</text>
<path stroke="none" fill="#000000" transform="matrix(0.0666667 0 0 0.0666667 -0.8 0.666667)" d="M 773.926,4756.16 L 754.113,4767.6 L 754.626,4327.59 L 764.277,4322.08 L 773.926,4327.65 L 773.926,4756.16 Z " />
<path stroke="none" fill="#000000" transform="matrix(0.0666667 0 0 0.0666667 -0.8 0.666667)" d="M 773.926,4327.65 L 764.277,4322.08 L 764.228,4310.96 L 1135.45,4096.63 L 1145.02,4102.25 L 1145.02,4113.39 L 773.926,4327.65 Z " />
<path stroke="none" fill="#000000" transform="matrix(0.0666667 0 0 0.0666667 -0.8 0.666667)" d="M 821.985,4361.11 L 812.084,4343.96 L 1140.07,4154.6 L 1149.97,4171.74 L 821.985,4361.11 Z " />
<path stroke="none" fill="#000000" transform="matrix(0.0666667 0 0 0.0666667 -0.8 0.666667)" d="M 785.705,4768.39 L 795.605,4785.53 L 481.656,4966.8 L 471.756,4949.65 L 785.705,4768.39 Z " />
<path stroke="none" fill="#000000" transform="matrix(0.0666667 0 0 0.0666667 -0.8 0.666667)" d="M 759.327,4722.7 L 769.227,4739.84 L 455.276,4921.11 L 445.376,4903.96 L 759.327,4722.7 Z " />
<path stroke="none" fill="#000000" transform="matrix(0.0666667 0 0 0.0666667 -0.8 0.666667)" d="M 754.113,4767.6 L 773.926,4756.16 L 1145.02,4970.42 L 1145.02,4981.56 L 1135.45,4987.18 L 754.113,4767.6 Z " />
<path stroke="none" fill="#000000" transform="matrix(0.0666667 0 0 0.0666667 -0.8 0.666667)" d="M 1154.59,4987.18 L 1145.02,4981.56 L 1145.02,4970.42 L 1516.11,4756.16 L 1525.76,4761.73 L 1525.76,4772.87 L 1154.59,4987.18 Z " />
<path stroke="none" fill="#000000" transform="matrix(0.0666667 0 0 0.0666667 -0.8 0.666667)" d="M 1149.97,4929.21 L 1140.07,4912.06 L 1468.05,4722.7 L 1477.95,4739.85 L 1149.97,4929.21 Z " />
<path stroke="none" fill="#000000" transform="matrix(0.0666667 0 0 0.0666667 -0.8 0.666667)" d="M 1525.76,4772.87 L 1525.76,4761.73 L 1535.41,4756.16 L 1906.5,4970.42 L 1906.5,4981.56 L 1900.88,4989.71 L 1525.76,4772.87 Z " />
<path stroke="none" fill="#000000" transform="matrix(0.0666667 0 0 0.0666667 -0.8 0.666667)" d="M 1917.97,4985.96 L 1906.5,4981.56 L 1906.5,4970.42 L 2277.59,4756.16 L 2287.24,4761.73 L 2285.27,4773.89 L 1917.97,4985.96 Z " />
<path stroke="none" fill="#000000" transform="matrix(0.0666667 0 0 0.0666667 -0.8 0.666667)" d="M 2297.1,4760.86 L 2287.24,4761.73 L 2277.59,4756.16 L 2277.59,4327.65 L 2287.24,4322.08 L 2296.89,4327.65 L 2297.1,4760.86 Z " />
<path stroke="none" fill="#000000" transform="matrix(0.0666667 0 0 0.0666667 -0.8 0.666667)" d="M 2296.89,4327.65 L 2287.24,4322.08 L 2294.06,4307.4 L 2658.47,4096.68 L 2668.12,4102.25 L 2669.23,4112.82 L 2296.89,4327.65 Z " />
<path stroke="none" fill="#000000" transform="matrix(0.0666667 0 0 0.0666667 -0.8 0.666667)" d="M 2669.23,4112.82 L 2668.12,4102.25 L 2677.71,4095.29 L 3082.57,4226.83 L 3086.23,4238.1 L 3077.87,4245.53 L 2669.23,4112.82 L 2669.23,4112.82 Z " />
<path stroke="none" fill="#000000" transform="matrix(0.0666667 0 0 0.0666667 -0.8 0.666667)" d="M 3086.23,4238.1 L 3082.57,4226.83 L 3332.75,3882.42 L 3344.6,3882.42 L 3348.05,3893.96 L 3113.36,4217.44 L 3090.6,4240.19 L 3086.23,4238.1 L 3086.23,4238.1 Z " />
<path stroke="none" fill="#000000" transform="matrix(0.0666667 0 0 0.0666667 -0.8 0.666667)" d="M 3398.52,3892.32 L 3398.52,3872.52 L 3418.32,3869.25 L 3418.32,3895.6 L 3398.52,3892.32 Z " />
<path stroke="none" fill="#000000" transform="matrix(0.0666667 0 0 0.0666667 -0.8 0.666667)" d="M 3455.12,3901.69 L 3455.12,3863.16 L 3474.92,3859.88 L 3474.92,3904.96 L 3455.12,3901.69 Z " />
<path stroke="none" fill="#000000" transform="matrix(0.0666667 0 0 0.0666667 -0.8 0.666667)" d="M 3511.73,3911.05 L 3511.73,3853.79 L 3531.53,3850.52 L 3531.53,3914.33 L 3511.73,3911.05 Z " />
<path stroke="none" fill="#000000" transform="matrix(0.0666667 0 0 0.0666667 -0.8 0.666667)" d="M 3568.34,3920.42 L 3568.34,3844.43 L 3588.14,3841.15 L 3588.14,3923.69 L 3568.34,3920.42 Z " />
<path stroke="none" fill="#000000" transform="matrix(0.0666667 0 0 0.0666667 -0.8 0.666667)" d="M 3624.95,3929.78 L 3624.95,3835.06 L 3644.75,3831.79 L 3644.75,3933.06 L 3624.95,3929.78 Z " />
<path stroke="none" fill="#000000" transform="matrix(0.0666667 0 0 0.0666667 -0.8 0.666667)" d="M 3681.56,3939.15 L 3681.56,3825.7 L 3701.36,3822.42 L 3701.36,3942.42 L 3681.56,3939.15 Z " />
<path stroke="none" fill="#000000" transform="matrix(0.0666667 0 0 0.0666667 -0.8 0.666667)" d="M 3352.27,3876.18 L 3344.6,3882.42 L 3332.75,3882.42 L 3082.57,3538.01 L 3086.23,3526.74 L 3098.41,3527.24 L 3352.27,3876.18 Z " />
<path stroke="none" fill="#000000" transform="matrix(0.0666667 0 0 0.0666667 -0.8 0.666667)" d="M 3084.71,3471.99 L 3065.34,3476.11 L 3057.97,3457.43 L 3083.84,3451.93 L 3084.71,3471.99 Z " />
<path stroke="none" fill="#000000" transform="matrix(0.0666667 0 0 0.0666667 -0.8 0.666667)" d="M 3082.26,3415.5 L 3044.59,3423.51 L 3037.22,3404.84 L 3081.39,3395.45 L 3082.26,3415.5 Z " />
<path stroke="none" fill="#000000" transform="matrix(0.0666667 0 0 0.0666667 -0.8 0.666667)" d="M 3079.81,3359.02 L 3023.84,3370.92 L 3016.47,3352.24 L 3078.94,3338.96 L 3079.81,3359.02 Z " />
<path stroke="none" fill="#000000" transform="matrix(0.0666667 0 0 0.0666667 -0.8 0.666667)" d="M 3077.36,3302.53 L 3003.09,3318.32 L 2995.72,3299.65 L 3076.49,3282.47 L 3077.36,3302.53 Z " />
<path stroke="none" fill="#000000" transform="matrix(0.0666667 0 0 0.0666667 -0.8 0.666667)" d="M 3074.91,3246.04 L 2982.34,3265.73 L 2974.97,3247.05 L 3074.04,3225.98 L 3074.91,3246.04 Z " />
<path stroke="none" fill="#000000" transform="matrix(0.0666667 0 0 0.0666667 -0.8 0.666667)" d="M 3072.46,3189.55 L 2961.59,3213.13 L 2954.22,3194.46 L 3071.6,3169.49 L 3072.46,3189.55 Z " />
<path stroke="none" fill="#000000" transform="matrix(0.0666667 0 0 0.0666667 -0.8 0.666667)" d="M 3098.41,3527.24 L 3086.23,3526.74 L 3082.24,3517.68 L 3351.32,3214.52 L 3501.95,3245.49 L 3098.41,3527.24 Z " />
<path stroke="none" fill="#000000" transform="matrix(0.0666667 0 0 0.0666667 -0.8 0.666667)" d="M 3399.94,3250.94 L 3380.57,3255.06 L 3302.34,2887.11 L 3321.71,2883 L 3399.94,3250.94 Z " />
<path stroke="none" fill="#000000" transform="matrix(0.0666667 0 0 0.0666667 -0.8 0.666667)" d="M 3450.03,3232.82 L 3430.67,3236.94 L 3353.96,2876.14 L 3373.33,2872.02 L 3450.03,3232.82 Z " />
<path stroke="none" fill="#000000" transform="matrix(0.0666667 0 0 0.0666667 -0.8 0.666667)" d="M 3501.95,3245.49 L 3351.32,3214.52 L 3811.65,3255.83 L 3816.35,3265.88 L 3814.79,3275.65 L 3501.95,3245.49 Z " />
<path stroke="none" fill="#000000" transform="matrix(0.0666667 0 0 0.0666667 -0.8 0.666667)" d="M 3082.24,3517.68 L 3086.23,3526.74 L 3082.57,3538.01 L 2677.71,3669.56 L 2668.12,3662.6 L 2675.45,3650.32 L 3082.24,3517.68 Z " />
<path stroke="none" fill="#000000" transform="matrix(0.0666667 0 0 0.0666667 -0.8 0.666667)" d="M 2677.71,4095.29 L 2668.12,4102.25 L 2658.47,4096.68 L 2658.47,3668.17 L 2668.12,3662.6 L 2677.71,3669.56 L 2677.71,4095.29 Z " />
<path stroke="none" fill="#000000" transform="matrix(0.0666667 0 0 0.0666667 -0.8 0.666667)" d="M 2675.45,3650.32 L 2668.12,3662.6 L 2661.3,3647.92 L 2608.12,3329.31 L 2728.12,3329.31 L 2675.45,3650.32 L 2675.45,3650.32 Z " />
<path stroke="none" fill="#000000" transform="matrix(0.0666667 0 0 0.0666667 -0.8 0.666667)" d="M 2661.3,3647.92 L 2668.12,3662.6 L 2658.47,3668.17 L 2287.24,3453.91 L 2287.24,3442.77 L 2298.76,3438.4 L 2661.3,3647.92 Z " />
<path stroke="none" fill="#000000" transform="matrix(0.0666667 0 0 0.0666667 -0.8 0.666667)" d="M 2281.54,3434.67 L 2287.24,3442.77 L 2287.24,3453.91 L 1916.15,3668.17 L 1906.5,3662.6 L 1905.48,3651.98 L 2281.54,3434.67 Z " />
<path stroke="none" fill="#000000" transform="matrix(0.0666667 0 0 0.0666667 -0.8 0.666667)" d="M 1905.48,3651.98 L 1906.5,3662.6 L 1896.8,3667.03 L 1567.44,3536.12 L 1627.44,3432.2 L 1905.48,3651.98 Z " />
<path stroke="none" fill="#000000" transform="matrix(0.0666667 0 0 0.0666667 -0.8 0.666667)" d="M 1896.8,3667.03 L 1906.5,3662.6 L 1916.15,3668.17 L 1916.15,4096.68 L 1906.5,4102.25 L 1896.85,4096.68 L 1896.8,3667.03 Z " />
<path stroke="none" fill="#000000" transform="matrix(0.0666667 0 0 0.0666667 -0.8 0.666667)" d="M 1896.6,4156.15 L 1916.4,4156.15 L 1919.82,4175.95 L 1893.17,4175.95 L 1896.6,4156.15 Z " />
<path stroke="none" fill="#000000" transform="matrix(0.0666667 0 0 0.0666667 -0.8 0.666667)" d="M 1887.26,4210.13 L 1925.73,4210.13 L 1929.16,4229.93 L 1883.84,4229.93 L 1887.26,4210.13 Z " />
<path stroke="none" fill="#000000" transform="matrix(0.0666667 0 0 0.0666667 -0.8 0.666667)" d="M 1877.93,4264.12 L 1935.07,4264.12 L 1938.49,4283.92 L 1874.5,4283.92 L 1877.93,4264.12 Z " />
<path stroke="none" fill="#000000" transform="matrix(0.0666667 0 0 0.0666667 -0.8 0.666667)" d="M 1868.59,4318.1 L 1944.4,4318.1 L 1947.83,4337.9 L 1865.17,4337.9 L 1868.59,4318.1 Z " />
<path stroke="none" fill="#000000" transform="matrix(0.0666667 0 0 0.0666667 -0.8 0.666667)" d="M 1859.26,4372.09 L 1953.74,4372.09 L 1957.16,4391.89 L 1855.83,4391.89 L 1859.26,4372.09 Z " />
<path stroke="none" fill="#000000" transform="matrix(0.0666667 0 0 0.0666667 -0.8 0.666667)" d="M 1849.92,4426.07 L 1963.07,4426.07 L 1966.5,4445.87 L 1846.5,4445.87 L 1849.92,4426.07 Z " />
<path stroke="none" fill="#000000" transform="matrix(0.0666667 0 0 0.0666667 -0.8 0.666667)" d="M 2280.42,4307.4 L 2287.24,4322.08 L 2277.59,4327.65 L 1906.5,4113.39 L 1906.5,4102.25 L 1916.15,4096.68 L 2280.42,4307.4 Z " />
<path stroke="none" fill="#000000" transform="matrix(0.0666667 0 0 0.0666667 -0.8 0.666667)" d="M 1896.85,4096.68 L 1906.5,4102.25 L 1906.5,4113.39 L 1535.41,4327.65 L 1525.76,4322.08 L 1532.58,4307.4 L 1896.85,4096.68 Z " />
<path stroke="none" fill="#000000" transform="matrix(0.0666667 0 0 0.0666667 -0.8 0.666667)" d="M 1145.02,4113.39 L 1145.02,4102.25 L 1154.58,4096.63 L 1518.94,4307.4 L 1525.76,4322.08 L 1516.11,4327.65 L 1145.02,4113.39 Z " />
<path stroke="none" fill="#000000" transform="matrix(0.0666667 0 0 0.0666667 -0.8 0.666667)" d="M 1535.41,4756.16 L 1525.76,4761.73 L 1516.11,4756.16 L 1516.11,4327.65 L 1525.76,4322.08 L 1535.41,4327.65 L 1535.41,4756.16 Z " />
<path stroke="none" fill="#000000" transform="matrix(0.0666667 0 0 0.0666667 -0.8 0.666667)" d="M 1532.58,4307.4 L 1525.76,4322.08 L 1518.94,4307.4 L 1465.76,3988.79 L 1585.76,3988.79 L 1532.58,4307.4 Z " />
<path stroke="none" fill="#000000" transform="matrix(0.0666667 0 0 0.0666667 -0.8 0.666667)" d="M 2294.06,4307.4 L 2287.24,4322.08 L 2280.42,4307.4 L 2227.24,3988.79 L 2347.24,3988.79 L 2294.06,4307.4 Z " />
<path stroke="none" fill="#000000" transform="matrix(0.0666667 0 0 0.0666667 -0.8 0.666667)" d="M 2658.22,4156.15 L 2678.02,4156.15 L 2681.52,4175.95 L 2654.73,4175.95 L 2658.22,4156.15 Z " />
<path stroke="none" fill="#000000" transform="matrix(0.0666667 0 0 0.0666667 -0.8 0.666667)" d="M 2646.57,4222.13 L 2689.67,4222.13 L 2693.17,4241.93 L 2643.08,4241.93 L 2646.57,4222.13 Z " />
<path stroke="none" fill="#000000" transform="matrix(0.0666667 0 0 0.0666667 -0.8 0.666667)" d="M 2634.92,4288.11 L 2701.32,4288.11 L 2704.82,4307.91 L 2631.42,4307.91 L 2634.92,4288.11 Z " />
<path stroke="none" fill="#000000" transform="matrix(0.0666667 0 0 0.0666667 -0.8 0.666667)" d="M 2623.27,4354.09 L 2712.98,4354.09 L 2716.47,4373.89 L 2619.77,4373.89 L 2623.27,4354.09 Z " />
<path stroke="none" fill="#000000" transform="matrix(0.0666667 0 0 0.0666667 -0.8 0.666667)" d="M 2611.62,4420.07 L 2724.63,4420.07 L 2728.12,4439.87 L 2608.12,4439.87 L 2611.62,4420.07 Z " />
<text x="0" y="0" stroke="none" fill="#000000" transform="matrix(0.0666667 0 0 0.0666667 69.3651 247.673)" font-style="normal" font-weight="normal" font-size="140px" font-family="EB Garamond" >
(A)</text>
<path stroke="none" fill="#000000" transform="matrix(0.0666667 0 0 0.0666667 -0.8 0.666667)" d="M 1154.58,4096.63 L 1145.02,4102.25 L 1135.45,4096.63 L 1135.12,3768.96 L 1154.92,3768.96 L 1154.58,4096.63 Z " />
<text x="0" y="0" stroke="none" fill="#000000" transform="matrix(0.0666667 0 0 0.0666667 14.8805 276.983)" font-style="normal" font-weight="normal" font-size="140px" font-family="EB Garamond" >
(B)</text>
<path stroke="none" fill="#000000" transform="matrix(0.0666667 0 0 0.0666667 -0.8 0.666667)" d="M 764.228,4310.96 L 764.277,4322.08 L 754.626,4327.59 L 436.292,4144.14 L 446.192,4126.99 L 764.228,4310.96 Z " />
<text x="0" y="0" stroke="none" fill="#000000" transform="matrix(0.0666667 0 0 0.0666667 69.2811 364.914)" font-style="normal" font-weight="normal" font-size="140px" font-family="EB Garamond" >
(C)</text>
<path stroke="none" fill="#000000" transform="matrix(0.0666667 0 0 0.0666667 -0.8 0.666667)" d="M 1135.45,4987.18 L 1145.02,4981.56 L 1154.59,4987.18 L 1154.92,5319.18 L 1135.12,5319.18 L 1135.45,4987.18 Z " />
<text x="0" y="0" stroke="none" fill="#000000" transform="matrix(0.0666667 0 0 0.0666667 266.76 197.133)" font-style="normal" font-weight="normal" font-size="140px" font-family="EB Garamond" >
O(F)</text>
<path stroke="none" fill="#000000" transform="matrix(0.0666667 0 0 0.0666667 -0.8 0.666667)" d="M 3829.11,3264 L 3816.35,3265.88 L 3811.65,3255.83 L 4012.75,2965.1 L 4029.03,2976.38 L 3829.11,3264 Z " />
<text x="0" y="0" stroke="none" fill="#000000" transform="matrix(0.0666667 0 0 0.0666667 277.536 235.881)" font-style="normal" font-weight="normal" font-size="140px" font-family="EB Garamond" >
(G)</text>
<path stroke="none" fill="#000000" transform="matrix(0.0666667 0 0 0.0666667 -0.8 0.666667)" d="M 3814.79,3275.65 L 3816.35,3265.88 L 3829.11,3264 L 4170.46,3401.05 L 4110.46,3504.97 L 3814.79,3275.65 Z " />
<text x="0" y="0" stroke="none" fill="#000000" transform="matrix(0.0666667 0 0 0.0666667 255.097 249.539)" font-style="normal" font-weight="normal" font-size="140px" font-family="EB Garamond" >
(K)</text>
<path stroke="none" fill="#000000" transform="matrix(0.0666667 0 0 0.0666667 -0.8 0.666667)" d="M 3820.74,3320.5 L 3839.87,3315.37 L 3848.54,3333.55 L 3822.33,3340.58 L 3820.74,3320.5 Z " />
<path stroke="none" fill="#000000" transform="matrix(0.0666667 0 0 0.0666667 -0.8 0.666667)" d="M 3825.77,3384.09 L 3867.32,3372.95 L 3875.99,3391.12 L 3827.36,3404.16 L 3825.77,3384.09 Z " />
<path stroke="none" fill="#000000" transform="matrix(0.0666667 0 0 0.0666667 -0.8 0.666667)" d="M 3830.8,3447.67 L 3894.78,3430.52 L 3903.45,3448.69 L 3832.39,3467.74 L 3830.8,3447.67 Z " />
<path stroke="none" fill="#000000" transform="matrix(0.0666667 0 0 0.0666667 -0.8 0.666667)" d="M 3835.83,3511.25 L 3922.23,3488.09 L 3930.9,3506.26 L 3837.42,3531.33 L 3835.83,3511.25 Z " />
<path stroke="none" fill="#000000" transform="matrix(0.0666667 0 0 0.0666667 -0.8 0.666667)" d="M 3840.86,3574.84 L 3949.69,3545.66 L 3958.35,3563.84 L 3842.45,3594.91 L 3840.86,3574.84 Z " />
<text x="0" y="0" stroke="none" fill="#000000" transform="matrix(0.0666667 0 0 0.0666667 121.773 218.363)" font-style="normal" font-weight="normal" font-size="140px" font-family="EB Garamond" >
(J)</text>
<path stroke="none" fill="#000000" transform="matrix(0.0666667 0 0 0.0666667 -0.8 0.666667)" d="M 1916.4,3608.75 L 1896.6,3608.75 L 1893.05,3588.95 L 1919.95,3588.95 L 1916.4,3608.75 L 1916.4,3608.75 Z " />
<path stroke="none" fill="#000000" transform="matrix(0.0666667 0 0 0.0666667 -0.8 0.666667)" d="M 1928.03,3543.84 L 1884.96,3543.84 L 1881.41,3524.04 L 1931.58,3524.04 L 1928.03,3543.84 L 1928.03,3543.84 Z " />
<path stroke="none" fill="#000000" transform="matrix(0.0666667 0 0 0.0666667 -0.8 0.666667)" d="M 1939.67,3478.93 L 1873.32,3478.93 L 1869.77,3459.13 L 1943.22,3459.13 L 1939.67,3478.93 L 1939.67,3478.93 Z " />
<path stroke="none" fill="#000000" transform="matrix(0.0666667 0 0 0.0666667 -0.8 0.666667)" d="M 1951.31,3414.02 L 1861.68,3414.02 L 1858.13,3394.22 L 1954.86,3394.22 L 1951.31,3414.02 L 1951.31,3414.02 Z " />
<path stroke="none" fill="#000000" transform="matrix(0.0666667 0 0 0.0666667 -0.8 0.666667)" d="M 1962.95,3349.11 L 1850.05,3349.11 L 1846.5,3329.31 L 1966.5,3329.31 L 1962.95,3349.11 L 1962.95,3349.11 Z " />
<text x="0" y="0" stroke="none" fill="#000000" transform="matrix(0.0666667 0 0 0.0666667 246.086 276.983)" font-style="normal" font-weight="normal" font-size="140px" font-family="EB Garamond" >
(L)</text>
<path stroke="none" fill="#000000" transform="matrix(0.0666667 0 0 0.0666667 -0.8 0.666667)" d="M 3348.05,3893.96 L 3344.6,3882.42 L 3352.27,3876.18 L 3698.71,4017.59 L 3638.71,4121.52 L 3348.05,3893.96 Z " />
<text x="0" y="0" stroke="none" fill="#000000" transform="matrix(0.0666667 0 0 0.0666667 133.81 360.986)" font-style="normal" font-weight="normal" font-size="140px" font-family="EB Garamond" >
(M)</text>
<path stroke="none" fill="#000000" transform="matrix(0.0666667 0 0 0.0666667 -0.8 0.666667)" d="M 1900.88,4989.71 L 1906.5,4981.56 L 1917.97,4985.96 L 2112.8,5218.88 L 2008.88,5278.88 L 1900.88,4989.71 Z " />
<text x="0" y="0" stroke="none" fill="#000000" transform="matrix(0.0666667 0 0 0.0666667 94.1633 360.986)" font-style="normal" font-weight="normal" font-size="140px" font-family="EB Garamond" >
(O/N)</text>
<path stroke="none" fill="#000000" transform="matrix(0.0666667 0 0 0.0666667 -0.8 0.666667)" d="M 1870.95,5023.33 L 1888.09,5033.23 L 1881.49,5052.28 L 1857.76,5038.57 L 1870.95,5023.33 Z " />
<path stroke="none" fill="#000000" transform="matrix(0.0666667 0 0 0.0666667 -0.8 0.666667)" d="M 1830.78,5069.74 L 1867.98,5091.22 L 1861.37,5110.27 L 1817.59,5084.99 L 1830.78,5069.74 Z " />
<path stroke="none" fill="#000000" transform="matrix(0.0666667 0 0 0.0666667 -0.8 0.666667)" d="M 1790.62,5116.16 L 1847.86,5149.21 L 1841.25,5168.26 L 1777.43,5131.41 L 1790.62,5116.16 Z " />
<path stroke="none" fill="#000000" transform="matrix(0.0666667 0 0 0.0666667 -0.8 0.666667)" d="M 1750.45,5162.58 L 1827.74,5207.2 L 1821.14,5226.25 L 1737.26,5177.82 L 1750.45,5162.58 Z " />
<path stroke="none" fill="#000000" transform="matrix(0.0666667 0 0 0.0666667 -0.8 0.666667)" d="M 1710.29,5208.99 L 1807.63,5265.19 L 1801.02,5284.24 L 1697.1,5224.24 L 1710.29,5208.99 Z " />
<text x="0" y="0" stroke="none" fill="#000000" transform="matrix(0.0666667 0 0 0.0666667 160.822 207.635)" font-style="normal" font-weight="normal" font-size="140px" font-family="EB Garamond" >
(P/Q)</text>
<path stroke="none" fill="#000000" transform="matrix(0.0666667 0 0 0.0666667 -0.8 0.666667)" d="M 2298.76,3438.4 L 2287.24,3442.77 L 2281.54,3434.67 L 2393.66,3138.44 L 2497.59,3198.44 L 2298.76,3438.4 Z " />
<text x="0" y="0" stroke="none" fill="#000000" transform="matrix(0.0666667 0 0 0.0666667 130.643 207.635)" font-style="normal" font-weight="normal" font-size="140px" font-family="EB Garamond" >
(U)</text>
<path stroke="none" fill="#000000" transform="matrix(0.0666667 0 0 0.0666667 -0.8 0.666667)" d="M 2268.86,3391.15 L 2251.72,3401.05 L 2238.47,3385.84 L 2262.31,3372.07 L 2268.86,3391.15 Z " />
<path stroke="none" fill="#000000" transform="matrix(0.0666667 0 0 0.0666667 -0.8 0.666667)" d="M 2249.27,3334.1 L 2212.1,3355.56 L 2198.85,3340.34 L 2242.72,3315.02 L 2249.27,3334.1 Z " />
<path stroke="none" fill="#000000" transform="matrix(0.0666667 0 0 0.0666667 -0.8 0.666667)" d="M 2229.67,3277.04 L 2172.49,3310.06 L 2159.24,3294.85 L 2223.12,3257.96 L 2229.67,3277.04 Z " />
<path stroke="none" fill="#000000" transform="matrix(0.0666667 0 0 0.0666667 -0.8 0.666667)" d="M 2210.08,3219.99 L 2132.87,3264.56 L 2119.63,3249.35 L 2203.53,3200.91 L 2210.08,3219.99 Z " />
<path stroke="none" fill="#000000" transform="matrix(0.0666667 0 0 0.0666667 -0.8 0.666667)" d="M 2190.49,3162.93 L 2093.26,3219.07 L 2080.01,3203.85 L 2183.93,3143.85 L 2190.49,3162.93 Z " />
<text x="0" y="0" stroke="none" fill="#000000" transform="matrix(0.0666667 0 0 0.0666667 160.07 346.331)" font-style="normal" font-weight="normal" font-size="140px" font-family="EB Garamond" >
(R)</text>
<path stroke="none" fill="#000000" transform="matrix(0.0666667 0 0 0.0666667 -0.8 0.666667)" d="M 2285.27,4773.89 L 2287.24,4761.73 L 2297.1,4760.86 L 2496.83,5004.75 L 2392.91,5064.75 L 2285.27,4773.89 Z " />
<text x="0" y="0" stroke="none" fill="#000000" transform="matrix(0.0666667 0 0 0.0666667 179.523 320.949)" font-style="normal" font-weight="normal" font-size="140px" font-family="EB Garamond" >
(V)</text>
<path stroke="none" fill="#000000" transform="matrix(0.0666667 0 0 0.0666667 -0.8 0.666667)" d="M 2341.09,4771.63 L 2341.09,4751.83 L 2360.89,4748.82 L 2360.89,4774.64 L 2341.09,4771.63 Z " />
<path stroke="none" fill="#000000" transform="matrix(0.0666667 0 0 0.0666667 -0.8 0.666667)" d="M 2403.04,4781.05 L 2403.04,4742.41 L 2422.84,4739.4 L 2422.84,4784.06 L 2403.04,4781.05 Z " />
<path stroke="none" fill="#000000" transform="matrix(0.0666667 0 0 0.0666667 -0.8 0.666667)" d="M 2464.99,4790.47 L 2464.99,4733 L 2484.79,4729.99 L 2484.79,4793.48 L 2464.99,4790.47 Z " />
<path stroke="none" fill="#000000" transform="matrix(0.0666667 0 0 0.0666667 -0.8 0.666667)" d="M 2526.94,4799.88 L 2526.94,4723.58 L 2546.74,4720.57 L 2546.74,4802.9 L 2526.94,4799.88 Z " />
<path stroke="none" fill="#000000" transform="matrix(0.0666667 0 0 0.0666667 -0.8 0.666667)" d="M 2588.89,4809.3 L 2588.89,4714.16 L 2608.69,4711.15 L 2608.69,4812.31 L 2588.89,4809.3 Z " />
<path stroke="none" fill="#000000" transform="matrix(0.0666667 0 0 0.0666667 -0.8 0.666667)" d="M 2650.84,4818.72 L 2650.84,4704.74 L 2670.64,4701.73 L 2670.64,4821.73 L 2650.84,4818.72 Z " />
<text x="0" y="0" stroke="none" fill="#000000" transform="matrix(0.0666667 0 0 0.0666667 199.839 315.35)" font-style="normal" font-weight="normal" font-size="140px" font-family="EB Garamond" >
(S)</text>
<path stroke="none" fill="#000000" transform="matrix(0.0666667 0 0 0.0666667 -0.8 0.666667)" d="M 3077.87,4245.53 L 3086.23,4238.1 L 3090.6,4240.19 L 3076.5,4254.3 L 3077.87,4245.53 L 3077.87,4245.53 Z " />
<path stroke="none" fill="#000000" transform="matrix(0.0666667 0 0 0.0666667 -0.8 0.666667)" d="M 3146.23,4575.72 L 3026.23,4575.72 L 3073.33,4274.54 L 3106.53,4316.2 L 3146.23,4575.72 L 3146.23,4575.72 Z " />
<text x="0" y="0" stroke="none" fill="#000000" transform="matrix(0.0666667 0 0 0.0666667 227.093 308.091)" font-style="normal" font-weight="normal" font-size="140px" font-family="EB Garamond" >
(W)</text>
<path stroke="none" fill="#000000" transform="matrix(0.0666667 0 0 0.0666667 -0.8 0.666667)" d="M 3122.61,4265.04 L 3136.61,4251.03 L 3152.55,4263.1 L 3134.68,4280.97 L 3122.61,4265.04 Z " />
<path stroke="none" fill="#000000" transform="matrix(0.0666667 0 0 0.0666667 -0.8 0.666667)" d="M 3157.44,4311.03 L 3182.61,4285.86 L 3198.54,4297.93 L 3169.51,4326.96 L 3157.44,4311.03 Z " />
<path stroke="none" fill="#000000" transform="matrix(0.0666667 0 0 0.0666667 -0.8 0.666667)" d="M 3192.27,4357.02 L 3228.6,4320.69 L 3244.53,4332.76 L 3204.34,4372.96 L 3192.27,4357.02 Z " />
<path stroke="none" fill="#000000" transform="matrix(0.0666667 0 0 0.0666667 -0.8 0.666667)" d="M 3227.1,4403.01 L 3274.59,4355.52 L 3290.53,4367.59 L 3239.17,4418.95 L 3227.1,4403.01 Z " />
<path stroke="none" fill="#000000" transform="matrix(0.0666667 0 0 0.0666667 -0.8 0.666667)" d="M 3261.93,4449.01 L 3320.58,4390.35 L 3336.52,4402.42 L 3273.99,4464.94 L 3261.93,4449.01 Z " />
<path stroke="none" fill="#000000" transform="matrix(0.0666667 0 0 0.0666667 -0.8 0.666667)" d="M 3296.76,4495 L 3366.58,4425.18 L 3382.51,4437.25 L 3308.82,4510.94 L 3296.76,4495 Z " />
<path stroke="none" fill="#000000" transform="matrix(0.0666667 0 0 0.0666667 -0.8 0.666667)" d="M 3331.59,4540.99 L 3412.57,4460.01 L 3428.51,4472.08 L 3343.65,4556.93 L 3331.59,4540.99 Z " />
<path stroke="none" fill="#000000" transform="matrix(0.0666667 0 0 0.0666667 -0.8 0.666667)" d="M 5203.46,4691.89 L 5175.14,4708.24 L 5173.52,4696.33 L 5468.7,4401.46 L 5483.85,4399.53 L 5474.89,4421.11 L 5203.46,4691.89 Z " />
<path stroke="none" fill="#000000" transform="matrix(0.0666667 0 0 0.0666667 -0.8 0.666667)" d="M 5184.6,4715.62 L 5175.14,4708.24 L 5203.46,4691.89 L 5433.75,4629.53 L 5433.75,4648.22 L 5184.6,4715.62 L 5184.6,4715.62 Z " />
<path stroke="none" fill="#000000" transform="matrix(0.0666667 0 0 0.0666667 -0.8 0.666667)" d="M 5588.14,4587.71 L 5596.94,4595.3 L 5570.36,4611.26 L 5533.95,4621.11 L 5533.95,4602.39 L 5588.14,4587.71 L 5588.14,4587.71 Z " />
<path stroke="none" fill="#000000" transform="matrix(0.0666667 0 0 0.0666667 -0.8 0.666667)" d="M 5599.6,4606.01 L 5596.94,4595.3 L 5607.61,4588.3 L 6015.87,4697.49 L 6018.75,4708.24 L 6009.29,4715.62 L 5599.6,4606.01 Z " />
<path stroke="none" fill="#000000" transform="matrix(0.0666667 0 0 0.0666667 -0.8 0.666667)" d="M 5493.43,4406.87 L 5483.85,4399.53 L 5485.17,4389.11 L 5576.76,4364.64 L 5574.04,4385.3 L 5493.43,4406.87 L 5493.43,4406.87 Z " />
<path stroke="none" fill="#000000" transform="matrix(0.0666667 0 0 0.0666667 -0.8 0.666667)" d="M 5891.47,4280.56 L 5905.66,4286.44 L 5905.66,4296.56 L 5678.79,4357.27 L 5681.5,4336.66 L 5891.47,4280.56 L 5891.47,4280.56 Z " />
<path stroke="none" fill="#000000" transform="matrix(0.0666667 0 0 0.0666667 -0.8 0.666667)" d="M 5905.66,4296.56 L 5905.66,4286.44 L 5928.37,4283.27 L 6348.22,4393.97 L 6309.74,4404.28 L 5905.66,4296.56 Z " />
<path stroke="none" fill="#000000" transform="matrix(0.0666667 0 0 0.0666667 -0.8 0.666667)" d="M 6046.82,4692.17 L 6018.75,4708.24 L 6015.87,4697.49 L 6309.74,4404.28 L 6348.22,4393.97 L 6046.82,4692.17 Z " />
<path stroke="none" fill="#000000" transform="matrix(0.0666667 0 0 0.0666667 -0.8 0.666667)" d="M 5909.2,4273.62 L 5905.66,4286.44 L 5891.47,4280.56 L 5692.98,3935.49 L 5687.33,3908.29 L 5700.2,3911.63 L 5909.2,4273.62 Z " />
<path stroke="none" fill="#000000" transform="matrix(0.0666667 0 0 0.0666667 -0.8 0.666667)" d="M 5676.87,3913.28 L 5687.33,3908.29 L 5692.98,3935.49 L 5607.61,4588.3 L 5596.94,4595.3 L 5588.14,4587.71 L 5676.87,3913.28 Z " />
<text x="0" y="0" stroke="none" fill="#000000" transform="matrix(0.0666667 0 0 0.0666667 445.591 289.262)" font-style="normal" font-weight="normal" font-size="140px" font-family="EB Garamond" >
O</text>
<path stroke="none" fill="#000000" transform="matrix(0.0666667 0 0 0.0666667 -0.8 0.666667)" d="M 6279.44,4395.53 L 6274.31,4376.4 L 6657.48,4273.67 L 6662.61,4292.79 L 6279.44,4395.53 Z " />
<path stroke="none" fill="#000000" transform="matrix(0.0666667 0 0 0.0666667 -0.8 0.666667)" d="M 6292.96,4446.16 L 6287.84,4427.03 L 6671.05,4324.29 L 6676.18,4343.41 L 6292.96,4446.16 Z " />
<text x="0" y="0" stroke="none" fill="#000000" transform="matrix(0.0666667 0 0 0.0666667 413.915 274.707)" font-style="normal" font-weight="normal" font-size="140px" font-family="EB Garamond" >
Me</text>
<path stroke="none" fill="#000000" transform="matrix(0.0666667 0 0 0.0666667 -0.8 0.666667)" d="M 5928.37,4283.27 L 5905.66,4286.44 L 5909.2,4273.62 L 6183.25,4114.73 L 6193.15,4131.88 L 5928.37,4283.27 Z " />
<text x="0" y="0" stroke="none" fill="#000000" transform="matrix(0.0666667 0 0 0.0666667 393.991 346.493)" font-style="normal" font-weight="normal" font-size="140px" font-family="EB Garamond" >
(D)</text>
<path stroke="none" fill="#000000" transform="matrix(0.0666667 0 0 0.0666667 -0.8 0.666667)" d="M 6009.29,4715.62 L 6018.75,4708.24 L 6028.22,4715.56 L 6028.65,5042.87 L 6008.85,5042.87 L 6009.29,4715.62 Z " />
<text x="0" y="0" stroke="none" fill="#000000" transform="matrix(0.0666667 0 0 0.0666667 427.091 309.853)" font-style="normal" font-weight="normal" font-size="140px" font-family="EB Garamond" >
(A)</text>
<path stroke="none" fill="#000000" transform="matrix(0.0666667 0 0 0.0666667 -0.8 0.666667)" d="M 6028.22,4715.56 L 6018.75,4708.24 L 6046.82,4692.17 L 6381.56,4600.81 L 6386.68,4619.94 L 6028.22,4715.56 Z " />
<text x="0" y="0" stroke="none" fill="#000000" transform="matrix(0.0666667 0 0 0.0666667 337.867 346.493)" font-style="normal" font-weight="normal" font-size="140px" font-family="EB Garamond" >
(G)</text>
<text x="0" y="0" stroke="none" fill="#000000" transform="matrix(0.0666667 0 0 0.0666667 307.963 302.828)" font-style="normal" font-weight="normal" font-size="140px" font-family="EB Garamond" >
(C)</text>
<path stroke="none" fill="#000000" transform="matrix(0.0666667 0 0 0.0666667 -0.8 0.666667)" d="M 5173.52,4696.33 L 5175.14,4708.24 L 5165.57,4713.81 L 4849.78,4531.83 L 4859.68,4514.68 L 5173.52,4696.33 Z " />
<text x="0" y="0" stroke="none" fill="#000000" transform="matrix(0.0666667 0 0 0.0666667 329.907 282.247)" font-style="normal" font-weight="normal" font-size="140px" font-family="EB Garamond" >
(E)</text>
<path stroke="none" fill="#000000" transform="matrix(0.0666667 0 0 0.0666667 -0.8 0.666667)" d="M 5485.17,4389.11 L 5483.85,4399.53 L 5468.7,4401.46 L 5158.51,4223.12 L 5168.41,4205.97 L 5485.17,4389.11 Z " />
<text x="0" y="0" stroke="none" fill="#000000" transform="matrix(0.0666667 0 0 0.0666667 359.461 333.918)" font-style="normal" font-weight="normal" font-size="140px" font-family="EB Garamond" >
(F)</text>
<path stroke="none" fill="#000000" transform="matrix(0.0666667 0 0 0.0666667 -0.8 0.666667)" d="M 5474.89,4421.11 L 5483.85,4399.53 L 5493.43,4406.87 L 5493.59,4627.8 L 5474.4,4646.99 L 5474.89,4421.11 L 5474.89,4421.11 Z " />
<path stroke="none" fill="#000000" transform="matrix(0.0666667 0 0 0.0666667 -0.8 0.666667)" d="M 5493.75,4854.23 L 5473.95,4854.23 L 5474.09,4789 L 5493.69,4769.4 L 5493.75,4854.23 L 5493.75,4854.23 Z " />
<text x="0" y="0" stroke="none" fill="#000000" transform="matrix(0.0666667 0 0 0.0666667 399.36 249.498)" font-style="normal" font-weight="normal" font-size="140px" font-family="EB Garamond" >
Me</text>
<path stroke="none" fill="#000000" transform="matrix(0.0666667 0 0 0.0666667 -0.8 0.666667)" d="M 5700.2,3911.63 L 5687.33,3908.29 L 5687.37,3897.23 L 5964.93,3736.59 L 5974.83,3753.74 L 5700.2,3911.63 Z " />
<text x="0" y="0" stroke="none" fill="#000000" transform="matrix(0.0666667 0 0 0.0666667 342.917 249.498)" font-style="normal" font-weight="normal" font-size="140px" font-family="EB Garamond" >
Me</text>
<path stroke="none" fill="#000000" transform="matrix(0.0666667 0 0 0.0666667 -0.8 0.666667)" d="M 5687.37,3897.23 L 5687.33,3908.29 L 5676.87,3913.28 L 5365.67,3734.01 L 5375.57,3716.86 L 5687.37,3897.23 Z " />
<text x="0" y="0" stroke="none" fill="#000000" transform="matrix(0.0666667 0 0 0.0666667 63.3497 125.243)" font-style="normal" font-weight="normal" font-size="140px" font-family="EB Garamond" >
(J, </text>
<text x="0" y="0" stroke="none" fill="#000000" transform="matrix(0.0666667 0 0 0.0666667 73.4764 125.243)" font-style="normal" font-weight="normal" font-size="140px" font-family="EB Garamond" >
K)</text>
<text x="0" y="0" stroke="none" fill="#000000" transform="matrix(0.0666667 0 0 0.0666667 163.146 98.5245)" font-style="normal" font-weight="normal" font-size="140px" font-family="EB Garamond" >
(M, </text>
<text x="0" y="0" stroke="none" fill="#000000" transform="matrix(0.0666667 0 0 0.0666667 178.508 98.5245)" font-style="normal" font-weight="normal" font-size="140px" font-family="EB Garamond" >
N)</text>
<text x="0" y="0" stroke="none" fill="#000000" transform="matrix(0.0666667 0 0 0.0666667 235.614 17.1505)" font-style="normal" font-weight="normal" font-size="140px" font-family="EB Garamond" >
(G, </text>
<text x="0" y="0" stroke="none" fill="#000000" transform="matrix(0.0666667 0 0 0.0666667 249.371 17.1505)" font-style="normal" font-weight="normal" font-size="140px" font-family="EB Garamond" >
I)</text>
<path stroke="none" fill="#000000" transform="matrix(0.0666667 0 0 0.0666667 -0.8 0.666667)" d="M 5570.36,4611.26 L 5596.94,4595.3 L 5599.6,4606.01 L 5428.01,4778.23 L 5414.01,4764.23 L 5570.36,4611.26 Z " />
<text x="0" y="0" stroke="none" fill="#000000" transform="matrix(0.0666667 0 0 0.0666667 347.1 325.194)" font-style="normal" font-weight="normal" font-size="140px" font-family="EB Garamond" >
(B)</text>
<text x="0" y="0" stroke="none" fill="#000000" transform="matrix(0.0666667 0 0 0.0666667 309.131 481.985)" font-style="normal" font-weight="normal" font-size="140px" font-family="EB Garamond" >
HO</text>
<text x="0" y="0" stroke="none" fill="#000000" transform="matrix(0.0666667 0 0 0.0666667 505.15 357.632)" font-style="normal" font-weight="normal" font-size="140px" font-family="EB Garamond" >
OH</text>
<text x="0" y="0" stroke="none" fill="#000000" transform="matrix(0.0666667 0 0 0.0666667 467.724 365.224)" font-style="normal" font-weight="normal" font-size="140px" font-family="EB Garamond" >
Me</text>
<text x="0" y="0" stroke="none" fill="#000000" transform="matrix(0.0666667 0 0 0.0666667 415.691 452.795)" font-style="normal" font-weight="normal" font-size="140px" font-family="EB Garamond" >
(B)</text>
<text x="0" y="0" stroke="none" fill="#000000" transform="matrix(0.0666667 0 0 0.0666667 442.123 409.009)" font-style="normal" font-weight="normal" font-size="140px" font-family="EB Garamond" >
(I)</text>
<text x="0" y="0" stroke="none" fill="#000000" transform="matrix(0.0666667 0 0 0.0666667 464.784 452.795)" font-style="normal" font-weight="normal" font-size="140px" font-family="EB Garamond" >
(M)</text>
<path stroke="none" fill="#000000" transform="matrix(0.0666667 0 0 0.0666667 -0.8 0.666667)" d="M 5185.32,6952.86 L 5194.97,6958.35 L 5194.9,6969.45 L 4900.72,7139.66 L 4890.82,7122.51 L 5185.32,6952.86 Z " />
<path stroke="none" fill="#000000" transform="matrix(0.0666667 0 0 0.0666667 -0.8 0.666667)" d="M 5204.62,6952.78 L 5194.97,6958.35 L 5185.32,6952.86 L 5184.81,6514.62 L 5204.62,6526.06 L 5204.62,6952.78 Z " />
<path stroke="none" fill="#000000" transform="matrix(0.0666667 0 0 0.0666667 -0.8 0.666667)" d="M 5204.62,6526.06 L 5184.81,6514.62 L 5574.16,6289.83 L 5574.16,6312.71 L 5204.62,6526.06 Z " />
<path stroke="none" fill="#000000" transform="matrix(0.0666667 0 0 0.0666667 -0.8 0.666667)" d="M 5252.46,6559.4 L 5242.56,6542.25 L 5569.21,6353.66 L 5579.11,6370.81 L 5252.46,6559.4 Z " />
<path stroke="none" fill="#000000" transform="matrix(0.0666667 0 0 0.0666667 -0.8 0.666667)" d="M 5194.9,6969.45 L 5194.97,6958.35 L 5204.62,6952.78 L 5574.16,7166.13 L 5574.16,7189.01 L 5194.9,6969.45 Z " />
<path stroke="none" fill="#000000" transform="matrix(0.0666667 0 0 0.0666667 -0.8 0.666667)" d="M 5242.56,6936.58 L 5252.46,6919.44 L 5579.11,7108.03 L 5569.21,7125.18 L 5242.56,6936.58 Z " />
<path stroke="none" fill="#000000" transform="matrix(0.0666667 0 0 0.0666667 -0.8 0.666667)" d="M 5574.16,7189.01 L 5574.16,7166.13 L 5943.71,6952.78 L 5953.36,6958.35 L 5953.36,6969.49 L 5574.16,7189.01 Z " />
<path stroke="none" fill="#000000" transform="matrix(0.0666667 0 0 0.0666667 -0.8 0.666667)" d="M 5953.36,6969.49 L 5953.36,6958.35 L 5963,6952.78 L 6332.55,7166.13 L 6332.55,7189.01 L 5953.36,6969.49 Z " />
<path stroke="none" fill="#000000" transform="matrix(0.0666667 0 0 0.0666667 -0.8 0.666667)" d="M 6332.55,7189.01 L 6332.55,7166.13 L 6702.09,6952.78 L 6711.74,6958.35 L 6711.25,6969.74 L 6332.55,7189.01 Z " />
<path stroke="none" fill="#000000" transform="matrix(0.0666667 0 0 0.0666667 -0.8 0.666667)" d="M 6721.51,6955.44 L 6711.74,6958.35 L 6702.09,6952.78 L 6702.09,6526.06 L 6711.74,6520.49 L 6721.39,6526.06 L 6721.51,6955.44 Z " />
<path stroke="none" fill="#000000" transform="matrix(0.0666667 0 0 0.0666667 -0.8 0.666667)" d="M 6721.39,6526.06 L 6711.74,6520.49 L 6718.55,6505.82 L 7081.29,6296 L 7090.93,6301.57 L 7092.04,6312.13 L 6721.39,6526.06 Z " />
<path stroke="none" fill="#000000" transform="matrix(0.0666667 0 0 0.0666667 -0.8 0.666667)" d="M 7092.04,6312.13 L 7090.93,6301.57 L 7100.52,6294.6 L 7503.7,6425.6 L 7507.36,6436.87 L 7503.47,6445.98 L 7092.04,6312.13 Z " />
<path stroke="none" fill="#000000" transform="matrix(0.0666667 0 0 0.0666667 -0.8 0.666667)" d="M 7519.15,6436.96 L 7507.36,6436.87 L 7503.7,6425.6 L 7752.87,6082.64 L 7764.72,6082.64 L 7771.25,6090.32 L 7519.15,6436.96 Z " />
<path stroke="none" fill="#000000" transform="matrix(0.0666667 0 0 0.0666667 -0.8 0.666667)" d="M 7769.29,6072.51 L 7764.72,6082.64 L 7752.87,6082.64 L 7503.7,5739.68 L 7507.36,5728.41 L 7517.47,5725.78 L 7769.29,6072.51 Z " />
<path stroke="none" fill="#000000" transform="matrix(0.0666667 0 0 0.0666667 -0.8 0.666667)" d="M 7517.47,5725.78 L 7507.36,5728.41 L 7500.72,5720.34 L 7561.12,5368.77 L 7675.25,5405.85 L 7517.47,5725.78 Z " />
<path stroke="none" fill="#000000" transform="matrix(0.0666667 0 0 0.0666667 -0.8 0.666667)" d="M 7500.72,5720.34 L 7507.36,5728.41 L 7503.7,5739.68 L 7100.52,5870.68 L 7090.93,5863.71 L 7098.44,5851.39 L 7500.72,5720.34 Z " />
<path stroke="none" fill="#000000" transform="matrix(0.0666667 0 0 0.0666667 -0.8 0.666667)" d="M 7100.52,6294.6 L 7090.93,6301.57 L 7081.29,6296 L 7081.29,5869.28 L 7090.93,5863.71 L 7100.52,5870.68 L 7100.52,6294.6 Z " />
<path stroke="none" fill="#000000" transform="matrix(0.0666667 0 0 0.0666667 -0.8 0.666667)" d="M 7098.44,5851.39 L 7090.93,5863.71 L 7083.91,5848.93 L 7030.93,5504.39 L 7150.93,5504.39 L 7098.44,5851.39 Z " />
<path stroke="none" fill="#000000" transform="matrix(0.0666667 0 0 0.0666667 -0.8 0.666667)" d="M 7083.91,5848.93 L 7090.93,5863.71 L 7081.29,5869.28 L 6711.74,5655.93 L 6711.74,5644.79 L 6718.93,5637.64 L 7083.91,5848.93 Z " />
<path stroke="none" fill="#000000" transform="matrix(0.0666667 0 0 0.0666667 -0.8 0.666667)" d="M 6701.82,5639.39 L 6711.74,5644.79 L 6711.74,5655.93 L 6342.2,5869.28 L 6332.55,5863.71 L 6330.25,5853.76 L 6701.82,5639.39 Z " />
<path stroke="none" fill="#000000" transform="matrix(0.0666667 0 0 0.0666667 -0.8 0.666667)" d="M 6322.93,5869.92 L 6332.55,5863.71 L 6342.2,5869.28 L 6342.2,6296 L 6332.55,6301.57 L 6322.9,6296 L 6322.93,5869.92 Z " />
<path stroke="none" fill="#000000" transform="matrix(0.0666667 0 0 0.0666667 -0.8 0.666667)" d="M 6704.93,6505.82 L 6711.74,6520.49 L 6702.09,6526.06 L 6332.55,6312.71 L 6332.55,6301.57 L 6342.2,6296 L 6704.93,6505.82 Z " />
<path stroke="none" fill="#000000" transform="matrix(0.0666667 0 0 0.0666667 -0.8 0.666667)" d="M 6322.9,6296 L 6332.55,6301.57 L 6332.55,6312.71 L 5963,6526.06 L 5953.36,6520.49 L 5953.36,6509.35 L 6322.9,6296 Z " />
<path stroke="none" fill="#000000" transform="matrix(0.0666667 0 0 0.0666667 -0.8 0.666667)" d="M 5574.16,6312.71 L 5574.16,6289.83 L 5953.36,6509.35 L 5953.36,6520.49 L 5943.71,6526.06 L 5574.16,6312.71 Z " />
<path stroke="none" fill="#000000" transform="matrix(0.0666667 0 0 0.0666667 -0.8 0.666667)" d="M 5963,6952.78 L 5953.36,6958.35 L 5943.71,6952.78 L 5943.71,6526.06 L 5953.36,6520.49 L 5963,6526.06 L 5963,6952.78 Z " />
<path stroke="none" fill="#000000" transform="matrix(0.0666667 0 0 0.0666667 -0.8 0.666667)" d="M 5910.71,6928.01 L 5890.91,6928.01 L 5890.91,6550.83 L 5910.71,6550.83 L 5910.71,6928.01 Z " />
<path stroke="none" fill="#000000" transform="matrix(0.0666667 0 0 0.0666667 -0.8 0.666667)" d="M 6322.65,6355.5 L 6342.45,6355.5 L 6345.97,6375.3 L 6319.13,6375.3 L 6322.65,6355.5 Z " />
<path stroke="none" fill="#000000" transform="matrix(0.0666667 0 0 0.0666667 -0.8 0.666667)" d="M 6311,6421.02 L 6354.09,6421.02 L 6357.61,6440.82 L 6307.48,6440.82 L 6311,6421.02 Z " />
<path stroke="none" fill="#000000" transform="matrix(0.0666667 0 0 0.0666667 -0.8 0.666667)" d="M 6299.36,6486.54 L 6365.74,6486.54 L 6369.26,6506.34 L 6295.84,6506.34 L 6299.36,6486.54 Z " />
<path stroke="none" fill="#000000" transform="matrix(0.0666667 0 0 0.0666667 -0.8 0.666667)" d="M 6287.71,6552.06 L 6377.38,6552.06 L 6380.9,6571.86 L 6284.19,6571.86 L 6287.71,6552.06 Z " />
<path stroke="none" fill="#000000" transform="matrix(0.0666667 0 0 0.0666667 -0.8 0.666667)" d="M 6276.07,6617.59 L 6389.03,6617.59 L 6392.55,6637.39 L 6272.55,6637.39 L 6276.07,6617.59 Z " />
<path stroke="none" fill="#000000" transform="matrix(0.0666667 0 0 0.0666667 -0.8 0.666667)" d="M 6718.55,6505.82 L 6711.74,6520.49 L 6704.93,6505.82 L 6651.74,6189.01 L 6771.74,6189.01 L 6718.55,6505.82 Z " />
<path stroke="none" fill="#000000" transform="matrix(0.0666667 0 0 0.0666667 -0.8 0.666667)" d="M 7081.03,6355.5 L 7100.83,6355.5 L 7104.35,6375.3 L 7077.51,6375.3 L 7081.03,6355.5 Z " />
<path stroke="none" fill="#000000" transform="matrix(0.0666667 0 0 0.0666667 -0.8 0.666667)" d="M 7069.39,6421.02 L 7112.48,6421.02 L 7116,6440.82 L 7065.87,6440.82 L 7069.39,6421.02 Z " />
<path stroke="none" fill="#000000" transform="matrix(0.0666667 0 0 0.0666667 -0.8 0.666667)" d="M 7057.74,6486.54 L 7124.12,6486.54 L 7127.64,6506.34 L 7054.22,6506.34 L 7057.74,6486.54 Z " />
<path stroke="none" fill="#000000" transform="matrix(0.0666667 0 0 0.0666667 -0.8 0.666667)" d="M 7046.1,6552.06 L 7135.77,6552.06 L 7139.29,6571.86 L 7042.58,6571.86 L 7046.1,6552.06 Z " />
<path stroke="none" fill="#000000" transform="matrix(0.0666667 0 0 0.0666667 -0.8 0.666667)" d="M 7034.45,6617.59 L 7147.41,6617.59 L 7150.93,6637.39 L 7030.93,6637.39 L 7034.45,6617.59 Z " />
<text x="0" y="0" stroke="none" fill="#000000" transform="matrix(0.0666667 0 0 0.0666667 543.574 401.454)" font-style="normal" font-weight="normal" font-size="140px" font-family="EB Garamond" >
(G)</text>
<path stroke="none" fill="#000000" transform="matrix(0.0666667 0 0 0.0666667 -0.8 0.666667)" d="M 7771.25,6090.32 L 7764.72,6082.64 L 7769.29,6072.51 L 8115.83,5926.44 L 8146.89,6042.35 L 7771.25,6090.32 Z " />
<text x="0" y="0" stroke="none" fill="#000000" transform="matrix(0.0666667 0 0 0.0666667 543.574 416.564)" font-style="normal" font-weight="normal" font-size="140px" font-family="EB Garamond" >
(A)</text>
<path stroke="none" fill="#000000" transform="matrix(0.0666667 0 0 0.0666667 -0.8 0.666667)" d="M 7814.15,6106.13 L 7819.28,6087.01 L 7839.19,6089.19 L 7832.49,6114.2 L 7814.15,6106.13 Z " />
<path stroke="none" fill="#000000" transform="matrix(0.0666667 0 0 0.0666667 -0.8 0.666667)" d="M 7870.75,6131.04 L 7880.75,6093.74 L 7900.66,6095.92 L 7889.09,6139.11 L 7870.75,6131.04 Z " />
<path stroke="none" fill="#000000" transform="matrix(0.0666667 0 0 0.0666667 -0.8 0.666667)" d="M 7927.35,6155.95 L 7942.22,6100.47 L 7962.13,6102.64 L 7945.69,6164.02 L 7927.35,6155.95 Z " />
<path stroke="none" fill="#000000" transform="matrix(0.0666667 0 0 0.0666667 -0.8 0.666667)" d="M 7983.95,6180.86 L 8003.69,6107.19 L 8023.6,6109.37 L 8002.28,6188.93 L 7983.95,6180.86 Z " />
<path stroke="none" fill="#000000" transform="matrix(0.0666667 0 0 0.0666667 -0.8 0.666667)" d="M 8040.55,6205.76 L 8065.15,6113.92 L 8085.07,6116.1 L 8058.88,6213.83 L 8040.55,6205.76 Z " />
<path stroke="none" fill="#000000" transform="matrix(0.0666667 0 0 0.0666667 -0.8 0.666667)" d="M 8097.14,6230.67 L 8126.62,6120.65 L 8146.54,6122.83 L 8115.48,6238.74 L 8097.14,6230.67 Z " />
<text x="0" y="0" stroke="none" fill="#000000" transform="matrix(0.0666667 0 0 0.0666667 518.861 453.265)" font-style="normal" font-weight="normal" font-size="140px" font-family="EB Garamond" >
(J)</text>
<path stroke="none" fill="#000000" transform="matrix(0.0666667 0 0 0.0666667 -0.8 0.666667)" d="M 7503.47,6445.98 L 7507.36,6436.87 L 7519.15,6436.96 L 7805.03,6649.69 L 7720.17,6734.54 L 7503.47,6445.98 Z " />
<text x="0" y="0" stroke="none" fill="#000000" transform="matrix(0.0666667 0 0 0.0666667 494.361 461.815)" font-style="normal" font-weight="normal" font-size="140px" font-family="EB Garamond" >
(F)</text>
<path stroke="none" fill="#000000" transform="matrix(0.0666667 0 0 0.0666667 -0.8 0.666667)" d="M 7497.46,6490.8 L 7517.26,6490.8 L 7520.78,6510.6 L 7493.94,6510.6 L 7497.46,6490.8 Z " />
<path stroke="none" fill="#000000" transform="matrix(0.0666667 0 0 0.0666667 -0.8 0.666667)" d="M 7485.81,6556.32 L 7528.9,6556.32 L 7532.42,6576.12 L 7482.29,6576.12 L 7485.81,6556.32 Z " />
<path stroke="none" fill="#000000" transform="matrix(0.0666667 0 0 0.0666667 -0.8 0.666667)" d="M 7474.17,6621.85 L 7540.55,6621.85 L 7544.07,6641.65 L 7470.65,6641.65 L 7474.17,6621.85 Z " />
<path stroke="none" fill="#000000" transform="matrix(0.0666667 0 0 0.0666667 -0.8 0.666667)" d="M 7462.52,6687.37 L 7552.19,6687.37 L 7555.71,6707.17 L 7459,6707.17 L 7462.52,6687.37 Z " />
<path stroke="none" fill="#000000" transform="matrix(0.0666667 0 0 0.0666667 -0.8 0.666667)" d="M 7450.88,6752.89 L 7563.84,6752.89 L 7567.36,6772.69 L 7447.36,6772.69 L 7450.88,6752.89 Z " />
<text x="0" y="0" stroke="none" fill="#000000" transform="matrix(0.0666667 0 0 0.0666667 432.636 351.623)" font-style="normal" font-weight="normal" font-size="140px" font-family="EB Garamond" >
(D)</text>
<path stroke="none" fill="#000000" transform="matrix(0.0666667 0 0 0.0666667 -0.8 0.666667)" d="M 6718.93,5637.64 L 6711.74,5644.79 L 6701.82,5639.39 L 6571.7,5353.97 L 6687.61,5322.92 L 6718.93,5637.64 Z " />
<text x="0" y="0" stroke="none" fill="#000000" transform="matrix(0.0666667 0 0 0.0666667 448.539 351.623)" font-style="normal" font-weight="normal" font-size="140px" font-family="EB Garamond" >
(L)</text>
<path stroke="none" fill="#000000" transform="matrix(0.0666667 0 0 0.0666667 -0.8 0.666667)" d="M 6735.23,5595.38 L 6716.1,5590.25 L 6717.63,5570.16 L 6743.95,5577.22 L 6735.23,5595.38 Z " />
<path stroke="none" fill="#000000" transform="matrix(0.0666667 0 0 0.0666667 -0.8 0.666667)" d="M 6762.37,5538.87 L 6720.85,5527.74 L 6722.38,5507.65 L 6771.1,5520.71 L 6762.37,5538.87 Z " />
<path stroke="none" fill="#000000" transform="matrix(0.0666667 0 0 0.0666667 -0.8 0.666667)" d="M 6789.52,5482.36 L 6725.6,5465.24 L 6727.12,5445.15 L 6798.24,5464.2 L 6789.52,5482.36 Z " />
<path stroke="none" fill="#000000" transform="matrix(0.0666667 0 0 0.0666667 -0.8 0.666667)" d="M 6816.66,5425.86 L 6730.34,5402.73 L 6731.87,5382.64 L 6825.38,5407.7 L 6816.66,5425.86 Z " />
<path stroke="none" fill="#000000" transform="matrix(0.0666667 0 0 0.0666667 -0.8 0.666667)" d="M 6843.8,5369.35 L 6735.09,5340.22 L 6736.62,5320.13 L 6852.53,5351.19 L 6843.8,5369.35 Z " />
<text x="0" y="0" stroke="none" fill="#000000" transform="matrix(0.0666667 0 0 0.0666667 381.204 386.859)" font-style="normal" font-weight="normal" font-size="140px" font-family="EB Garamond" >
(H)</text>
<path stroke="none" fill="#000000" transform="matrix(0.0666667 0 0 0.0666667 -0.8 0.666667)" d="M 6330.25,5853.76 L 6332.55,5863.71 L 6322.93,5869.92 L 5950.32,5823.41 L 5981.38,5707.5 L 6330.25,5853.76 Z " />
<text x="0" y="0" stroke="none" fill="#000000" transform="matrix(0.0666667 0 0 0.0666667 389.861 373.774)" font-style="normal" font-weight="normal" font-size="140px" font-family="EB Garamond" >
(A)</text>
<path stroke="none" fill="#000000" transform="matrix(0.0666667 0 0 0.0666667 -0.8 0.666667)" d="M 6301.4,5818.57 L 6287.4,5832.57 L 6271.1,5820.87 L 6289.71,5802.26 L 6301.4,5818.57 Z " />
<path stroke="none" fill="#000000" transform="matrix(0.0666667 0 0 0.0666667 -0.8 0.666667)" d="M 6267.83,5771.75 L 6240.59,5799 L 6224.28,5787.3 L 6256.14,5755.44 L 6267.83,5771.75 Z " />
<path stroke="none" fill="#000000" transform="matrix(0.0666667 0 0 0.0666667 -0.8 0.666667)" d="M 6234.26,5724.93 L 6193.77,5765.43 L 6177.46,5753.73 L 6222.57,5708.62 L 6234.26,5724.93 Z " />
<path stroke="none" fill="#000000" transform="matrix(0.0666667 0 0 0.0666667 -0.8 0.666667)" d="M 6200.69,5678.11 L 6146.95,5731.86 L 6130.64,5720.16 L 6189,5661.81 L 6200.69,5678.11 Z " />
<path stroke="none" fill="#000000" transform="matrix(0.0666667 0 0 0.0666667 -0.8 0.666667)" d="M 6167.12,5631.3 L 6100.13,5698.29 L 6083.82,5686.59 L 6155.43,5614.99 L 6167.12,5631.3 Z " />
<path stroke="none" fill="#000000" transform="matrix(0.0666667 0 0 0.0666667 -0.8 0.666667)" d="M 6133.55,5584.48 L 6053.31,5664.72 L 6037.01,5653.02 L 6121.86,5568.17 L 6133.55,5584.48 Z " />
<text x="0" y="0" stroke="none" fill="#000000" transform="matrix(0.0666667 0 0 0.0666667 465.82 488.03)" font-style="normal" font-weight="normal" font-size="140px" font-family="EB Garamond" >
(C)</text>
<path stroke="none" fill="#000000" transform="matrix(0.0666667 0 0 0.0666667 -0.8 0.666667)" d="M 6711.25,6969.74 L 6711.74,6958.35 L 6721.51,6955.44 L 7009.41,7171.16 L 6924.56,7256.02 L 6711.25,6969.74 Z " />
<text x="0" y="0" stroke="none" fill="#000000" transform="matrix(0.0666667 0 0 0.0666667 473.375 474.945)" font-style="normal" font-weight="normal" font-size="140px" font-family="EB Garamond" >
(K)</text>
<path stroke="none" fill="#000000" transform="matrix(0.0666667 0 0 0.0666667 -0.8 0.666667)" d="M 6761.17,6981.84 L 6766.3,6962.72 L 6786.21,6964.9 L 6779.51,6989.91 L 6761.17,6981.84 Z " />
<path stroke="none" fill="#000000" transform="matrix(0.0666667 0 0 0.0666667 -0.8 0.666667)" d="M 6817.77,7006.75 L 6827.77,6969.44 L 6847.68,6971.62 L 6836.11,7014.82 L 6817.77,7006.75 Z " />
<path stroke="none" fill="#000000" transform="matrix(0.0666667 0 0 0.0666667 -0.8 0.666667)" d="M 6874.37,7031.66 L 6889.24,6976.17 L 6909.15,6978.35 L 6892.71,7039.73 L 6874.37,7031.66 Z " />
<path stroke="none" fill="#000000" transform="matrix(0.0666667 0 0 0.0666667 -0.8 0.666667)" d="M 6930.97,7056.56 L 6950.71,6982.9 L 6970.62,6985.08 L 6949.3,7064.63 L 6930.97,7056.56 Z " />
<path stroke="none" fill="#000000" transform="matrix(0.0666667 0 0 0.0666667 -0.8 0.666667)" d="M 6987.57,7081.47 L 7012.17,6989.63 L 7032.09,6991.81 L 7005.9,7089.54 L 6987.57,7081.47 Z " />
<path stroke="none" fill="#000000" transform="matrix(0.0666667 0 0 0.0666667 -0.8 0.666667)" d="M 7044.16,7106.38 L 7073.64,6996.36 L 7093.56,6998.54 L 7062.5,7114.45 L 7044.16,7106.38 Z " />
</svg>
